<?xml version="1.0" encoding="UTF-8" standalone="no"?>
<!-- Generator: Adobe Illustrator 16.0.0, SVG Export Plug-In . SVG Version: 6.00 Build 0)  -->

<svg
   version="1.1"
   id="Layer_1"
   x="0px"
   y="0px"
   width="1200px"
   height="1200px"
   viewBox="0 0 1200 1200"
   enable-background="new 0 0 1200 1200"
   xml:space="preserve"
   sodipodi:docname="Abu-Bakr.svg"
   inkscape:version="1.1 (c68e22c387, 2021-05-23)"
   xmlns:inkscape="http://www.inkscape.org/namespaces/inkscape"
   xmlns:sodipodi="http://sodipodi.sourceforge.net/DTD/sodipodi-0.dtd"
   xmlns="http://www.w3.org/2000/svg"
   xmlns:svg="http://www.w3.org/2000/svg"><defs
   id="defs244">
	
	
</defs><sodipodi:namedview
   id="namedview242"
   pagecolor="#ffffff"
   bordercolor="#999999"
   borderopacity="1"
   inkscape:pageshadow="0"
   inkscape:pageopacity="0"
   inkscape:pagecheckerboard="0"
   showgrid="false"
   inkscape:zoom="0.45903015"
   inkscape:cx="600.17844"
   inkscape:cy="476.00359"
   inkscape:window-width="1920"
   inkscape:window-height="991"
   inkscape:window-x="-9"
   inkscape:window-y="-9"
   inkscape:window-maximized="1"
   inkscape:current-layer="Layer_1" />

<circle
   style="fill:none;fill-opacity:0.501961;stroke:#eb5e28;stroke-width:3.06377;stroke-linecap:round;stroke-linejoin:round;stroke-miterlimit:4;stroke-dasharray:none;stroke-dashoffset:17.5;stroke-opacity:1"
   id="path973"
   cx="-600"
   cy="-600"
   r="521.76276"
   transform="scale(-1)" /><g
   id="g237"
   style="fill:#eb5e28;fill-opacity:1"
   transform="matrix(0.93175504,0,0,0.93175504,35.322971,35.721567)">
		<radialGradient
   id="SVGID_2_"
   cx="541.02643"
   cy="605.60638"
   r="356.71481"
   gradientUnits="userSpaceOnUse">
			<stop
   offset="0"
   style="stop-color:#FFE300"
   id="stop13" />
			<stop
   offset="1"
   style="stop-color:#FFC000"
   id="stop15" />
		</radialGradient>
		<path
   fill-rule="evenodd"
   clip-rule="evenodd"
   fill="url(#SVGID_2_)"
   d="m 285.714,823.481 c 0.005,19.875 5.588,36.931 20.61,50.449 6.431,5.809 14.163,8.206 22.329,7.601 9.087,-0.696 17.637,-3.73 25.261,-9.261 15.581,-11.382 28.484,-25.4 41.375,-39.626 20.068,-22.156 38.855,-45.649 63.486,-63.252 20.291,-14.526 42.441,-25.352 66.067,-33.354 25.325,-8.601 50.571,-17.461 75.566,-26.943 6.946,-2.629 13.162,-7.52 19.275,-11.963 5.349,-3.872 5.378,-5.729 3.352,-12.065 -4.824,-15.02 -13.364,-27.927 -23.369,-39.75 -13.127,-15.554 -26.685,-30.762 -40.747,-45.481 -21.011,-22.002 -42.043,-44.067 -64.091,-65.032 -26.131,-24.81 -53.337,-48.52 -80.042,-72.7 -2.366,-2.156 -5.161,-4.038 -6.892,-6.597 -1.853,-2.712 -3.752,-6.06 -3.831,-9.199 -0.715,-26.135 7.041,-49.905 25.068,-68.687 9.827,-10.261 22.549,-18.181 34.963,-25.469 18.779,-11.028 38.325,-20.818 57.751,-30.771 20.31,-10.378 40.703,-20.508 61.262,-30.337 12.598,-6.013 25.547,-11.318 38.369,-16.838 16.453,-7.095 32.878,-14.173 49.417,-21.045 10.646,-4.426 21.486,-8.34 32.143,-12.734 4.973,-2.08 9.583,-5.042 14.561,-7.056 19.802,-8 39.829,-15.425 60.952,-19.39 4.543,-0.825 9.263,-1.218 13.879,-1.184 11.135,0.093 16.965,5.952 17.668,17.253 0.847,13.337 -2.466,25.869 -7.666,37.92 -8.164,18.879 -20.322,35.195 -33.062,51.184 -8.569,10.732 -16.438,22.004 -24.763,32.905 -2.19,2.883 -4.871,5.432 -7.534,7.893 -0.637,0.596 -2.175,0.176 -3.276,0.22 -0.01,-0.93 -0.22,-1.924 0.034,-2.776 0.435,-1.401 1.021,-2.808 1.843,-4.001 8.65,-12.778 17.349,-25.5 25.999,-38.274 8.359,-12.39 17.478,-24.353 24.783,-37.341 7.07,-12.593 2.327,-19.378 -12.283,-17.903 -9.167,0.918 -18.228,3.823 -27.083,6.634 -13.787,4.362 -27.451,9.201 -41.023,14.226 -9.865,3.667 -19.548,7.817 -29.229,11.982 -22.756,9.766 -45.522,19.609 -68.222,29.526 -13.491,5.881 -27.131,11.487 -40.234,18.101 -21.665,10.974 -43.12,22.38 -64.39,34.126 -20.581,11.36 -40.839,23.345 -61.174,35.166 -3.813,2.229 -7.354,4.9 -10.85,7.59 -3.884,2.949 -4.048,4.412 -0.22,7.351 6.245,4.729 12.869,8.977 19.248,13.518 22.566,16.098 45.083,32.263 67.656,48.357 30.764,21.933 62.061,43.208 92.2,65.983 20.12,15.198 39.226,31.907 57.709,49.065 12.381,11.482 22.698,25.093 34.297,37.432 13.757,14.612 26.362,30.454 43.86,41.121 15.251,9.282 31.387,10.207 48.237,6.089 18.44,-4.478 32.649,-15.459 44.834,-29.39 4.487,-5.122 8.293,-10.884 12.539,-16.25 0.781,-0.999 2.192,-1.501 3.325,-2.244 0.566,1.282 1.546,2.532 1.636,3.823 1.089,14.008 -1.123,27.25 -7.739,39.902 -9.272,17.752 -22.553,31.582 -39.912,41.16 -18.899,10.479 -38.953,14.846 -60.183,7.183 -10.564,-3.813 -19.844,-9.824 -27.695,-17.737 -16.567,-16.758 -32.741,-33.892 -49.25,-50.666 -15.693,-15.928 -31.562,-31.65 -47.495,-47.327 -2.158,-2.117 -5.117,-3.457 -7.722,-5.173 1.387,2.708 2.72,5.417 4.185,8.091 5.078,9.224 10.588,18.23 15.254,27.649 8.254,16.682 6.75,33.955 1.353,50.969 -3.792,11.916 -8.994,23.288 -16.562,33.537 -6.016,8.159 -13.713,14.58 -22.507,18.542 -19.011,8.491 -38.586,15.776 -58.135,22.986 -5.938,2.173 -10.369,4.824 -12.859,10.862 -10.503,25.347 -23.896,49.57 -28.298,77.197 -3.537,22.046 -3.278,43.572 7.729,63.779 10.574,19.351 27.036,29.243 49.092,29.602 24.404,0.4 47.002,-6.304 68.481,-17.493 3.691,-1.912 7.625,-3.276 11.433,-4.961 1.55,-0.676 3.101,-1.406 4.556,-2.266 6.663,-4.097 13.069,-8.623 19.956,-12.268 8.919,-4.69 16.968,-10.483 24.593,-16.995 4.106,-3.513 8.955,-6.145 12.959,-9.714 10.964,-9.761 21.789,-19.722 32.446,-29.822 4.121,-3.898 4.402,-17.255 0.378,-20.91 -1.558,-1.426 -4.968,-1.799 -7.266,-1.306 -14.749,3.167 -29.648,3.696 -44.658,3.542 -11.447,-0.112 -21.589,-3.638 -29.277,-11.672 -4.204,-4.365 -7.051,-10.652 -8.823,-16.575 -3.926,-13.005 -1.201,-25.837 3.511,-38.208 5.347,-14.001 13.505,-26.335 25.486,-35.432 15.437,-11.736 28.755,-12.432 42.485,-4.956 8.545,4.636 16.162,10.393 21.655,18.374 5.151,7.471 9.797,15.278 14.116,23.245 3.787,6.958 4.614,7.869 11.753,3.953 13.96,-7.668 27.661,-15.793 41.453,-23.748 7.231,-4.141 14.25,-8.633 22.805,-9.893 7.957,-1.147 14.902,2.322 17.249,10.129 1.379,4.575 2.185,9.746 1.614,14.429 -2.546,20.688 -11.135,39.004 -22.793,56.06 -7.09,10.322 -13.767,20.901 -20.85,31.218 -2.605,3.828 -5.63,7.395 -8.799,10.806 -4.668,5.08 -4.653,5.972 1.25,9.914 9.993,6.644 20,13.335 30.007,19.968 5.83,3.879 6.15,5.398 2.271,11.199 -5.317,7.979 -10.593,15.957 -15.945,23.887 -1.089,1.638 -2.4,3.12 -3.652,4.614 -1.943,2.263 -3.901,2.268 -6.37,0.464 -10.449,-7.751 -21.008,-15.332 -31.484,-23.018 -5.244,-3.85 -5.249,-4.612 -1.926,-10.071 5.752,-9.412 11.416,-18.906 17.085,-28.352 0.505,-0.847 1.14,-1.67 1.418,-2.568 6.66,-20.939 19.473,-38.42 31.499,-56.376 2.981,-4.465 5.242,-9.404 7.842,-14.15 1.814,-3.364 1.814,-6.577 -0.935,-9.48 -2.825,-2.961 -6.211,-2.71 -9.531,-1.208 -3.562,1.624 -7.136,3.301 -10.459,5.369 -13.105,8.198 -25.986,16.763 -39.207,24.739 -4.28,2.571 -6.375,5.723 -6.816,10.464 -2.363,23.855 -11.809,44.934 -25.371,64.365 -10.723,15.347 -25.017,26.919 -39.897,37.847 -11.25,8.254 -22.395,16.704 -34.038,24.375 -26.43,17.361 -54.362,31.687 -85.976,36.787 -14.58,2.356 -29.453,2.356 -43.525,-3.459 -18.635,-7.722 -30.102,-22.483 -37.507,-40.54 -7.365,-17.961 -9.775,-36.624 -8.403,-56.174 1.995,-28.411 10.659,-54.756 22.166,-80.386 4.929,-10.925 10.737,-21.482 16.062,-32.239 0.618,-1.208 0.703,-2.683 1.018,-4.048 -1.543,0.02 -3.22,-0.369 -4.6,0.12 -34.917,12.214 -63.708,33.494 -88.269,60.63 -13.645,15.08 -26.357,31.011 -39.707,46.359 -9.397,10.815 -20.579,19.656 -32.793,27.112 -16.274,9.888 -37.095,7.058 -52.512,-6.624 -16.779,-14.89 -24.836,-34.121 -28.613,-55.773 -3.391,-19.448 0.218,-38.132 4.99,-56.68 7.83,-30.505 21.035,-58.621 38.75,-84.592 5.557,-8.154 8.342,-16.311 7.48,-26.721 -0.696,-8.728 2.28,-17.883 4.392,-26.655 0.967,-3.979 1.077,-6.716 -1.729,-10.009 -2.468,-2.893 -3.765,-6.772 -5.728,-10.115 -0.654,-1.128 -1.846,-1.97 -2.798,-2.937 -0.623,0.967 -1.279,1.914 -1.875,2.908 -2.766,4.57 -5.039,9.578 -8.374,13.679 -6.601,8.138 -15.454,10.13 -25.229,6.883 -10.112,-3.343 -14.915,-11.489 -15.457,-21.321 -0.483,-8.694 1.097,-17.524 1.971,-26.292 0.324,-3.176 1.411,-6.248 1.73,-9.429 0.145,-1.487 -0.715,-3.071 -1.118,-4.612 -1.069,1.106 -2.731,2.056 -3.105,3.372 -2.702,9.67 -5.249,19.365 -7.648,29.119 -2.271,9.282 -4.241,18.667 -6.514,27.954 -1.211,4.949 -4.329,8.286 -9.57,8.992 -4.934,0.666 -7.51,-2.83 -10.049,-6.196 -8.848,-11.665 -9.905,-25.286 -9.68,-39.209 0.049,-2.932 0.474,-5.884 1.05,-8.76 0.247,-1.167 1.331,-2.178 2.026,-3.276 0.603,1.248 1.602,2.454 1.655,3.721 0.088,2.427 -0.391,4.875 -0.559,7.317 -0.752,9.971 0.269,19.641 5.42,28.452 1.069,1.853 2.522,3.708 4.236,4.905 4.563,3.218 7.949,2.559 10.034,-2.532 2.2,-5.381 3.95,-11.047 5.059,-16.77 3.188,-16.384 5.139,-33.064 13.918,-47.778 0.996,-1.702 1.802,-3.674 3.234,-4.873 1.709,-1.406 3.989,-2.102 5.994,-3.113 1.001,2.041 3.005,4.175 2.819,6.118 -0.847,9.761 -2.36,19.465 -3.483,29.202 -0.479,4.121 -0.952,8.34 -0.652,12.454 1.069,15.288 15.596,22.322 28.33,13.828 9.148,-6.113 13.511,-15.115 13.052,-25.779 -0.454,-10.51 -2.012,-20.984 -3.591,-31.387 -0.981,-6.538 -1.03,-12.708 2.078,-18.669 0.522,-1.021 1.421,-1.841 2.146,-2.764 0.964,0.942 2.563,1.738 2.812,2.856 1.865,8.586 3.889,17.197 5.029,25.913 1.428,10.674 1.748,21.482 3.193,32.156 0.498,3.694 2.388,7.52 4.585,10.618 4.885,6.921 16.003,7.136 20.974,0.364 1.47,-2.017 1.814,-5.581 1.34,-8.215 -1.392,-7.722 -3.435,-15.305 -5.266,-22.944 -2.556,-10.706 -5.718,-21.294 -7.422,-32.144 -0.679,-4.177 1.75,-8.928 3.13,-13.306 0.134,-0.469 3.643,-0.715 3.884,-0.212 3.55,6.982 6.887,14.099 10.085,21.255 0.332,0.803 -0.33,2.93 -0.923,3.127 -4.988,1.497 -2.827,4.749 -2.087,7.646 1.777,7.151 3.503,14.319 5.459,21.406 2.866,10.413 1.375,20.566 -2.117,30.396 -3.01,8.591 -9.5,14.047 -18.733,14.169 -5.276,0.091 -6.985,2.373 -7.927,6.611 -1.755,7.871 -4.258,15.688 -2.441,23.901 4.072,18.589 23.352,25.447 38.235,23.618 21.719,-2.639 40.698,-12.275 59.158,-23.181 1.055,-0.62 2.314,-2.31 2.166,-3.276 -0.2,-1.111 -1.689,-2.532 -2.878,-2.894 -3.765,-1.094 -7.639,-1.768 -11.497,-2.575 -2.393,-0.506 -4.812,-0.918 -7.212,-1.367 -11.848,-2.171 -15.93,-12.161 -13.391,-22.278 3.582,-14.257 13.047,-24.479 25.339,-32.124 4.001,-2.493 6.565,-0.117 8.464,3.032 2.166,3.555 3.77,7.444 5.85,11.069 2.893,4.98 4.517,4.941 7.634,0.176 7.825,-11.902 16.035,-23.494 26.904,-32.966 8.133,-7.041 19.072,-8.962 27.981,-3.647 9.404,5.579 16.816,15.125 14.479,27.478 -2.327,12.285 -8.33,22.188 -20.122,27.26 -7.383,3.191 -15.176,5.503 -22.946,7.664 -4.268,1.164 -7.596,2.741 -9.837,6.809 -3.35,5.989 -7.573,11.512 -10.678,17.63 -2.424,4.719 -4.104,9.943 -5.442,15.124 -1.545,5.757 0.227,10.825 5.422,14.099 5.02,3.174 10.214,1.709 14.495,-1.348 7.58,-5.393 14.934,-11.162 21.975,-17.207 10.645,-9.146 21.453,-18.022 33.887,-24.617 8.057,-4.25 16.362,-7.863 25.999,-4.919 9.861,3.013 14.619,11.364 11.65,21.045 -0.95,3.112 -2.537,3.569 -4.714,1.384 -9.846,-9.849 -20.92,-9.616 -32.346,-3.547 -15.52,8.22 -28.611,19.78 -41.941,31.008 -4.653,3.918 -9.536,7.756 -14.826,10.725 -9.463,5.317 -19.373,1.25 -23.35,-8.853 -3.032,-7.727 -2.864,-15.581 0.242,-22.966 3.232,-7.629 7.539,-14.812 11.46,-22.144 0.925,-1.733 2.292,-3.213 3.293,-4.885 2.478,-4.194 2.009,-5.789 -2.5,-6.831 -4.744,-1.099 -9.607,-2.144 -14.456,-2.358 -2.891,-0.13 -3.569,-1.162 -4.487,-3.523 -1.948,-5.012 -4.329,-9.858 -6.733,-14.677 -2.266,-4.553 -3.989,-4.941 -8.884,-3.196 -6.125,2.209 -9.944,7.09 -13.862,11.753 -2.324,2.805 -1.624,5.82 1.501,7.414 3.027,1.556 6.394,2.537 9.683,3.262 4.084,0.913 8.269,1.18 12.371,1.978 12.188,2.415 16.567,11.572 11.982,22.977 -3.057,7.634 -8.818,12.399 -15.066,16.63 -16.174,11.021 -33.56,19.446 -53.083,22.527 -14.062,2.236 -27.009,0.005 -36.936,-11.353 -2.947,-3.376 -5,-2.144 -6.824,0.928 -15.122,25.649 -29.177,51.772 -35.832,81.111 -2.234,9.757 -3.677,19.689 -5.481,29.557 z M 460.477,644.919 c 14.484,-0.325 26.543,-3.513 37.842,-10.64 2.534,-1.592 6.018,-2.817 5.021,-7.126 -3.181,-13.906 -20.581,-20.906 -32.676,-13.328 -9.641,6.069 -15.915,15.161 -22.651,23.889 -2.261,2.92 -1.057,5.3 2.251,6.055 3.335,0.716 6.797,0.779 10.213,1.15 z m 228.258,150.674 c 7.116,-0.71 12.231,-1.213 17.321,-1.716 4.88,-0.474 5.664,-1.88 2.644,-5.61 -5.315,-6.621 -11.892,-11.555 -20.004,-14.417 -6.614,-2.324 -12.718,-1.758 -17.881,2.927 -2.349,2.122 -5.566,5.723 -5.098,7.939 0.615,2.915 4.067,6.316 7.058,7.437 5.64,2.053 11.81,2.61 15.96,3.44 z"
   id="path18"
   style="fill:#eb5e28;fill-opacity:1" />
		<radialGradient
   id="SVGID_3_"
   cx="898.19141"
   cy="632.78558"
   r="231.1987"
   gradientUnits="userSpaceOnUse">
			<stop
   offset="0"
   style="stop-color:#FFE300"
   id="stop20" />
			<stop
   offset="1"
   style="stop-color:#FFC000"
   id="stop22" />
		</radialGradient>
		<path
   fill-rule="evenodd"
   clip-rule="evenodd"
   fill="url(#SVGID_3_)"
   d="m 904.787,444.913 c -0.144,86.369 -0.183,172.736 -0.522,259.103 -0.103,27.725 -0.464,55.461 -1.646,83.127 -1.282,29.639 -3.232,59.268 -5.712,88.806 -2.163,25.764 -7.054,51.03 -19.229,74.279 -0.237,0.435 -0.369,0.952 -0.684,1.316 -2.144,2.434 -5.01,7.202 -6.401,6.812 -4.287,-1.226 -1.351,-5.422 -1.16,-8.23 2.796,-46.548 3.223,-93.156 3.203,-139.768 0,-14.189 0.991,-28.376 1.03,-42.561 0.205,-64.316 0.083,-128.627 0.345,-192.912 0.107,-26.716 0.905,-53.438 1.496,-80.154 0.918,-40.7 1.98,-81.394 2.825,-122.131 0.109,-5.583 -0.926,-11.216 -1.045,-16.831 -0.059,-3.115 -0.166,-6.704 1.208,-9.258 6.985,-12.683 14.434,-25.127 21.782,-37.585 0.432,-0.752 1.433,-1.143 2.151,-1.733 0.674,1.196 1.687,2.3 1.936,3.572 6.033,28.54 12.271,57.024 17.764,85.691 2.734,14.414 4.146,29.087 5.901,43.672 0.32,2.812 -0.393,5.857 -0.957,8.699 -0.212,0.991 -1.362,2.397 -2.209,2.507 -0.811,0.078 -2.126,-1.104 -2.629,-2.039 -3.669,-6.926 -7.092,-13.987 -10.811,-20.872 -0.793,-1.465 -2.581,-2.383 -3.899,-3.572 -0.518,1.536 -1.445,3.071 -1.504,4.617 -0.205,5.134 -0.068,10.305 -0.068,15.444 -0.391,0.001 -0.775,0.001 -1.165,0.001 z"
   id="path25"
   style="fill:#eb5e28;fill-opacity:1" />
		<radialGradient
   id="SVGID_4_"
   cx="712.18213"
   cy="473.7251"
   r="106.3097"
   gradientUnits="userSpaceOnUse">
			<stop
   offset="0"
   style="stop-color:#FFE300"
   id="stop27" />
			<stop
   offset="1"
   style="stop-color:#FFC000"
   id="stop29" />
		</radialGradient>
		<path
   fill-rule="evenodd"
   clip-rule="evenodd"
   fill="url(#SVGID_4_)"
   d="m 651.213,482.498 c 9.468,0.483 18.54,-1.023 26.971,-5.63 4.634,-2.52 4.785,-3.667 0.928,-7.376 -4.93,-4.787 -9.507,-9.943 -14.676,-14.445 -4.57,-4.001 -4.536,-8.933 -4.126,-14.143 0.262,-3.33 2.178,-4.368 5.062,-2.759 5.114,2.869 10.212,5.891 15.156,9.048 1.013,0.642 2.253,2.644 1.924,3.442 -1.719,4.213 1.066,5.769 3.815,7.571 13.931,9.099 11.106,10.107 25.356,0.132 2.59,-1.839 4.973,-3.978 7.476,-5.95 3.335,-2.639 4.368,-6.082 2.622,-9.802 -1.67,-3.645 -5.081,-1.731 -7.888,-1.667 -3.63,0.081 -7.341,0.488 -10.925,0.037 -7.692,-0.962 -12.238,-6.287 -12.31,-13.928 -0.119,-9.158 3.724,-16.68 10.237,-22.817 5.144,-4.858 10.32,-5.476 15.911,-1.099 4.141,3.215 7.383,7.646 10.681,11.826 1.538,1.965 2.432,4.465 5.542,3.655 3.35,-0.852 4.771,-3.381 4.612,-6.633 -0.093,-2.192 -0.498,-4.436 -1.267,-6.472 -2.908,-7.798 -5.928,-15.552 -9.036,-23.269 -1.68,-4.102 -0.51,-12.883 2.59,-15.598 0.615,-0.544 3.01,-0.247 3.508,0.427 3.313,4.556 6.375,9.304 9.377,14.08 0.449,0.696 0.625,2.178 0.186,2.751 -3.015,4.065 -0.503,7.595 1.011,11.038 5.916,13.396 4.922,28.755 -6.68,35.483 -3.918,2.253 -4.287,2.62 -7.244,14.651 -1.313,8.542 -7.319,18.694 -13.992,24.848 -3.84,3.001 -3.164,3.001 2.136,8.255 9.434,9.406 8.813,25.979 -0.671,35.522 -5.32,5.349 -11.338,10.176 -17.563,14.424 -8.306,5.627 -17.129,10.52 -25.801,15.63 -8.369,6.104 -9.331,4.087 -7.285,11.831 1.452,5.442 7.28,9.216 13.835,8.694 7.769,-0.61 13.926,-4.268 18.457,-10.676 2.981,-4.211 5.967,-8.398 9.331,-12.278 1.038,-1.221 3.367,-1.904 4.99,-1.75 0.786,0.076 1.404,2.71 1.89,4.233 0.295,0.913 -0.137,2.122 0.31,2.888 1.545,2.6 3.347,5.063 5.029,7.576 1.924,-1.638 4.121,-3.069 5.754,-4.976 7.986,-9.282 15.779,-18.718 23.772,-28.01 1.577,-1.846 3.569,-3.386 5.542,-4.817 10.325,-7.456 19.06,-7.544 28.328,-0.325 9.583,7.432 12.354,17.466 8.057,28.813 -0.801,2.061 -1.692,4.121 -2.251,6.24 -0.278,1.035 -0.312,2.786 0.312,3.259 0.72,0.574 2.317,0.435 3.386,0.093 10.554,-3.25 16.006,-10.342 15.278,-21.355 -1.492,-22.219 -3.55,-44.426 -5.266,-66.633 -1.16,-15.159 -2.151,-30.356 -3.284,-45.52 -0.237,-3.411 -0.432,-6.873 -1.118,-10.188 -1.301,-6.155 -0.19,-11.709 3.315,-16.831 0.747,-1.116 1.909,-1.997 2.878,-2.988 1.064,1.216 2.505,2.302 3.103,3.718 1.248,2.927 2.068,6.018 2.986,9.065 1.833,6.116 3.74,12.19 5.339,18.359 0.811,3.035 0.945,6.001 -3.826,3.43 -0.466,-0.269 -2.534,1.047 -2.639,1.79 -0.31,2.166 -0.054,4.421 0.129,6.604 1.88,22.475 3.855,44.944 5.679,67.421 0.627,7.812 1.208,15.659 1.233,23.491 0.034,8.396 -1.765,16.484 -5.51,24.17 -7.29,14.939 -20.999,20.962 -35.581,24.995 -9.856,2.717 -20.229,3.831 -30.449,5.015 -7.861,0.928 -15.684,-0.11 -23.027,-3.521 -1.299,-0.591 -3.286,-1.504 -4.138,-0.969 -7.493,4.746 -6.663,-0.176 -6.057,-5 0.049,-0.449 -0.171,-0.991 -0.4,-1.401 -1.858,-3.101 -3.745,-6.16 -5.623,-9.224 -2.085,2.498 -4.192,4.976 -6.243,7.493 -1.857,2.29 -3.516,4.756 -5.518,6.885 -5.991,6.399 -13.371,9.531 -21.94,6.785 -8.387,-2.671 -11.731,-9.895 -13.436,-17.959 -0.527,-2.52 -0.9,-5.657 -1.396,-8.193 -2.551,0.632 -5.261,1.775 -7.79,2.527 -11.772,3.406 -19.888,-0.92 -21.37,-13.003 -0.815,-6.831 0.554,-14.106 1.99,-20.967 1.25,-5.947 3.828,-11.636 6.035,-17.358 2.964,-6.782 1.587,-6.221 -3.616,-7.998 -19.194,-6.514 -29.626,-29.05 -25.461,-47.543 2.214,-9.751 5.413,-19.299 8.306,-28.872 0.549,-1.858 1.509,-3.687 2.661,-5.234 1.055,-1.44 2.603,-2.5 3.94,-3.743 -0.122,1.78 0.193,3.689 -0.371,5.286 -1.902,5.308 -4.021,10.542 -6.216,15.747 -4.775,11.333 -4.346,22.18 1.465,33.254 5.679,10.806 15.044,14.854 26.194,16.398 2.407,0.335 4.907,0.04 7.365,0.04 z m -6.228,58.659 c 2.913,-0.94 8.198,-1.777 12.544,-4.25 17.007,-9.697 33.845,-19.688 50.471,-30.017 12.412,-7.69 11.909,-10.718 -0.168,-19.541 -8.554,-6.772 -5.916,-7.849 -19.348,0 -3.542,2.098 -12.925,6.68 -16.818,7.713 -5.552,1.44 -6.458,1.548 -16.429,3.918 -1.911,0.454 -11.621,1.263 -11.621,1.263 -3.157,9.252 -7.375,21.438 -9.624,30.927 -1.348,5.595 3.13,10.012 10.993,9.987 z m 97.112,21.092 c 14.951,0.591 26.641,-3.894 37.146,-11.655 5.479,-4.028 5.911,-7.383 2.522,-13.293 -6.042,-10.627 -16.436,-13.489 -26.863,-7.197 -10.508,6.355 -17.959,15.771 -24.885,25.625 -2.271,3.276 -0.469,5.195 2.727,5.732 3.593,0.597 7.304,0.622 9.353,0.788 z m -33.308,-136.45 c 2.234,-0.193 4.368,-1.028 6.152,-2.761 -2.747,-4.07 -2.747,-4.07 -5.225,-5.608 -0.72,-0.439 -1.89,-0.659 -2.82,-0.557 -2.917,0.33 -6.604,0.483 -6.689,4.253 -0.098,3.486 6.694,4.861 8.582,4.673 z"
   id="path32"
   style="fill:#eb5e28;fill-opacity:1" />
		<radialGradient
   id="SVGID_5_"
   cx="265.92291"
   cy="522.33008"
   r="64.561699"
   gradientUnits="userSpaceOnUse">
			<stop
   offset="0"
   style="stop-color:#FFE300"
   id="stop34" />
			<stop
   offset="1"
   style="stop-color:#FFC000"
   id="stop36" />
		</radialGradient>
		<path
   fill-rule="evenodd"
   clip-rule="evenodd"
   fill="url(#SVGID_5_)"
   d="m 301.612,479.111 c 9.555,0.037 17.817,3.262 24.677,9.878 0.942,0.892 1.252,2.483 1.843,3.729 -1.313,0.024 -2.729,0.373 -3.967,0.02 -14.272,-3.999 -27.698,-1.211 -40.53,5.327 -5.381,2.744 -6.652,5.881 -4.738,11.503 3.989,11.606 12.539,18.555 23.854,22.158 2.298,0.745 5.425,0.034 7.808,-0.93 10.466,-4.197 20.771,-8.806 31.165,-13.157 1.411,-0.579 3.066,-0.564 4.626,-0.811 -0.171,1.592 -0.1,3.242 -0.549,4.753 -1.738,6.062 -5.769,9.583 -11.594,12.249 -13.132,6.062 -25.811,13.071 -38.833,19.377 -4.585,2.231 -9.509,3.928 -14.497,5.161 -6.836,1.68 -12.412,-0.537 -16.597,-6.536 -3.737,-5.359 -4.009,-5.159 -7.946,0.503 -1.523,2.224 -3.218,4.316 -5.002,6.335 -10.378,11.907 -27.927,7.205 -32.561,-5.344 -1.306,-3.599 -2.852,-7.126 -4.287,-10.713 -3.174,2.036 -6.292,4.124 -9.548,6.023 -1.47,0.862 -3.098,1.584 -4.766,1.921 -4.832,0.942 -9.666,0.134 -12.925,-3.459 -3.291,-3.608 -1.267,-7.812 0.605,-11.672 4.26,-8.721 10.032,-16.313 17.305,-22.659 4.519,-3.928 7.708,-8.105 7.131,-14.463 -0.134,-1.66 0.298,-3.467 0.935,-5.036 0.959,-2.271 2.356,-4.407 3.55,-6.582 0.933,1.857 1.392,4.341 2.888,5.437 5.708,4.229 3.45,9.1 2.781,14.661 -1.021,8.445 -0.579,17.173 0.154,25.715 0.347,3.914 2.236,8.101 4.561,11.333 4.05,5.537 8.228,6.003 14.963,4.136 7.344,-2.036 12.761,-5.991 15.878,-13.03 0.579,-1.34 1.294,-2.71 2.271,-3.76 1.111,-1.184 2.605,-2.048 3.895,-3.057 0.759,1.389 1.777,2.688 2.212,4.158 2.116,7.268 6.779,11.084 13.024,10.51 3.465,-0.33 4.324,-1.921 2.356,-4.824 -1.504,-2.241 -3.213,-4.333 -4.993,-6.36 -14.152,-16.331 -4.985,-45.669 16.118,-51.465 2.796,-0.767 5.81,-0.699 8.733,-1.029 z m -86.594,40.638 c -0.225,-0.525 -0.698,-2.412 -1.716,-3.931 -0.315,-0.457 -2.556,-0.334 -3.171,0.271 -4.348,4.299 -8.677,8.64 -12.629,13.271 -1.772,2.09 -1.135,4.148 2.073,4.631 7.909,1.195 15.47,-5.053 15.443,-14.242 z"
   id="path39"
   style="fill:#eb5e28;fill-opacity:1" />
		<radialGradient
   id="SVGID_6_"
   cx="590.89062"
   cy="862.31049"
   r="32.451599"
   gradientUnits="userSpaceOnUse">
			<stop
   offset="0"
   style="stop-color:#FFE300"
   id="stop41" />
			<stop
   offset="1"
   style="stop-color:#FFC000"
   id="stop43" />
		</radialGradient>
		<path
   fill-rule="evenodd"
   clip-rule="evenodd"
   fill="url(#SVGID_6_)"
   d="m 622.986,859.633 c -0.837,1.714 -1.204,2.896 -1.885,3.877 -6.401,9.517 -12.91,18.975 -19.238,28.558 -2.207,3.311 -4.133,4.138 -7.627,1.416 -10.454,-8.069 -21.206,-15.745 -31.743,-23.755 -4.541,-3.457 -4.722,-5.789 -1.514,-10.535 5.762,-8.53 11.499,-17.06 17.361,-25.5 3.662,-5.303 5.522,-5.334 10.566,-1.414 9.5,7.358 19.119,14.473 28.616,21.819 2.021,1.593 3.645,3.683 5.464,5.534 z"
   id="path46"
   style="fill:#eb5e28;fill-opacity:1" />
		<radialGradient
   id="SVGID_7_"
   cx="381.81641"
   cy="568.02441"
   r="64.615898"
   gradientUnits="userSpaceOnUse">
			<stop
   offset="0"
   style="stop-color:#FFE300"
   id="stop48" />
			<stop
   offset="1"
   style="stop-color:#FFC000"
   id="stop50" />
		</radialGradient>
		<path
   fill-rule="evenodd"
   clip-rule="evenodd"
   fill="url(#SVGID_7_)"
   d="m 375.56,601.636 c 0,-15.925 0.315,-31.885 -0.071,-47.834 -0.493,-21.06 -1.836,-42.095 -2.068,-63.152 -0.056,-4.492 2.917,-9.053 4.802,-13.493 0.134,-0.327 2.71,0.02 3.945,0.603 0.63,0.281 0.867,1.683 1.094,2.625 2.249,9.292 4.612,18.557 6.611,27.897 0.92,4.272 0.103,4.827 -4.155,3.054 -2.271,-0.938 -2.654,-0.063 -2.61,1.738 0.701,26.213 1.963,52.405 1.997,78.623 0.032,18.54 -1.558,37.092 -2.451,55.637 -0.034,0.71 -0.083,1.523 -0.405,2.151 -1.56,3.21 -3.245,6.347 -4.861,9.534 -0.522,-3.191 -1.465,-6.348 -1.499,-9.543 -0.149,-15.93 -0.071,-31.88 -0.071,-47.839 -0.078,-10e-4 -0.158,-10e-4 -0.258,-10e-4 z"
   id="path53"
   style="fill:#eb5e28;fill-opacity:1" />
		<radialGradient
   id="SVGID_8_"
   cx="844.20312"
   cy="482.42191"
   r="59.819901"
   gradientUnits="userSpaceOnUse">
			<stop
   offset="0"
   style="stop-color:#FFE300"
   id="stop55" />
			<stop
   offset="1"
   style="stop-color:#FFC000"
   id="stop57" />
		</radialGradient>
		<path
   fill-rule="evenodd"
   clip-rule="evenodd"
   fill="url(#SVGID_8_)"
   d="m 846.188,435.806 c 1.73,28.367 3.76,55.247 4.831,82.167 0.569,14.661 0.145,29.448 -4.904,43.591 -0.415,1.177 -0.613,2.434 -1.235,3.44 -0.447,0.732 -1.731,1.689 -2.175,1.479 -0.942,-0.422 -1.987,-1.409 -2.256,-2.336 -0.344,-1.377 -0.037,-2.91 -0.037,-4.375 -0.015,-19.609 0.146,-39.197 -0.149,-58.777 -0.144,-10.017 -1.079,-20.056 -1.67,-30.073 -1.123,-18.591 -1.851,-37.238 -3.56,-55.778 -0.581,-6.423 2.417,-10.791 5.229,-15.527 1.375,-2.31 2.949,-1.189 3.66,0.828 1.975,5.806 3.916,11.619 5.686,17.478 1.362,4.451 2.588,8.943 3.613,13.501 0.391,1.763 0.657,4.644 -2.715,2.61 -4.501,-2.737 -4.227,0.346 -4.318,1.772 z"
   id="path60"
   style="fill:#eb5e28;fill-opacity:1" />
		<radialGradient
   id="SVGID_9_"
   cx="419.28119"
   cy="928.50488"
   r="44.274899"
   gradientUnits="userSpaceOnUse">
			<stop
   offset="0"
   style="stop-color:#FFE300"
   id="stop62" />
			<stop
   offset="1"
   style="stop-color:#FFC000"
   id="stop64" />
		</radialGradient>
		<path
   fill-rule="evenodd"
   clip-rule="evenodd"
   fill="url(#SVGID_9_)"
   d="m 366.99,958.495 c 0.095,-6.79 1.992,-10.945 6.826,-13.669 20.928,-11.75 41.724,-23.713 62.732,-35.32 9.016,-4.963 18.393,-9.229 27.636,-13.757 1.517,-0.757 3.159,-1.65 4.783,-1.685 0.874,-0.015 2.712,1.748 2.6,2.434 -0.817,4.756 -1.086,9.712 -6.364,12.466 -15.625,8.12 -31.296,16.223 -46.641,24.905 -15.073,8.547 -29.797,17.822 -44.688,26.733 -1.57,0.933 -3.33,1.584 -4.995,2.344 -0.817,-1.917 -1.64,-3.811 -1.889,-4.451 z"
   id="path67"
   style="fill:#eb5e28;fill-opacity:1" />
		<radialGradient
   id="SVGID_10_"
   cx="462.04929"
   cy="276.02979"
   r="29.0161"
   gradientUnits="userSpaceOnUse">
			<stop
   offset="0"
   style="stop-color:#FFE300"
   id="stop69" />
			<stop
   offset="1"
   style="stop-color:#FFC000"
   id="stop71" />
		</radialGradient>
		<path
   fill-rule="evenodd"
   clip-rule="evenodd"
   fill="url(#SVGID_10_)"
   d="m 458.203,311.226 c -13.054,-0.061 -18.376,-8.544 -17.055,-21.152 0.71,-6.895 3.45,-13.804 6.367,-20.208 3.845,-8.444 8.75,-16.43 13.215,-24.577 0.578,-1.091 1.169,-2.231 2.053,-3.044 0.784,-0.684 1.937,-0.957 2.918,-1.411 0.183,0.918 0.734,1.938 0.503,2.732 -0.693,2.344 -1.595,4.644 -2.649,6.836 -1.68,3.494 -0.688,5.991 2.283,8.267 3.884,2.964 7.912,5.866 11.267,9.37 6.641,6.921 7.617,15.202 3.862,23.862 -3.386,7.795 -7.941,14.748 -16.599,17.68 -2.517,0.859 -5.144,1.367 -6.165,1.645 z m 0.845,-14.287 c 4.751,-2.4 8.999,-4.217 12.83,-6.699 0.815,-0.564 0.993,-4.165 0.127,-5.013 -4.856,-4.733 -10.039,-9.209 -15.354,-13.435 -0.781,-0.662 -3.488,-0.254 -4.26,0.617 -3.416,3.76 -4.358,13.979 -1.318,18.115 1.869,2.536 5.021,4.132 7.975,6.415 z"
   id="path74"
   style="fill:#eb5e28;fill-opacity:1" />
		<radialGradient
   id="SVGID_11_"
   cx="416.50629"
   cy="947.75293"
   r="41.988998"
   gradientUnits="userSpaceOnUse">
			<stop
   offset="0"
   style="stop-color:#FFE300"
   id="stop76" />
			<stop
   offset="1"
   style="stop-color:#FFC000"
   id="stop78" />
		</radialGradient>
		<path
   fill-rule="evenodd"
   clip-rule="evenodd"
   fill="url(#SVGID_11_)"
   d="m 367.12,976.288 c 0.684,-4.521 1.704,-9.038 6.621,-11.963 11.785,-7.009 23.142,-14.773 35.078,-21.519 16.216,-9.141 32.793,-17.607 49.213,-26.338 1.299,-0.676 2.674,-1.416 4.08,-1.609 2.805,-0.43 4.279,0.933 3.628,3.84 -1.316,5.64 -3.501,10.481 -9.422,13.076 -28.667,12.542 -54.951,29.248 -81.008,46.338 -0.833,0.552 -1.658,1.106 -2.502,1.562 -3.86,2.055 -5.544,1.174 -5.688,-3.387 z"
   id="path81"
   style="fill:#eb5e28;fill-opacity:1" />
		<radialGradient
   id="SVGID_12_"
   cx="707.30322"
   cy="601.06982"
   r="20.382799"
   gradientUnits="userSpaceOnUse">
			<stop
   offset="0"
   style="stop-color:#FFE300"
   id="stop83" />
			<stop
   offset="1"
   style="stop-color:#FFC000"
   id="stop85" />
		</radialGradient>
		<path
   fill-rule="evenodd"
   clip-rule="evenodd"
   fill="url(#SVGID_12_)"
   d="m 710.371,618.208 c 0.149,-9.995 -2.749,-19.004 -10.151,-25.869 -4.926,-4.565 -4.172,-9.536 -2.507,-14.805 1.136,-3.579 3.201,-4.15 6.079,-1.587 7.512,6.702 13.533,14.89 14.285,24.971 0.54,7.605 -1.704,15.476 -3.013,23.149 -0.251,1.379 -2.141,2.466 -3.247,3.706 -0.479,-1.47 -1.169,-2.905 -1.396,-4.412 -0.233,-1.694 -0.05,-3.427 -0.05,-5.153 z"
   id="path88"
   style="fill:#eb5e28;fill-opacity:1" />
		<radialGradient
   id="SVGID_13_"
   cx="976.92188"
   cy="563.12109"
   r="40.656399"
   gradientUnits="userSpaceOnUse">
			<stop
   offset="0"
   style="stop-color:#FFE300"
   id="stop90" />
			<stop
   offset="1"
   style="stop-color:#FFC000"
   id="stop92" />
		</radialGradient>
		<path
   fill-rule="evenodd"
   clip-rule="evenodd"
   fill="url(#SVGID_13_)"
   d="m 927.267,583.855 c 0.723,-0.984 1.902,-4.429 4.211,-5.513 9.473,-4.487 80.779,-39.834 90.559,-43.64 3.716,-1.438 5.125,-0.127 4.321,3.701 -1.016,4.871 -2.661,9.363 -7.944,11.509 -7.449,3.074 -76.272,37.983 -83.73,41.086 -5.854,2.398 -7.344,1.294 -7.417,-7.143 z"
   id="path95"
   style="fill:#eb5e28;fill-opacity:1" />
		<radialGradient
   id="SVGID_14_"
   cx="428.31299"
   cy="568.92291"
   r="28.9965"
   gradientUnits="userSpaceOnUse">
			<stop
   offset="0"
   style="stop-color:#FFE300"
   id="stop97" />
			<stop
   offset="1"
   style="stop-color:#FFC000"
   id="stop99" />
		</radialGradient>
		<path
   fill-rule="evenodd"
   clip-rule="evenodd"
   fill="url(#SVGID_14_)"
   d="m 394.319,590.271 c -0.43,-2.209 -1.426,-4.153 -0.837,-5.063 1.296,-1.985 3.12,-3.918 5.21,-5.073 20.012,-10.901 40.093,-21.677 60.227,-32.344 1.094,-0.579 2.922,0.168 4.406,0.33 -0.603,1.465 -0.827,3.545 -1.919,4.307 -3.02,2.039 -6.377,3.64 -9.704,5.198 -18.408,8.687 -36.057,18.794 -53.015,30.039 -0.991,0.65 -2.043,1.212 -4.368,2.606 z"
   id="path102"
   style="fill:#eb5e28;fill-opacity:1" />
		<radialGradient
   id="SVGID_15_"
   cx="307.31149"
   cy="450.30569"
   r="29.1194"
   gradientUnits="userSpaceOnUse">
			<stop
   offset="0"
   style="stop-color:#FFE300"
   id="stop104" />
			<stop
   offset="1"
   style="stop-color:#FFC000"
   id="stop106" />
		</radialGradient>
		<path
   fill-rule="evenodd"
   clip-rule="evenodd"
   fill="url(#SVGID_15_)"
   d="m 344.039,433.816 c -1.323,0.862 -2.522,1.99 -3.943,2.612 -13.904,6.15 -27.966,11.909 -41.699,18.396 -8.164,3.857 -15.854,8.774 -23.818,13.12 -1.179,0.618 -2.653,0.664 -3.994,0.989 0.142,-1.602 -0.256,-3.491 0.464,-4.666 0.986,-1.572 2.72,-2.839 4.355,-3.835 19.847,-11.995 41.179,-20.747 62.935,-28.511 1.582,-0.562 3.574,0.015 5.396,0.054 0.089,0.608 0.211,1.212 0.304,1.841 z"
   id="path109"
   style="fill:#eb5e28;fill-opacity:1" />
		<radialGradient
   id="SVGID_16_"
   cx="216.0869"
   cy="597.03998"
   r="22.1558"
   gradientUnits="userSpaceOnUse">
			<stop
   offset="0"
   style="stop-color:#FFE300"
   id="stop111" />
			<stop
   offset="1"
   style="stop-color:#FFC000"
   id="stop113" />
		</radialGradient>
		<path
   fill-rule="evenodd"
   clip-rule="evenodd"
   fill="url(#SVGID_16_)"
   d="m 229.613,588.455 c -1.548,-1.802 -3.025,-3.694 -4.661,-5.444 -2.454,-2.593 -2.871,-5.925 -0.615,-7.632 2.769,-2.158 4.763,0.046 6.157,1.851 2.49,3.279 5.032,6.709 6.589,10.479 2.546,6.118 -1.653,11.257 -8.276,10.237 -3.157,-0.481 -4.958,0.527 -7.102,2.49 -5.378,4.98 -10.999,9.702 -16.565,14.509 -1.101,0.962 -2.153,2.153 -3.464,2.656 -2.363,0.906 -4.883,1.36 -7.339,1.995 1.521,-1.936 2.805,-4.155 4.648,-5.75 5.557,-4.749 11.392,-9.211 17.046,-13.899 3.105,-2.583 5.581,-5.457 3.928,-10.125 -0.396,-1.113 0.518,-2.695 0.82,-4.067 1.389,0.564 2.749,1.235 4.185,1.663 1.533,0.459 3.13,0.686 4.722,0.986 0.127,0.464 0.112,1.055 0.391,1.365 0.754,0.769 1.638,1.394 2.478,2.031 0.046,0.015 0.479,-0.442 0.454,-0.459 -0.642,-0.83 -1.26,-1.716 -2.031,-2.473 -0.281,-0.282 -0.896,-0.272 -1.365,-0.413 z"
   id="path116"
   style="fill:#eb5e28;fill-opacity:1" />
		<radialGradient
   id="SVGID_17_"
   cx="752.99902"
   cy="601.99609"
   r="23.0592"
   gradientUnits="userSpaceOnUse">
			<stop
   offset="0"
   style="stop-color:#FFE300"
   id="stop118" />
			<stop
   offset="1"
   style="stop-color:#FFC000"
   id="stop120" />
		</radialGradient>
		<path
   fill-rule="evenodd"
   clip-rule="evenodd"
   fill="url(#SVGID_17_)"
   d="m 779.836,588.56 c 0.886,0.603 2.742,1.248 2.859,2.146 0.166,1.094 -0.83,2.957 -1.863,3.513 -2.761,1.499 -5.818,2.527 -8.779,3.684 -14.407,5.52 -28.845,11.011 -43.252,16.536 -0.918,0.332 -1.816,0.913 -2.749,0.989 -0.872,0.051 -2.361,-0.269 -2.529,-0.779 -0.344,-0.977 -0.361,-2.6 0.264,-3.245 1.309,-1.345 2.991,-2.603 4.739,-3.289 15.713,-6.235 31.499,-12.351 47.263,-18.442 1.12,-0.447 2.35,-0.659 4.047,-1.113 z"
   id="path123"
   style="fill:#eb5e28;fill-opacity:1" />
		<radialGradient
   id="SVGID_18_"
   cx="222.08791"
   cy="450.6582"
   r="21.687"
   gradientUnits="userSpaceOnUse">
			<stop
   offset="0"
   style="stop-color:#FFE300"
   id="stop125" />
			<stop
   offset="1"
   style="stop-color:#FFC000"
   id="stop127" />
		</radialGradient>
		<path
   fill-rule="evenodd"
   clip-rule="evenodd"
   fill="url(#SVGID_18_)"
   d="m 236.893,449.93 c -1.931,1.458 -4.246,2.578 -5.723,4.411 -6.301,7.757 -14.114,13.594 -22.739,18.394 -1.692,0.96 -3.889,1.089 -5.852,1.59 1.392,-1.562 2.605,-3.284 4.209,-4.609 6.948,-5.82 14.221,-11.272 20.964,-17.302 5.847,-5.229 5.669,-5.552 2.051,-12.285 -1.699,-3.167 -1.709,-6.113 0.215,-9.028 1.462,-2.263 3.157,-5.273 6.248,-3.643 2.026,1.06 4.224,3.633 4.565,5.835 0.847,5.195 0.808,10.579 0.723,15.894 -0.02,0.913 -2.048,1.794 -3.162,2.69 -0.498,-0.668 -0.996,-1.31 -1.499,-1.947 z m 0.19,-14.204 c -0.962,-0.852 -1.536,-1.555 -2.29,-1.919 -0.198,-0.127 -1.316,0.935 -1.262,1.018 0.425,0.73 0.952,1.499 1.65,2.017 0.164,0.124 0.975,-0.557 1.902,-1.116 z"
   id="path130"
   style="fill:#eb5e28;fill-opacity:1" />
		<radialGradient
   id="SVGID_19_"
   cx="762.55469"
   cy="490.50879"
   r="12.303"
   gradientUnits="userSpaceOnUse">
			<stop
   offset="0"
   style="stop-color:#FFE300"
   id="stop132" />
			<stop
   offset="1"
   style="stop-color:#FFC000"
   id="stop134" />
		</radialGradient>
		<path
   fill-rule="evenodd"
   clip-rule="evenodd"
   fill="url(#SVGID_19_)"
   d="m 774.895,489.764 c -0.635,2.49 -1.091,5.173 -2.004,7.663 -1.213,3.353 -3.604,4.739 -6.873,2.524 -2.327,-1.562 -4.155,-2.339 -6.228,0.398 -2.148,2.858 -5.513,3.298 -7.559,0.742 -1.611,-1.958 -1.411,-5.308 -2.017,-8.066 0.784,0.036 1.667,-0.127 2.344,0.158 1.575,0.691 3.542,2.615 4.421,2.168 1.443,-0.739 2.888,-2.839 3.074,-4.509 0.269,-2.825 -0.598,-5.767 -0.63,-8.677 -0.01,-0.96 1.138,-1.922 1.736,-2.879 0.884,0.721 2.175,1.294 2.522,2.229 0.564,1.584 0.498,3.356 0.769,5.056 0.254,1.663 0.183,3.604 1.042,4.93 0.737,1.159 2.566,1.633 3.923,2.427 0.566,-1.411 1.687,-2.871 1.584,-4.233 -0.227,-2.881 -1.265,-5.698 -1.626,-8.56 -0.103,-0.896 0.908,-1.927 1.423,-2.894 0.627,0.662 1.619,1.233 1.86,2.031 0.847,3.043 1.482,6.149 2.239,9.492 z"
   id="path137"
   style="fill:#eb5e28;fill-opacity:1" />
		<radialGradient
   id="SVGID_20_"
   cx="676.22168"
   cy="401.978"
   r="9.9193001"
   gradientUnits="userSpaceOnUse">
			<stop
   offset="0"
   style="stop-color:#FFE300"
   id="stop139" />
			<stop
   offset="1"
   style="stop-color:#FFC000"
   id="stop141" />
		</radialGradient>
		<path
   fill-rule="evenodd"
   clip-rule="evenodd"
   fill="url(#SVGID_20_)"
   d="m 685.923,402.574 c -0.11,3.518 -5.981,9.849 -8.841,9.524 -3.066,-0.347 -10.48,-7.563 -10.562,-10.337 -0.098,-3.262 5.652,-9.871 8.606,-9.915 3.219,-0.044 10.899,7.564 10.797,10.728 z"
   id="path144"
   style="fill:#eb5e28;fill-opacity:1" />
		<radialGradient
   id="SVGID_21_"
   cx="771.77338"
   cy="453.32321"
   r="9.9379997"
   gradientUnits="userSpaceOnUse">
			<stop
   offset="0"
   style="stop-color:#FFE300"
   id="stop146" />
			<stop
   offset="1"
   style="stop-color:#FFC000"
   id="stop148" />
		</radialGradient>
		<path
   fill-rule="evenodd"
   clip-rule="evenodd"
   fill="url(#SVGID_21_)"
   d="m 773.239,463.499 c -3.042,-0.027 -11.111,-7.676 -11.16,-10.593 -0.046,-3.845 5.283,-9.995 8.45,-9.751 3.274,0.217 10.835,7.097 10.938,9.915 0.078,2.714 -6.043,10.439 -8.228,10.429 z"
   id="path151"
   style="fill:#eb5e28;fill-opacity:1" />
		<radialGradient
   id="SVGID_22_"
   cx="652.44733"
   cy="403.72559"
   r="9.8375998"
   gradientUnits="userSpaceOnUse">
			<stop
   offset="0"
   style="stop-color:#FFE300"
   id="stop153" />
			<stop
   offset="1"
   style="stop-color:#FFC000"
   id="stop155" />
		</radialGradient>
		<path
   fill-rule="evenodd"
   clip-rule="evenodd"
   fill="url(#SVGID_22_)"
   d="m 651.618,393.755 c 3.135,0.168 11.678,8.025 10.398,10.188 -2.163,3.757 -5.439,7.314 -9.104,9.597 -2.255,1.421 -10.393,-7.043 -10.158,-9.985 0.244,-3.713 5.918,-9.978 8.864,-9.8 z"
   id="path158"
   style="fill:#eb5e28;fill-opacity:1" />
		<radialGradient
   id="SVGID_23_"
   cx="440.78119"
   cy="597.30182"
   r="9.6887999"
   gradientUnits="userSpaceOnUse">
			<stop
   offset="0"
   style="stop-color:#FFE300"
   id="stop160" />
			<stop
   offset="1"
   style="stop-color:#FFC000"
   id="stop162" />
		</radialGradient>
		<path
   fill-rule="evenodd"
   clip-rule="evenodd"
   fill="url(#SVGID_23_)"
   d="m 450.303,597.803 c -0.208,3.665 -5.139,9.49 -7.927,9.346 -3.408,-0.198 -11.14,-6.768 -11.121,-9.478 0.024,-3.879 5.085,-10.332 7.983,-10.217 3.739,0.18 11.27,7.185 11.065,10.349 z"
   id="path165"
   style="fill:#eb5e28;fill-opacity:1" />
		<radialGradient
   id="SVGID_24_"
   cx="747.27832"
   cy="456.43069"
   r="9.9771996"
   gradientUnits="userSpaceOnUse">
			<stop
   offset="0"
   style="stop-color:#FFE300"
   id="stop167" />
			<stop
   offset="1"
   style="stop-color:#FFC000"
   id="stop169" />
		</radialGradient>
		<path
   fill-rule="evenodd"
   clip-rule="evenodd"
   fill="url(#SVGID_24_)"
   d="m 747.675,446.114 c 2.224,2.051 5.483,4.57 8.071,7.639 2.285,2.712 0.837,5.488 -1.331,7.852 -1.824,1.989 -2.539,6.564 -6.138,4.709 -3.953,-2.017 -7.563,-5.215 -10.42,-8.684 -1.539,-1.841 5.941,-11.55 9.818,-11.516 z"
   id="path172"
   style="fill:#eb5e28;fill-opacity:1" />
		<radialGradient
   id="SVGID_25_"
   cx="244.2412"
   cy="508.02731"
   r="9.8641005"
   gradientUnits="userSpaceOnUse">
			<stop
   offset="0"
   style="stop-color:#FFE300"
   id="stop174" />
			<stop
   offset="1"
   style="stop-color:#FFC000"
   id="stop176" />
		</radialGradient>
		<path
   fill-rule="evenodd"
   clip-rule="evenodd"
   fill="url(#SVGID_25_)"
   d="m 253.839,509.133 c -2.832,3.037 -5.242,6.741 -8.63,8.87 -2.124,1.355 -10.627,-6.96 -10.564,-9.692 0.068,-2.815 6.091,-10.513 8.125,-10.405 3.325,0.173 10.278,7.319 11.069,11.227 z"
   id="path179"
   style="fill:#eb5e28;fill-opacity:1" />
		<radialGradient
   id="SVGID_26_"
   cx="420.4639"
   cy="530.8623"
   r="12.0461"
   gradientUnits="userSpaceOnUse">
			<stop
   offset="0"
   style="stop-color:#FFE300"
   id="stop181" />
			<stop
   offset="1"
   style="stop-color:#FFC000"
   id="stop183" />
		</radialGradient>
		<path
   fill-rule="evenodd"
   clip-rule="evenodd"
   fill="url(#SVGID_26_)"
   d="m 424.888,528.242 c -0.708,-0.225 -1.46,-0.474 -2.17,-0.703 0.344,-0.647 0.615,-1.306 1.03,-1.873 2.349,-3.184 5.354,-4.263 8.928,-2.349 3.147,1.665 3.33,4.644 0.862,8.857 -4.604,7.898 -11.689,9.316 -19.622,4.082 -1.345,-0.869 -3.015,-1.294 -4.617,-1.743 -1.152,-0.334 -2.383,-0.359 -3.604,-0.513 0.784,-1.204 1.316,-3 2.393,-3.43 2.048,-0.813 4.482,-1.355 6.641,-1.04 3.574,0.503 7,2.092 10.571,2.515 1.196,0.129 2.642,-1.934 3.94,-2.988 -1.245,-0.703 -2.512,-1.375 -3.752,-2.078 -0.212,0.416 -0.39,0.843 -0.6,1.263 z"
   id="path186"
   style="fill:#eb5e28;fill-opacity:1" />
		<radialGradient
   id="SVGID_27_"
   cx="976.83008"
   cy="681.36328"
   r="32.8694"
   gradientUnits="userSpaceOnUse">
			<stop
   offset="0"
   style="stop-color:#FFE300"
   id="stop188" />
			<stop
   offset="1"
   style="stop-color:#FFC000"
   id="stop190" />
		</radialGradient>
		<path
   fill-rule="evenodd"
   clip-rule="evenodd"
   fill="url(#SVGID_27_)"
   d="m 1001.925,675.505 c -2.117,0.574 -4.165,1.409 -6.306,1.961 -1.306,0.332 -4.397,1.76 -8.503,2.805 -4.331,1.128 -8.882,1.704 -10.41,1.895 -6.807,0.833 -11.814,-2.505 -15.798,-7.458 -1.008,-1.268 -1.443,-3.816 -0.894,-5.315 1.431,-3.918 12.056,-8.903 16.438,-8.066 2.759,0.511 5.449,1.263 8.181,1.937 -0.034,-3.133 -0.1,-6.238 -0.1,-9.378 0,-0.974 0.273,-1.95 0.264,-2.927 0,-3.455 -1.987,-5.095 -5.161,-4.507 -2.612,0.479 -5.137,1.609 -7.542,2.791 -9.114,4.448 -15.41,12.011 -21.318,19.897 -6.599,8.816 -5.627,14.437 3.157,21.263 5.647,4.392 5.339,4.507 0.081,9.775 -3.152,3.169 -5.349,7.38 -7.507,11.375 -0.659,1.199 0.273,3.215 0.496,4.844 1.533,-0.383 3.215,-0.508 4.548,-1.25 9.797,-5.615 19.502,-11.401 29.285,-17.004 1.372,-0.794 4.824,-2.464 8.01,-3.706 4.429,-1.697 8.076,-2.617 10.571,-3.828 4.47,-2.217 5.977,-6.426 7.476,-10.469 1.519,-4.066 -0.556,-5.843 -4.968,-4.635 z"
   id="path193"
   style="fill:#eb5e28;fill-opacity:1" />
		<radialGradient
   id="SVGID_28_"
   cx="274.44821"
   cy="407.16849"
   r="9.0236998"
   gradientUnits="userSpaceOnUse">
			<stop
   offset="0"
   style="stop-color:#FFE300"
   id="stop195" />
			<stop
   offset="1"
   style="stop-color:#FFC000"
   id="stop197" />
		</radialGradient>
		<path
   fill-rule="evenodd"
   clip-rule="evenodd"
   fill="url(#SVGID_28_)"
   d="m 282.159,407.417 c -2.083,3.281 -3.306,6.384 -5.483,8.396 -3.611,3.315 -9.302,0.872 -9.9,-3.982 -0.195,-1.357 0.398,-2.808 0.662,-4.219 1.13,0.635 2.202,1.589 3.442,1.865 1.618,0.339 3.391,0.178 5.083,0.229 -0.638,-1.577 -1.116,-3.254 -2.012,-4.69 -0.452,-0.73 -1.756,-0.842 -2.5,-1.448 -2.41,-1.968 -2.212,-4.534 -0.247,-6.316 0.682,-0.659 3.682,0.059 4.6,1.067 2.342,2.595 4.062,5.737 6.355,9.098 z"
   id="path200"
   style="fill:#eb5e28;fill-opacity:1" />
		<radialGradient
   id="SVGID_29_"
   cx="761.17871"
   cy="417.1084"
   r="8.8481998"
   gradientUnits="userSpaceOnUse">
			<stop
   offset="0"
   style="stop-color:#FFE300"
   id="stop202" />
			<stop
   offset="1"
   style="stop-color:#FFC000"
   id="stop204" />
		</radialGradient>
		<path
   fill-rule="evenodd"
   clip-rule="evenodd"
   fill="url(#SVGID_29_)"
   d="m 767.602,424.432 c -0.923,1.294 -1.675,2.356 -2.456,3.416 -0.71,-0.84 -1.543,-1.648 -2.146,-2.588 -2.068,-3.142 -4.331,-6.235 -6.001,-9.602 -1.218,-2.395 -1.731,-5.208 -2.244,-7.915 -0.046,-0.273 2.532,-1.624 2.847,-1.331 1.853,1.714 3.823,3.564 4.949,5.762 1.958,3.857 3.352,8.012 5.051,12.258 z"
   id="path207"
   style="fill:#eb5e28;fill-opacity:1" />
		<radialGradient
   id="SVGID_30_"
   cx="629.29053"
   cy="444.40921"
   r="8.6906996"
   gradientUnits="userSpaceOnUse">
			<stop
   offset="0"
   style="stop-color:#FFE300"
   id="stop209" />
			<stop
   offset="1"
   style="stop-color:#FFC000"
   id="stop211" />
		</radialGradient>
		<path
   fill-rule="evenodd"
   clip-rule="evenodd"
   fill="url(#SVGID_30_)"
   d="m 634.973,449.92 c -0.315,1.956 -0.344,2.957 -0.664,3.833 -0.215,0.632 -1.067,1.628 -1.23,1.55 -0.762,-0.319 -1.902,-0.962 -1.921,-1.506 -0.129,-4.766 -2.539,-8.147 -5.886,-11.272 -1.079,-1.033 -1.677,-3.081 -1.663,-4.646 0.015,-1.46 1.15,-2.915 1.772,-4.368 1.301,0.85 3.215,1.401 3.77,2.568 2.26,4.766 4.111,9.72 5.822,13.841 z"
   id="path214"
   style="fill:#eb5e28;fill-opacity:1" />
		<radialGradient
   id="SVGID_31_"
   cx="775.59668"
   cy="408.22559"
   r="5.2911"
   gradientUnits="userSpaceOnUse">
			<stop
   offset="0"
   style="stop-color:#FFE300"
   id="stop216" />
			<stop
   offset="1"
   style="stop-color:#FFC000"
   id="stop218" />
		</radialGradient>
		<path
   fill-rule="evenodd"
   clip-rule="evenodd"
   fill="url(#SVGID_31_)"
   d="m 769.726,411.685 c -0.173,-2.7 4.617,-8.584 7.153,-8.062 1.709,0.325 3.083,2.366 4.592,3.628 -1.243,0.706 -2.449,1.418 -3.711,2.09 -1.829,0.933 -3.638,1.865 -5.488,2.781 -0.605,0.317 -1.255,0.605 -1.907,0.737 -0.136,0.025 -0.422,-0.761 -0.639,-1.174 z"
   id="path221"
   style="fill:#eb5e28;fill-opacity:1" />
		<radialGradient
   id="SVGID_32_"
   cx="643.41852"
   cy="436.05371"
   r="4.7351999"
   gradientUnits="userSpaceOnUse">
			<stop
   offset="0"
   style="stop-color:#FFE300"
   id="stop223" />
			<stop
   offset="1"
   style="stop-color:#FFC000"
   id="stop225" />
		</radialGradient>
		<path
   fill-rule="evenodd"
   clip-rule="evenodd"
   fill="url(#SVGID_32_)"
   d="m 638.965,440.313 c -0.063,-0.095 -0.833,-0.874 -0.698,-1.086 1.616,-2.59 3.157,-5.247 5.215,-7.39 0.33,-0.334 4.048,1.394 4.731,2.876 1.379,3.062 -1.375,2.407 -3.257,2.815 -1.977,0.419 -3.772,1.708 -5.991,2.785 z"
   id="path228"
   style="fill:#eb5e28;fill-opacity:1" />
		<radialGradient
   id="SVGID_33_"
   cx="750.97711"
   cy="485.23581"
   r="2.312"
   gradientUnits="userSpaceOnUse">
			<stop
   offset="0"
   style="stop-color:#FFE300"
   id="stop230" />
			<stop
   offset="1"
   style="stop-color:#FFC000"
   id="stop232" />
		</radialGradient>
		<path
   fill-rule="evenodd"
   clip-rule="evenodd"
   fill="url(#SVGID_33_)"
   d="m 750.998,488.157 c -0.825,-2.264 -1.489,-3.284 -1.489,-4.295 0,-0.518 1.169,-1.035 1.804,-1.548 0.415,0.809 1.082,1.562 1.13,2.386 0.042,0.718 -0.586,1.504 -1.445,3.457 z"
   id="path235"
   style="fill:#eb5e28;fill-opacity:1" />
	</g><circle
   style="fill:#eb5e28;fill-opacity:1;stroke:#eb5e28;stroke-width:0.423543;stroke-linecap:round;stroke-linejoin:round;stroke-miterlimit:4;stroke-dasharray:none;stroke-dashoffset:17.5;stroke-opacity:1"
   id="circle1696"
   cx="-600"
   cy="-90.229561"
   transform="scale(-1)"
   r="72.132042" /><text
   xml:space="preserve"
   style="font-size:133.333px;line-height:1.25;font-family:sans-serif;text-align:center;text-anchor:middle"
   x="598.4375"
   y="143.78142"
   id="text2930"><tspan
     sodipodi:role="line"
     id="tspan2928"
     x="598.4375"
     y="143.78142"
     style="font-size:133.333px;fill:#fffcf2;fill-opacity:1">ูก</tspan></text></svg>
