<?xml version="1.0" encoding="utf-8"?>
<!-- Generator: Adobe Illustrator 16.0.0, SVG Export Plug-In . SVG Version: 6.00 Build 0)  -->
<!DOCTYPE svg PUBLIC "-//W3C//DTD SVG 1.1//EN" "http://www.w3.org/Graphics/SVG/1.1/DTD/svg11.dtd">
<svg version="1.1" id="Layer_1" xmlns="http://www.w3.org/2000/svg" xmlns:xlink="http://www.w3.org/1999/xlink" x="0px" y="0px"
	 width="1200px" height="1200px" viewBox="0 0 1200 1200" enable-background="new 0 0 1200 1200" xml:space="preserve">
<g>
	<g>
		<radialGradient id="SVGID_1_" cx="522.7432" cy="486.2793" r="424.3122" gradientUnits="userSpaceOnUse">
			<stop  offset="0" style="stop-color:#027F00"/>
			<stop  offset="1" style="stop-color:#003F10"/>
		</radialGradient>
		<path fill-rule="evenodd" clip-rule="evenodd" fill="url(#SVGID_1_)" d="M600,1081.025c-64.932,0-127.931-12.721-187.245-37.808
			c-57.282-24.229-108.724-58.909-152.895-103.079c-44.17-44.17-78.851-95.61-103.078-152.892
			c-25.087-59.312-37.808-122.309-37.808-187.237c0-64.932,12.72-127.93,37.808-187.245
			c24.228-57.283,58.908-108.726,103.078-152.896c44.171-44.173,95.611-78.854,152.895-103.084
			c59.314-25.089,122.312-37.81,187.245-37.81c64.929,0,127.925,12.721,187.239,37.81c57.282,24.229,108.724,58.911,152.895,103.083
			c44.172,44.172,78.854,95.614,103.082,152.897c25.089,59.316,37.81,122.314,37.81,187.245c0,64.929-12.721,127.925-37.81,187.238
			c-24.229,57.28-58.911,108.721-103.082,152.891c-44.172,44.17-95.612,78.851-152.895,103.079
			C727.925,1068.305,664.929,1081.025,600,1081.025z"/>
		<path fill="#FDCE1E" d="M600,136.475c255.991,0,463.525,207.534,463.525,463.535c0,255.991-207.534,463.516-463.525,463.516
			c-256.006,0-463.525-207.524-463.525-463.516C136.475,344.009,343.994,136.475,600,136.475 M600,101.475
			c-67.287,0-132.579,13.187-194.062,39.192c-59.369,25.111-112.68,61.053-158.451,106.826s-81.712,99.085-106.822,158.455
			c-26.004,61.484-39.189,126.775-39.189,194.062c0,67.283,13.186,132.573,39.189,194.055
			c25.11,59.367,61.051,112.678,106.822,158.449c45.772,45.771,99.083,81.711,158.451,106.821
			c61.483,26.005,126.775,39.19,194.062,39.19c67.283,0,132.573-13.186,194.057-39.19c59.367-25.11,112.679-61.05,158.451-106.821
			s81.714-99.082,106.825-158.448c26.006-61.482,39.192-126.772,39.192-194.056c0-67.285-13.187-132.577-39.192-194.062
			c-25.11-59.369-61.052-112.681-106.824-158.454c-45.773-45.773-99.084-81.715-158.452-106.826
			C732.574,114.661,667.283,101.475,600,101.475L600,101.475z"/>
	</g>
	<g>
		<radialGradient id="SVGID_2_" cx="383.1045" cy="431.3564" r="629.6038" gradientUnits="userSpaceOnUse">
			<stop  offset="0" style="stop-color:#FFE300"/>
			<stop  offset="1" style="stop-color:#FFC000"/>
		</radialGradient>
		<path fill-rule="evenodd" clip-rule="evenodd" fill="url(#SVGID_2_)" d="M680.43,514.316c0.508,22.432,0.308,44.897,1.743,67.261
			c1.362,21.172,7.368,41.353,19.258,59.209c3.887,5.82,9.404,10.576,14.287,15.703c0.581,0.601,1.904,0.479,2.871,0.693
			c-0.02-1.03,0.317-2.271-0.132-3.062c-3.081-5.405-6.475-10.64-9.517-16.074c-9.946-17.72-15.439-36.694-13.506-57.07
			c1.211-12.583,3.408-24.941,9.038-36.836c5.688-12.012,11.846-23.374,22.09-31.729c8.037-6.567,16.763-12.52,25.85-17.51
			c20.503-11.265,42.852-14.624,65.928-12.588c13.018,1.147,25.415,5.239,37.681,9.854c14.575,5.483,26.641,14.585,38.271,24.497
			c1.069,0.918,2.222,1.865,2.9,3.047c0.601,1.045,0.601,2.441,0.869,3.682c-1.06-0.01-2.168,0.186-3.179-0.049
			c-7.969-1.802-15.825-4.722-23.887-5.337c-15.532-1.177-31.196-1.943-46.743-1.26c-17.842,0.771-35.42,4.092-52.593,9.478
			c-13.589,4.263-26.431,10.088-39.126,16.377c-3.774,1.87-4.937,4.619-4.946,8.794c-0.039,36.387,14.038,66.641,39.502,92.026
			c7.3,7.285,15.586,13.13,25.376,16.714c14.414,5.269,28.442,3.345,42.393-1.865c18.345-6.851,35.586-15.859,52.373-25.894
			c21.445-12.817,42.28-26.436,61.357-42.637c0.923-0.786,2.5-0.806,3.774-1.191c0.386,1.323,1.26,2.715,1.079,3.96
			c-0.396,2.754-1.25,5.464-2.046,8.159c-1.841,6.24-3.96,12.407-5.576,18.701c-2.71,10.454-9.458,18.423-17.397,24.663
			c-16.489,12.935-33.091,26.006-51.016,36.763c-22.578,13.569-46.514,24.785-72.246,31.675c-18.579,4.98-37.368,7.271-56.44,5.132
			c-31.006-3.472-56.494-16.46-72.251-44.634c-6.138-10.952-9.302-23.062-11.997-35.269c-0.552-2.485-1.201-4.946-1.948-7.368
			c-0.19-0.61-0.913-1.05-1.401-1.567c-0.43,0.659-1.143,1.279-1.245,1.992c-2.31,17.275-7.886,33.579-14.277,49.673
			c-4.736,11.899-12.041,21.846-22.183,29.629c-4.478,3.433-9.272,6.465-13.833,9.805c-1.016,0.742-1.636,2.007-2.441,3.032
			c0.938,0.498,1.821,1.304,2.812,1.455c11.772,1.802,23.604,3.34,35.356,5.283c13.989,2.31,28.208,3.94,41.787,7.788
			c10.889,3.081,20.669,9.463,26.626,19.971c1.079,1.904,1.914,4.028,2.441,6.167c3.677,15.215,1.821,30.22-4.297,44.214
			c-6.226,14.243-13.086,28.535-24.683,39.404c-7.827,7.339-16.294,14.116-25.098,20.244c-12.998,9.038-26.445,17.456-39.941,25.771
			c-7.207,4.438-14.902,8.081-22.354,12.134c-14.434,7.856-28.784,15.859-43.291,23.555c-6.982,3.706-14.116,7.236-21.436,10.21
			c-15.225,6.187-30.352,12.793-46.006,17.681c-24.438,7.612-49.487,12.061-75.352,11.807c-18.457-0.176-35.645-4.673-52.92-10.508
			c-14.341-4.834-26.089-13.506-37.72-22.422c-10.229-7.827-17.817-18.291-24.541-29.16c-13.979-22.568-21.865-47.432-24.409-73.643
			c-2.495-25.825-1.489-51.709,5.371-76.973c3.706-13.667,7.412-27.422,12.48-40.601c5.488-14.272,12.207-28.115,19.077-41.797
			c5.586-11.123,12.163-21.758,18.379-32.568c1.611-2.803,3.198-5.142,0.112-8.247c-9.443-9.517-10.859-21.641-9.341-34.038
			c0.874-7.227,3.306-14.331,5.698-21.26c1.24-3.604,1.221-6.25-0.918-9.468c-2.002-3.003-3.071-6.636-4.658-9.937
			c-0.317-0.649-1.143-1.523-1.66-1.484c-0.654,0.063-1.426,0.854-1.792,1.528c-2.168,3.95-3.838,8.232-6.392,11.909
			c-7.31,10.493-17.51,14.746-30.21,13.11c-9.019-1.172-16.123-9.683-16.929-19.624c-0.806-9.897,2.393-19.038,4.502-28.389
			c1.055-4.712,2.29-9.385,3.306-14.097c0.132-0.635-0.527-1.436-0.815-2.158c-0.713,0.312-1.812,0.435-2.075,0.977
			c-3.208,6.299-6.768,12.49-9.263,19.072c-2.188,5.791-3.003,12.085-4.673,18.081c-2.563,9.199-5.049,18.452-8.12,27.49
			c-3.013,8.887-13.345,10.596-19.604,3.389c-6.88-7.886-9.414-17.417-9.121-27.637c0.171-6.226,1.118-12.446,1.865-18.633
			c0.098-0.825,1.099-1.528,1.675-2.29c0.503,0.903,1.182,1.768,1.445,2.759c0.215,0.762,0.073,1.729-0.19,2.51
			c-2.627,7.656-0.684,15.278,0.562,22.773c0.576,3.457,2.554,6.938,4.678,9.829c4.248,5.762,11.016,5.684,14.902-0.312
			c2.09-3.218,3.311-7.188,4.194-10.972c3.97-16.87,7.622-33.838,15.796-49.297c2.363-4.468,5.684-8.481,8.931-12.397
			c1.035-1.255,3.701-2.495,4.834-1.987c1.343,0.601,2.534,3.096,2.563,4.775c0.039,3.35-0.63,6.738-1.25,10.068
			c-1.968,10.576-4.277,21.099-6.016,31.714c-2.139,13.032,12.256,23.97,25.952,17.124c11.372-5.703,17.031-15.181,18.965-27.534
			c1.924-12.31-0.254-24.258-2.759-36.074c-1.426-6.729,1.953-11.44,4.233-16.772c0.142-0.308,2.861-0.186,3.145,0.366
			c1.152,2.236,1.924,4.702,2.637,7.134c3.525,11.909,2.832,24.185,3.359,36.377c0.264,6.465,0.864,13.071,2.554,19.268
			c3.442,12.583,16.47,16.035,26.313,7.461c2.666-2.319,2.993-4.985,2.207-8.418c-2.798-12.163-5.19-24.419-7.876-36.611
			c-1.396-6.343-4.102-12.593-4.253-18.921c-0.122-4.702,2.847-9.517,4.741-14.15c0.132-0.312,3.604-0.103,4.121,0.742
			c1.934,3.096,3.35,6.538,4.849,9.897c1.26,2.837,2.31,5.771,3.569,8.608c1.426,3.208,2.139,5.703-3.052,4.58
			c-0.43-0.088-1.934,1.743-1.772,2.393c2.1,8.54,4.722,16.958,6.597,25.537c2.974,13.623,1.26,26.343-7.388,37.979
			c-5.215,7.021-11.475,9.629-19.873,8.193c-7.295-1.25-7.573-1.211-9.004,5.688c-1.152,5.527-2.026,11.177-2.231,16.807
			c-0.562,15.146,8.579,24.146,23.931,27.158c10.791,2.114,21.631,0.088,31.816-3.667c16.768-6.177,33.042-13.516,47.788-23.809
			c1.924-1.343,3.33-3.418,4.971-5.156c-2.29-0.918-4.512-2.295-6.88-2.646c-5.61-0.85-11.289-1.572-16.948-1.694
			c-16.602-0.342-18.926-13.584-15.107-24.487c4.287-12.202,13.203-20.986,22.803-29.019c6.309-5.283,10.576-3.838,14.512,3.818
			c1.548,2.998,3.379,5.933,5.557,8.496c2.69,3.164,4.238,2.944,6.65-0.376c5.649-7.788,10.806-15.991,17.036-23.276
			c4.917-5.762,10.547-11.353,16.899-15.371c17.544-11.104,35.879-0.029,40.928,15.747c0.557,1.738,0.312,3.887-0.063,5.737
			c-4.233,20.635-17.739,32.104-37.344,37.441c-1.089,0.293-2.261,0.264-3.359,0.527c-5.669,1.362-11.289,3.633-17.007,3.906
			c-5.825,0.298-11.86-0.894-17.568-2.339c-3.34-0.835-5.835,0.093-8.594,1.172c-0.688-2.666-1.016-5.488-2.148-7.949
			c-1.738-3.828-3.906-7.485-6.113-11.084c-2.549-4.165-3.892-4.683-8.389-2.568c-7.104,3.359-12.314,8.936-16.724,15.342
			c-1.709,2.48-1.079,4.59,1.26,5.669c3.301,1.504,6.821,2.827,10.386,3.408c4.17,0.693,8.506,0.356,12.754,0.713
			c6.562,0.562,13.545,1.118,16.191,8.521c2.778,7.773-0.386,14.556-5.728,20.161c-6.24,6.538-13.325,12.031-21.021,16.929
			c-12.754,8.091-25.923,15.034-40.493,19.238c-11.426,3.286-22.881,3.511-34.409,0.796c-5.693-1.338-5.713-1.011-7.656,4.302
			c-3.286,9.028-7.046,17.876-10.737,26.738c-10.718,25.693-20.571,51.641-23.984,79.517c-2.93,23.892-1.787,47.422,3.994,70.977
			c5.522,22.588,16.294,42.295,30.186,60.371c11.108,14.443,26.143,23.877,43.291,30.269c21.631,8.062,43.853,8.438,66.313,6.25
			c19.248-1.88,38.008-6.025,55.972-13.477c19.624-8.14,39.761-15.195,58.887-24.355c20.938-10.049,41.006-21.895,61.377-33.11
			c10.898-6.016,21.87-11.973,32.368-18.667c13.057-8.33,25.791-17.202,38.403-26.211c4.785-3.423,4.395-4.512,0.303-8.511
			c-8.091-7.9-18.403-11.055-28.999-12.979c-17.852-3.247-35.835-5.781-53.76-8.608c-1.689-0.269-3.433-0.317-5.049-0.796
			c-20.605-6.147-42.017-9.346-62.134-17.271c-5.952-2.344-6.226-2.202-4.204-8.398c1.499-4.541,3.452-8.96,5.479-13.306
			c2.402-5.142,5.688-9.941,7.52-15.259c2.344-6.777,6.802-10.532,13.203-13.076c23.047-9.185,43.921-22.354,64.312-36.235
			c5.303-3.604,9.648-8.716,14.106-13.447c2.28-2.432,3.584-5.376,3.633-9.17c0.244-18.179,1.353-36.348,1.333-54.517
			c-0.039-32.402-0.405-64.79-1.147-97.178c-0.693-30.068-1.67-60.146-3.237-90.181c-1.704-32.9-3.696-65.796-6.528-98.613
			c-2.49-28.848-6.289-57.568-9.546-86.343c-0.601-5.347-1.748-10.659-1.914-16.001c-0.083-2.983,0.977-6.172,2.188-8.979
			c4.165-9.629,8.584-19.146,13.022-28.652c0.547-1.182,1.797-2.026,2.734-3.013c0.938,1.274,2.344,2.412,2.739,3.838
			c2.852,10.088,6.201,20.093,8.062,30.361c5.913,32.642,11.87,65.298,16.582,98.125c2.92,20.479,3.896,41.26,5.249,61.943
			c1.714,26.089,3.037,52.197,4.268,78.306c0.928,19.849,1.528,39.717,2.148,59.575c0.215,6.802,0.039,13.618,0.039,20.43
			C680.737,514.326,680.581,514.316,680.43,514.316z M462.832,555.713c0.059,0.2,0.122,0.405,0.181,0.601
			c6.079-1.123,12.432-1.499,18.184-3.555c8.73-3.115,17.222-7.061,25.474-11.309c5.234-2.686,5.61-5.547,2.109-10.391
			c-1.943-2.686-4.683-4.814-7.168-7.085c-6.719-6.167-14.37-6.953-22.656-2.759c-12.661,6.411-20.449,17.607-28.438,28.613
			c-1.885,2.583-0.581,4.365,2.197,4.834C456.055,555.234,459.453,555.376,462.832,555.713z"/>
		<radialGradient id="SVGID_3_" cx="383.1045" cy="431.374" r="629.5692" gradientUnits="userSpaceOnUse">
			<stop  offset="0" style="stop-color:#FFE300"/>
			<stop  offset="1" style="stop-color:#FFC000"/>
		</radialGradient>
		<path fill-rule="evenodd" clip-rule="evenodd" fill="url(#SVGID_3_)" d="M442.046,728.057c-7.876-0.264-13.057-4.121-16.06-10.962
			c-1.201-2.739-2.109-2.974-3.95-0.684c-2.139,2.656-4.644,5.049-6.577,7.837c-6.035,8.696-19.673,10.405-29.546,6.504
			c-6.738-2.666-8.682-9.302-9.863-15.898c-0.244-1.362,0.122-2.827,0-4.233c-0.186-2.188-0.532-4.355-0.815-6.523
			c-1.567,1.528-3.228,2.959-4.683,4.6c-6.118,6.924-15.391,9.365-23.989,6.23c-4.736-1.733-6.323-4.033-4.033-8.359
			c3.301-6.206,6.934-12.476,11.616-17.656c5.293-5.835,11.733-10.679,18.003-15.532c2.524-1.958,3.584-3.857,3.872-6.982
			c0.332-3.892,1.333-7.778,2.5-11.523c0.43-1.343,2.178-2.271,3.33-3.379c0.815,1.089,1.914,2.075,2.383,3.296
			c0.977,2.505-0.298,6.758,4.854,5.63c-0.029,1.26,0.469,2.983-0.161,3.716c-4.316,4.985-4.155,10.82-4.062,16.875
			c0.093,6.167-0.684,12.349-0.884,18.525c-0.43,12.988,9.829,20.552,22.095,16.216c6.211-2.188,11.919-5.19,15.513-11.187
			c1.445-2.412,3.291-4.634,5.234-6.689c0.854-0.903,2.349-1.323,3.643-1.567c0.234-0.049,1.006,1.733,1.24,2.739
			c2.29,10.229,8.848,14.678,19.077,12.783c2.646-0.488,2.227-2.178,0.977-3.662c-2.197-2.588-4.854-4.824-6.841-7.554
			c-7.949-10.913-8.511-22.729-2.607-34.507c5.386-10.757,14.209-17.158,26.548-18.828c12.427-1.689,22.881,2.046,32.236,9.8
			c0.957,0.796,1.333,2.29,1.982,3.462c-1.323,0.039-2.734,0.405-3.945,0.073c-16.982-4.829-33.052-2.568-48.564,5.586
			c-3.418,1.792-4.644,3.838-3.145,7.441c2.065,4.937,3.398,10.298,6.187,14.771c6.538,10.42,21.104,17.075,33.955,11.196
			c9.507-4.351,19.414-7.842,29.136-11.689c0.791-0.312,1.606-0.742,2.422-0.771c0.752-0.029,1.597,0.283,2.246,0.693
			c0.225,0.142,0.166,1.167-0.098,1.567c-3.14,4.692-5.752,9.771-11.484,12.124c-12.314,5.078-24.561,10.352-36.826,15.552
			c-6.475,2.759-12.856,5.752-19.438,8.213C449.863,726.67,445.884,727.163,442.046,728.057z M358.369,700.981
			c12.144-1.519,18.33-6.577,19.204-18.311c0.083-1.123-0.942-2.617-1.899-3.413c-0.513-0.415-2.241-0.01-2.954,0.591
			c-5.566,4.634-11.133,9.297-16.436,14.224c-1.216,1.128-2.261,3.735-1.743,5.005C355.029,700.298,357.637,700.664,358.369,700.981
			z"/>
		<radialGradient id="SVGID_4_" cx="383.0986" cy="431.3535" r="629.6211" gradientUnits="userSpaceOnUse">
			<stop  offset="0" style="stop-color:#FFE300"/>
			<stop  offset="1" style="stop-color:#FFC000"/>
		</radialGradient>
		<path fill-rule="evenodd" clip-rule="evenodd" fill="url(#SVGID_4_)" d="M581.108,590.928c-1.465-16.396-2.476-32.856-4.502-49.18
			c-2.256-18.281-5.493-36.44-8.193-54.673c-0.537-3.643-0.312-7.397-0.864-11.03c-0.996-6.597,0.508-12.48,4.702-17.549
			c2.129-2.554,2.842-5.039,2.666-8.457c-0.332-6.943,1.489-13.56,5.874-19.16c1.689-2.158,2.842-3.896,1.221-6.787
			c-5.239-9.395-10.137-18.975-15.391-28.369c-0.82-1.475-2.788-3.237-4.263-3.267c-7.236-0.181-12.051-4.692-16.611-9.16
			c-5.415-5.303-4.722-17.363,0.659-22.627c2.759-2.686,9.053-2.739,12.471,0.508c3.052,2.891,6.089,6.108,8.101,9.741
			c4.663,8.418,8.696,17.183,12.979,25.806c0.376,0.762,0.562,1.68,1.099,2.3c0.693,0.801,1.65,1.382,2.495,2.065
			c0.815-1.04,2.119-1.987,2.354-3.135c1.289-6.382,2.046-12.896,3.511-19.229c2.251-9.692,4.722-19.331,11.807-26.982
			c5.63-6.089,13.306-8.105,19.941-4.897c4.844,2.344,6.606,5.801,5.493,11.016c-0.415,1.934-0.903,3.877-1.626,5.718
			c-1.519,3.911-3.022,4.194-5.923,1.265c-7.598-7.686-13.623-7.412-18.647,2.144c-3.516,6.67-5.63,14.199-7.461,21.572
			c-2.656,10.688-4.512,21.567-6.67,32.378c-0.581,2.91,0.132,4.907,3.555,5.474c8.149,1.377,14.302,6.416,20.591,11.343
			c5.649,4.414,2.798,10.024,2.412,15c-0.337,4.307-4.39,5.2-8.379,5.601c-8.823,0.903-17.251,3.237-24.907,7.998
			c-6.289,3.921-7.358,6.24-6.084,13.262c3.511,19.229,7.695,38.374,10.127,57.744c1.973,15.718,2.148,31.709,2.402,47.588
			c0.093,5.557-1.934,11.143-3.096,16.689c-0.142,0.693-0.928,1.265-1.426,1.885c-0.254-0.771-0.713-1.548-0.732-2.329
			c-0.078-3.403-0.029-6.812-0.029-10.22C580.874,590.962,580.986,590.952,581.108,590.928z M581.758,450.508
			c5-1.611,8.174-2.568,11.279-3.726c0.425-0.156,0.732-1.895,0.693-1.914c-2.71-1.089-5.498-2.964-8.184-2.832
			c-2.954,0.132-4.39,3.135-4.336,6.221C581.221,449.336,581.738,450.415,581.758,450.508z"/>
		<radialGradient id="SVGID_5_" cx="383.1016" cy="431.3496" r="629.6251" gradientUnits="userSpaceOnUse">
			<stop  offset="0" style="stop-color:#FFE300"/>
			<stop  offset="1" style="stop-color:#FFC000"/>
		</radialGradient>
		<path fill-rule="evenodd" clip-rule="evenodd" fill="url(#SVGID_5_)" d="M573.828,262.314c-0.21,5.781-3.081,11.885-6.533,17.803
			c-3.54,6.074-3.55,6.064,1.763,11.03c1.035,0.967,2.056,1.953,3.071,2.954c5.864,5.679,6.279,11.133,1.182,17.08
			c-1.66,1.943-3.511,2.705-5.742,0.469c-3.174-3.218-6.533-6.24-9.8-9.365c-3.921-3.745-4.927-3.94-8.184-0.186
			c-17.935,20.684-39.565,37.217-61.03,53.848c-13.164,10.195-27.627,18.594-42.876,25.508
			c-14.126,6.392-28.223,12.856-42.319,19.287c-0.522,0.234-0.986,0.659-1.519,0.762c-2.422,0.459-4.854,0.825-7.275,1.221
			c1.831-1.567,3.501-3.418,5.537-4.658c22.026-13.345,44.365-26.172,66.108-39.961c26.108-16.562,50.864-35.049,73.662-56.035
			c0.42-0.386,0.854-0.742,1.265-1.138c7.153-6.943,7.153-6.943-0.327-13.447c-10.669-9.272-10.85-19.521-0.186-28.784
			c4.033-3.501,8.452-6.67,13.062-9.375C564.292,243.076,573.74,248.706,573.828,262.314z M561.035,268.755
			c-0.142-3.472-0.796-6.694-4.844-7.92c-3.838-1.147-9.131,0.347-10.64,3.32c-2.021,3.979,1.333,6.177,3.311,8.755
			c0.669,0.884,1.538,1.699,2.471,2.31c1.836,1.191,3.789,2.217,5.684,3.306c1.167-2.104,2.432-4.16,3.447-6.348
			C560.913,271.187,560.85,269.966,561.035,268.755z"/>
		<radialGradient id="SVGID_6_" cx="383.0977" cy="431.3428" r="629.6122" gradientUnits="userSpaceOnUse">
			<stop  offset="0" style="stop-color:#FFE300"/>
			<stop  offset="1" style="stop-color:#FFC000"/>
		</radialGradient>
		<path fill-rule="evenodd" clip-rule="evenodd" fill="url(#SVGID_6_)" d="M706.104,398.491c-0.625-1.035-1.895-2.178-1.724-3.032
			c1.172-5.83,2.178-11.724,8.491-14.8c6.108-2.974,11.89-6.587,17.974-9.609c36.055-17.905,73.594-32.256,111.304-46.118
			c21.221-7.798,42.891-14.37,64.36-21.489c1.343-0.444,2.695-0.933,4.082-1.201c2.676-0.527,4.019,0.869,3.193,3.311
			c-2.021,5.942-4.326,11.133-11.631,13.281c-17.632,5.171-35.21,10.728-52.393,17.222c-26.992,10.21-53.579,21.509-80.479,31.973
			c-20.879,8.125-40.776,18.159-60.322,28.999C708.218,397.432,707.456,397.803,706.104,398.491z"/>
		<radialGradient id="SVGID_7_" cx="383.0977" cy="431.3789" r="629.5927" gradientUnits="userSpaceOnUse">
			<stop  offset="0" style="stop-color:#FFE300"/>
			<stop  offset="1" style="stop-color:#FFC000"/>
		</radialGradient>
		<path fill-rule="evenodd" clip-rule="evenodd" fill="url(#SVGID_7_)" d="M840.4,892.3c-10.903-0.308-19.961-1.719-27.402-8.418
			c-5.254-4.722-6.792-9.536-3.818-15.806c4.355-9.185,8.267-18.628,15.879-25.928c4.375-4.204,3.921-5.117-1.709-7.358
			c-11.636-4.634-13.936-10.791-7.505-21.812c5.508-9.438,12.412-17.559,23.452-21.06c3.545-1.123,6.67-1.406,9.478,1.313
			c2.666,2.573,2.188,5.605,0.977,8.691c-0.825,2.095-1.455,4.282-2.461,6.279c-1.191,2.329-2.788,3.462-5.376,1.323
			c-1.221-0.996-2.939-1.772-4.497-1.914c-4.399-0.386-12.114,4.082-11.729,6.87c0.674,4.946,5.449,5.356,8.989,6.689
			c6.597,2.49,12.837-0.347,19.087-2.065c0.527-0.146,0.942-0.654,1.475-0.835c3.804-1.396,7.349-5.103,11.733-2.251
			c1.357,0.874-5.312,11.504-8.091,13.091c-7.817,4.497-16.152,8.335-23.237,13.789c-5.474,4.204-9.751,10.181-13.862,15.859
			c-3.989,5.518-2.832,8.813,3.193,12.305c6.567,3.789,13.755,5.151,21.235,5.132c17.935-0.059,33.892-6.006,48.35-16.367
			c1.372-0.977,2.622-2.148,4.067-2.993c0.571-0.337,1.733-0.293,2.241,0.093c0.43,0.337,0.469,1.406,0.396,2.114
			c-0.059,0.503-0.576,0.947-0.947,1.387C884.443,879.829,864.58,891.558,840.4,892.3z"/>
		<radialGradient id="SVGID_8_" cx="383.0986" cy="431.3457" r="629.6145" gradientUnits="userSpaceOnUse">
			<stop  offset="0" style="stop-color:#FFE300"/>
			<stop  offset="1" style="stop-color:#FFC000"/>
		</radialGradient>
		<path fill-rule="evenodd" clip-rule="evenodd" fill="url(#SVGID_8_)" d="M573.809,999.277c0.376-5.537,1.855-10.596,7.827-13.643
			c12.856-6.543,25.562-13.384,38.232-20.264c7.471-4.053,14.658-8.623,22.158-12.603c10.005-5.312,20.234-10.176,30.293-15.4
			c10.259-5.332,20.376-10.942,30.645-16.274c11.543-6.006,23.188-11.826,34.795-17.72c2.778-1.406,5.483-3.003,8.384-4.111
			c1.416-0.542,3.33-0.552,4.727-0.034c0.566,0.205,0.566,2.476,0.498,3.789c-0.43,8.252-5.039,12.5-12.52,16.03
			c-20.757,9.79-41.011,20.664-61.44,31.157c-14.302,7.358-28.633,14.648-42.822,22.222c-17.251,9.209-34.36,18.687-51.533,28.052
			c-1.484,0.815-2.9,1.821-4.468,2.451C575.205,1004.297,573.911,1003.35,573.809,999.277z"/>
		<radialGradient id="SVGID_9_" cx="383.1084" cy="431.3584" r="629.5966" gradientUnits="userSpaceOnUse">
			<stop  offset="0" style="stop-color:#FFE300"/>
			<stop  offset="1" style="stop-color:#FFC000"/>
		</radialGradient>
		<path fill-rule="evenodd" clip-rule="evenodd" fill="url(#SVGID_9_)" d="M440.4,614.424c1.035-3.169,2.461-8.94,4.824-14.282
			c3.765-8.55,8.467-16.621,15.063-23.423c0.557-0.576,1.304-0.996,1.963-1.484c-0.049,0.996,0.254,2.217-0.19,2.983
			c-3.301,5.537-7.158,10.786-10.049,16.528c-2.871,5.713-5.884,11.362-5.811,18.33c0.132,11.646,11.011,15.605,19.897,10.181
			c10.171-6.211,19.126-13.901,28.247-21.475c11.318-9.375,22.861-18.55,36.104-25.176c8.008-3.989,16.406-5.952,25.435-4.067
			c11.318,2.368,15.034,7.183,13.672,18.35c-0.186,1.538-0.825,3.745-1.904,4.243c-1.016,0.459-2.964-0.762-4.355-1.504
			c-3.179-1.699-6.079-4.121-9.414-5.254c-13.965-4.712-25.61,1.743-36.401,9.121c-10.483,7.168-20.02,15.693-30.088,23.501
			c-6.025,4.673-11.929,9.648-18.486,13.457c-6.938,4.043-14.575,6.924-22.095,0.479C441.274,630.19,440.645,623.784,440.4,614.424z
			"/>
		<radialGradient id="SVGID_10_" cx="383.1152" cy="431.3506" r="629.5941" gradientUnits="userSpaceOnUse">
			<stop  offset="0" style="stop-color:#FFE300"/>
			<stop  offset="1" style="stop-color:#FFC000"/>
		</radialGradient>
		<path fill-rule="evenodd" clip-rule="evenodd" fill="url(#SVGID_10_)" d="M876.602,397.383c1.265-4.775,1.865-10.361,7.29-12.529
			c4.824-1.924,9.224-0.161,13.315,3.174c7.651,6.24,10.298,15.259,13.872,23.75c1.528,3.633,2.271,7.593,3.511,11.348
			c0.234,0.713,1.099,1.201,1.68,1.802c0.518-0.62,1.362-1.172,1.509-1.851c0.996-5.01,1.494-10.151,2.837-15.044
			c2.1-7.598,4.023-15.381,7.432-22.407c2.217-4.58,6.699-8.213,10.625-11.787c4.194-3.813,9.263-3.691,14.385-1.626
			c7.979,3.208,9.819,7.676,6.279,15.347c-3.125,6.738-3.125,6.738-8.823,1.47c-5.317-4.917-10.342-4.248-15.293,0.913
			c-5.425,5.669-7.227,12.773-9.028,19.839c-2.91,11.533-5.259,23.208-7.847,34.819c-0.122,0.562-0.132,1.191-0.405,1.65
			c-1.221,2.017-2.534,3.97-3.809,5.947c-0.967-1.855-2.383-3.613-2.837-5.591c-2.109-9.15-5.029-17.944-9.785-26.089
			c-1.758-3.013-3.55-4.546-7.622-5.293c-8.101-1.504-13.945-7.07-16.836-15.156C876.768,399.287,876.758,398.403,876.602,397.383z"
			/>
		<radialGradient id="SVGID_11_" cx="383.1035" cy="431.3203" r="629.6625" gradientUnits="userSpaceOnUse">
			<stop  offset="0" style="stop-color:#FFE300"/>
			<stop  offset="1" style="stop-color:#FFC000"/>
		</radialGradient>
		<path fill-rule="evenodd" clip-rule="evenodd" fill="url(#SVGID_11_)" d="M376.934,790.869
			c0.41-14.648,11.982-26.006,26.089-25.591c13.14,0.391,22.974,10.62,22.563,23.496c-0.444,13.75-13.208,25.728-27.061,24.57
			C386.289,812.324,376.353,804.15,376.934,790.869z"/>
		<radialGradient id="SVGID_12_" cx="383.0947" cy="431.3467" r="629.6232" gradientUnits="userSpaceOnUse">
			<stop  offset="0" style="stop-color:#FFE300"/>
			<stop  offset="1" style="stop-color:#FFC000"/>
		</radialGradient>
		<path fill-rule="evenodd" clip-rule="evenodd" fill="url(#SVGID_12_)" d="M452.49,811.826
			c-13.662,0.347-24.653-9.209-23.779-23.789c0.786-12.998,12.319-24.429,25.073-24.048c17.061,0.518,23.35,12.549,23.34,23.794
			C477.104,798.657,466.396,813.081,452.49,811.826z"/>
		<radialGradient id="SVGID_13_" cx="383.1055" cy="431.3535" r="629.6049" gradientUnits="userSpaceOnUse">
			<stop  offset="0" style="stop-color:#FFE300"/>
			<stop  offset="1" style="stop-color:#FFC000"/>
		</radialGradient>
		<path fill-rule="evenodd" clip-rule="evenodd" fill="url(#SVGID_13_)" d="M585.361,209.302c1.987,0,3.999-0.225,5.957,0.029
			c9.097,1.201,14.8,8.164,13.75,17.275c-0.815,7.144-4.756,12.593-10.747,16.479c-0.889,0.571-2.056,0.669-3.096,0.996
			c0.19-0.996,0.273-2.036,0.61-2.993c3.906-11.03,0.103-17.607-11.46-19.38c-2.466-0.376-5.078-0.142-7.593,0.103
			c-15.859,1.548-28.999,9.302-41.177,18.779c-8.975,6.992-16.597,15.41-22.891,24.971c-3.184,4.844-5.127,10.054-4.731,15.947
			c0.61,9.019,7.031,12.998,15.298,9.58c1.323-0.542,2.891-0.532,4.336-0.776c-0.254,1.558-0.225,3.237-0.835,4.644
			c-0.781,1.792-1.982,3.428-3.164,5.02c-4.009,5.361-10.181,7.793-15.513,6.196c-6.323-1.904-10.098-6.626-10.698-13.75
			c-1.05-12.583,3.643-23.472,10.952-33.145c9.814-12.988,21.621-24.082,35.654-32.417c8.735-5.2,17.822-9.946,27.158-13.955
			c5.601-2.402,11.968-3.022,17.983-4.438C585.229,208.74,585.293,209.019,585.361,209.302z"/>
		<radialGradient id="SVGID_14_" cx="383.0996" cy="431.3535" r="629.5961" gradientUnits="userSpaceOnUse">
			<stop  offset="0" style="stop-color:#FFE300"/>
			<stop  offset="1" style="stop-color:#FFC000"/>
		</radialGradient>
		<path fill-rule="evenodd" clip-rule="evenodd" fill="url(#SVGID_14_)" d="M384.556,452.744
			c1.182,22.109,2.578,44.194,3.452,66.313c0.532,13.325,0.62,26.699,0.176,40.034c-0.298,8.477-1.743,16.958-6.465,24.399
			c-0.508,0.811-1.631,1.26-2.466,1.87c-0.273-1.016-0.82-2.056-0.801-3.071c0.273-13.032,1.006-26.06,0.864-39.087
			c-0.151-14.453-0.957-28.906-1.699-43.364c-0.928-18.086-2.1-36.172-3.135-54.258c-0.571-9.873-1.021-19.751-1.65-29.624
			c-0.366-5.757,3.877-9.17,6.587-13.34c0.122-0.186,2.603,0.508,3.013,1.299c1.27,2.495,2.227,5.181,3.042,7.881
			c1.953,6.504,3.774,13.047,5.62,19.585c0.303,1.089,0.649,2.246,0.547,3.325c-0.088,1.011-0.547,2.476-1.25,2.769
			c-0.713,0.308-2.017-0.425-2.9-0.967c-0.977-0.61-1.782-1.504-2.656-2.28c-0.308,1.069-0.918,2.148-0.889,3.198
			c0.176,5.107,0.522,10.21,0.806,15.308C384.692,452.734,384.619,452.744,384.556,452.744z"/>
		<radialGradient id="SVGID_15_" cx="383.1074" cy="431.3506" r="629.5845" gradientUnits="userSpaceOnUse">
			<stop  offset="0" style="stop-color:#FFE300"/>
			<stop  offset="1" style="stop-color:#FFC000"/>
		</radialGradient>
		<path fill-rule="evenodd" clip-rule="evenodd" fill="url(#SVGID_15_)" d="M356.445,350.898c0.562-1.943,1.035-6.045,2.861-9.438
			c6.279-11.733,14.897-21.772,24.307-31.123c0.405-0.41,1.343-0.288,2.036-0.4c-0.269,0.732-0.4,1.558-0.815,2.192
			c-2.334,3.511-4.775,6.948-7.075,10.474c-3.086,4.712-6.187,9.414-9.048,14.258c-1.123,1.904-2.466,4.307-2.178,6.26
			c0.312,2.139,2.002,4.692,3.848,5.742c1.167,0.669,3.906-0.752,5.576-1.812c1.05-0.664,1.274-2.505,2.168-3.564
			c0.61-0.732,1.738-1.025,2.646-1.504c0.244,0.781,0.894,1.709,0.674,2.329c-1.875,5.234-3.247,10.811-6.089,15.483
			c-2.646,4.355-7.441,5.811-12.69,3.896C358.013,361.992,356.616,359.619,356.445,350.898z"/>
		<radialGradient id="SVGID_16_" cx="383.1025" cy="431.3564" r="629.6186" gradientUnits="userSpaceOnUse">
			<stop  offset="0" style="stop-color:#FFE300"/>
			<stop  offset="1" style="stop-color:#FFC000"/>
		</radialGradient>
		<path fill-rule="evenodd" clip-rule="evenodd" fill="url(#SVGID_16_)" d="M497.754,433.945c-0.762,1.504-0.947,2.505-1.548,2.91
			c-1.606,1.099-3.296,2.188-5.107,2.871c-24.644,9.253-48.857,19.502-72.471,31.167c-2.485,1.221-6.162,4.824-7.964,1.484
			c-1.748-3.203,2.759-4.478,5.527-5.962c20.239-10.894,41.499-19.39,62.944-27.495c4.766-1.802,9.326-4.121,14.111-5.859
			C494.375,432.642,496.006,433.56,497.754,433.945z"/>
		<radialGradient id="SVGID_17_" cx="383.1123" cy="431.3525" r="629.6639" gradientUnits="userSpaceOnUse">
			<stop  offset="0" style="stop-color:#FFE300"/>
			<stop  offset="1" style="stop-color:#FFC000"/>
		</radialGradient>
		<path fill-rule="evenodd" clip-rule="evenodd" fill="url(#SVGID_17_)" d="M266.323,451.494c-0.459-1.294-1.494-2.871-1.099-3.423
			c1.06-1.504,2.544-2.969,4.194-3.745c8.711-4.111,17.412-8.242,26.318-11.919c15.654-6.465,31.455-12.593,47.192-18.882
			c0.781-0.312,1.567-1.172,2.256-1.069c1.182,0.156,2.29,0.854,3.433,1.323c-0.693,1.089-1.133,2.69-2.119,3.188
			c-2.993,1.523-6.23,2.573-9.312,3.906c-22.09,9.541-44.175,19.097-66.255,28.652C269.644,450.088,268.35,450.64,266.323,451.494z"
			/>
		<radialGradient id="SVGID_18_" cx="383.0967" cy="431.3496" r="629.5859" gradientUnits="userSpaceOnUse">
			<stop  offset="0" style="stop-color:#FFE300"/>
			<stop  offset="1" style="stop-color:#FFC000"/>
		</radialGradient>
		<path fill-rule="evenodd" clip-rule="evenodd" fill="url(#SVGID_18_)" d="M250.874,485.459c-1.313,0.884-3.169,1.851-4.692,3.198
			c-9.429,8.315-20.034,14.595-32.026,18.442c-0.688,0.225-1.567-0.112-2.358-0.186c0.469-0.601,0.806-1.401,1.416-1.782
			c8.354-5.166,16.763-10.259,25.142-15.41c1.909-1.187,3.735-2.534,5.586-3.823c3.35-2.344,3.726-4.878,1.699-8.652
			c-3.442-6.436-1.069-11.465,5.659-13.467c4.663-1.377,8.237,1.66,6.777,6.318c-1.362,4.336-2.632,8.286-1.543,13.032
			C257.144,485.732,255.361,488.237,250.874,485.459z"/>
		<radialGradient id="SVGID_19_" cx="383.0605" cy="431.3809" r="629.6333" gradientUnits="userSpaceOnUse">
			<stop  offset="0" style="stop-color:#FFE300"/>
			<stop  offset="1" style="stop-color:#FFC000"/>
		</radialGradient>
		<path fill-rule="evenodd" clip-rule="evenodd" fill="url(#SVGID_19_)" d="M596.699,640.864c-0.366,2.793-0.425,4.795-0.923,6.699
			c-1.133,4.399-3.809,6.201-8.218,4.59c-3.003-1.089-4.912-0.815-7.715,0.674c-7.041,3.726-10.684,1.323-10.933-6.465
			c-0.098-3.105-0.742-6.211-0.601-9.292c0.063-1.313,1.489-2.578,2.295-3.857c0.649,1.128,1.699,2.207,1.87,3.408
			c0.337,2.222-0.283,4.653,0.366,6.729c0.488,1.577,2.334,2.729,3.574,4.062c1.201-1.426,2.861-2.69,3.447-4.326
			c0.513-1.426-0.332-3.286-0.332-4.946c0.01-2.212,0.122-4.448,0.479-6.616c0.103-0.654,1.323-1.733,1.709-1.611
			c0.918,0.298,2.158,1.06,2.373,1.865c0.566,2.178,0.405,4.541,1.016,6.699c0.581,2.095,1.587,4.141,2.769,5.981
			c0.396,0.62,1.924,0.732,2.9,0.664c0.308-0.029,0.835-1.465,0.713-2.168c-0.537-3.047-1.567-6.025-1.812-9.092
			c-0.112-1.416,1.182-2.93,1.831-4.395c1.05,1.025,2.588,1.89,3.047,3.145C595.601,635.493,596.133,638.564,596.699,640.864z"/>
		<radialGradient id="SVGID_20_" cx="383.1123" cy="431.3877" r="629.5148" gradientUnits="userSpaceOnUse">
			<stop  offset="0" style="stop-color:#FFE300"/>
			<stop  offset="1" style="stop-color:#FFC000"/>
		</radialGradient>
		<path fill-rule="evenodd" clip-rule="evenodd" fill="url(#SVGID_20_)" d="M424.072,676.685c-2.251,3.53-4.458,7.114-6.851,10.586
			c-0.317,0.459-1.709,0.63-2.329,0.347c-4.36-1.987-8.696-4.033-12.92-6.289c-0.771-0.41-1.66-2.168-1.372-2.729
			c1.914-3.745,4.028-7.388,6.338-10.913c0.469-0.713,2.314-1.313,3.003-0.957c4.482,2.324,8.838,4.868,13.164,7.471
			C423.643,674.536,423.696,675.659,424.072,676.685z"/>
		<radialGradient id="SVGID_21_" cx="383.1035" cy="431.3486" r="629.5972" gradientUnits="userSpaceOnUse">
			<stop  offset="0" style="stop-color:#FFE300"/>
			<stop  offset="1" style="stop-color:#FFC000"/>
		</radialGradient>
		<path fill-rule="evenodd" clip-rule="evenodd" fill="url(#SVGID_21_)" d="M298.813,458.364c0.449-2.412,0.894-4.834,1.353-7.246
			c0.693,2.227,1.445,4.434,2.075,6.675c0.298,1.079,0.054,2.441,0.645,3.267c0.713,1.001,2.026,2.139,3.091,2.148
			c1.113,0.01,2.842-1.05,3.188-2.036c0.62-1.758,0.327-3.818,0.581-5.742c0.303-2.329,0.894-6.665,1.172-6.646
			c3.999,0.225,2.9,3.921,3.735,6.343c0.366,1.04-0.103,2.515,0.464,3.296c0.879,1.191,2.334,1.958,3.535,2.9
			c0.63-1.333,1.924-2.754,1.758-3.999c-0.366-2.769-1.606-5.415-2.178-8.184c-0.171-0.845,0.713-1.904,1.113-2.871
			c0.854,0.532,2.144,0.854,2.49,1.611c2.271,4.927,4.185,9.912,2.08,15.503c-1.143,2.988-3.516,5.781-6.128,4.497
			c-3.921-1.934-6.172-1.006-9.478,1.147c-4.663,3.047-8.56,0.347-8.916-5.503c-0.103-1.689-0.01-3.389-0.01-5.093
			C299.189,458.403,298.994,458.384,298.813,458.364z"/>
		<radialGradient id="SVGID_22_" cx="383.1094" cy="431.3398" r="629.5478" gradientUnits="userSpaceOnUse">
			<stop  offset="0" style="stop-color:#FFE300"/>
			<stop  offset="1" style="stop-color:#FFC000"/>
		</radialGradient>
		<path fill-rule="evenodd" clip-rule="evenodd" fill="url(#SVGID_22_)" d="M551.528,467.563c-1.416,0.889-2.729,2.007-4.253,2.607
			c-15.464,6.128-30.942,12.183-46.436,18.252c-0.786,0.303-1.611,0.713-2.412,0.723c-0.757,0-1.831-0.269-2.178-0.796
			c-0.337-0.508-0.205-1.782,0.22-2.241c1.123-1.177,2.373-2.388,3.818-3.042c6.157-2.788,12.329-5.586,18.638-7.998
			c9.18-3.516,18.467-6.748,27.769-9.937c1.118-0.376,2.583,0.298,3.887,0.479C550.898,466.26,551.211,466.914,551.528,467.563z"/>
		<radialGradient id="SVGID_23_" cx="383.1211" cy="431.3691" r="629.4745" gradientUnits="userSpaceOnUse">
			<stop  offset="0" style="stop-color:#FFE300"/>
			<stop  offset="1" style="stop-color:#FFC000"/>
		</radialGradient>
		<path fill-rule="evenodd" clip-rule="evenodd" fill="url(#SVGID_23_)" d="M436.431,500.088c4.404,2.168,8.73,4.189,12.915,6.504
			c0.61,0.332,0.518,2.002,0.693,3.071c0.039,0.244-0.146,0.552-0.298,0.786c-2.148,3.213-4.307,6.431-6.465,9.648
			c-4.131-1.709-8.374-3.218-12.334-5.264c-1.118-0.581-2.3-3.022-1.943-4.121c1.025-3.179,2.705-6.167,4.404-9.072
			C433.862,500.859,435.288,500.645,436.431,500.088z"/>
		<radialGradient id="SVGID_24_" cx="383.0967" cy="431.3555" r="629.6667" gradientUnits="userSpaceOnUse">
			<stop  offset="0" style="stop-color:#FFE300"/>
			<stop  offset="1" style="stop-color:#FFC000"/>
		</radialGradient>
		<path fill-rule="evenodd" clip-rule="evenodd" fill="url(#SVGID_24_)" d="M437.568,417.427c0.693-3.433,3.003-5.674,6.157-6.323
			c1.934-0.405,4.502,0.195,6.211,1.265c2.349,1.465,1.392,3.701,0.337,5.981c-4.004,8.613-13.408,12.349-22.305,8.696
			c-1.23-0.513-2.627-0.776-3.96-0.825c-1.313-0.054-2.637,0.312-3.96,0.508c0.747-1.372,1.265-2.944,2.271-4.082
			c1.943-2.188,4.224-3.828,7.471-2.412c3.657,1.606,5.825-0.835,8.042-3.086c0.654,1.343,1.162,3.716,1.968,3.818
			c1.777,0.234,3.701-0.684,5.566-1.128c-0.449-1.123-0.854-3.188-1.333-3.198C441.885,416.592,439.727,417.109,437.568,417.427z"/>
		<radialGradient id="SVGID_25_" cx="383.1367" cy="431.3301" r="629.5584" gradientUnits="userSpaceOnUse">
			<stop  offset="0" style="stop-color:#FFE300"/>
			<stop  offset="1" style="stop-color:#FFC000"/>
		</radialGradient>
		<path fill-rule="evenodd" clip-rule="evenodd" fill="url(#SVGID_25_)" d="M558.105,527.07c-3.667-0.898-5.771,1.343-6.934,4.438
			c-1.372,3.682-2.158,7.593-3.442,11.318c-0.273,0.825-1.465,1.577-2.378,1.831c-0.479,0.132-1.733-0.786-1.865-1.387
			c-1.191-5.278-4.648-8.76-8.701-11.968c-0.918-0.723-1.519-2.534-1.362-3.735c0.161-1.23,1.201-2.842,2.275-3.311
			c0.938-0.405,2.954,0.156,3.638,0.991c1.577,1.924,2.593,4.302,3.936,6.44c0.845,1.333,1.885,2.544,2.832,3.809
			c0.781-1.455,1.567-2.9,2.339-4.355c1.304-2.476,2.212-5.293,4.023-7.31c1.304-1.445,3.726-2.261,5.781-2.588
			c2.715-0.435,4.141,1.201,4.009,4.072C562.114,528.535,560.396,528.198,558.105,527.07z"/>
	</g>
</g>
</svg>
