<?xml version="1.0" encoding="UTF-8" standalone="no"?>
<svg
   version="1.1"
   width="1500"
   height="1000"
   id="svg17"
   viewBox="0 0 1500 1000"
   sodipodi:docname="section-1-1.svg"
   inkscape:version="1.1 (c68e22c387, 2021-05-23)"
   xmlns:inkscape="http://www.inkscape.org/namespaces/inkscape"
   xmlns:sodipodi="http://sodipodi.sourceforge.net/DTD/sodipodi-0.dtd"
   xmlns="http://www.w3.org/2000/svg"
   xmlns:svg="http://www.w3.org/2000/svg"
   xmlns:rdf="http://www.w3.org/1999/02/22-rdf-syntax-ns#"
   xmlns:cc="http://creativecommons.org/ns#"
   xmlns:dc="http://purl.org/dc/elements/1.1/">
  <metadata
     id="metadata23">
    <rdf:RDF>
      <cc:Work
         rdf:about="">
        <dc:format>image/svg+xml</dc:format>
        <dc:type
           rdf:resource="http://purl.org/dc/dcmitype/StillImage" />
      </cc:Work>
    </rdf:RDF>
  </metadata>
  <defs
     id="defs21" />
  <sodipodi:namedview
     pagecolor="#ffffff"
     bordercolor="#666666"
     borderopacity="1"
     objecttolerance="10"
     gridtolerance="10"
     guidetolerance="10"
     inkscape:pageopacity="0"
     inkscape:pageshadow="2"
     inkscape:window-width="1920"
     inkscape:window-height="991"
     id="namedview19"
     inkscape:pagecheckerboard="0"
     showgrid="false"
     width="1000px"
     inkscape:zoom="0.4621231"
     inkscape:cx="570.19439"
     inkscape:cy="412.22782"
     inkscape:window-x="-9"
     inkscape:window-y="-9"
     inkscape:window-maximized="1"
     inkscape:current-layer="svg17" />
  <g
     id="g1040"
     transform="translate(28.476249)">
    <g
       id="Layer1000"
       transform="matrix(1.757814,0,0,1.757814,-3806.8612,-2465.4568)"
       style="fill:#eb5e28;fill-opacity:1">
      <path
         d="m 2306.1259,1606.2108 c 2.8803,-2.886 56.7949,-43.3508 71.937,-83.5996 0,0 6.253,1.3212 8.9003,2.1619 1.5644,0.6035 5.0524,2.0449 3.8477,-3.2439 -0.8447,-4.6925 -1.6855,-15.9886 -15.0332,-21.7619 -1.4443,-0.957 -4.3285,-2.1583 -7.3344,-2.1583 0,0.9553 -0.5981,3.7228 -0.3575,4.9289 1.2014,0.3583 1.6787,2.5243 0.8408,3.2457 -0.6029,0.4799 -2.0449,1.4411 -2.0449,6.0091 0.1236,2.4072 0.2466,8.6562 7.8165,10.457 -1.6787,3.1289 -19.9482,36.4357 -68.3951,80.8067 -1.9219,1.6534 -4.9907,4.5087 -4.9907,5.6211 0,0.3926 0.8439,1.3847 4.8135,-2.4667 z m 74.4653,-98.1193 c 4.6876,3.3081 6.3121,7.3985 7.2759,9.1973 1.6186,3.1601 -1.2359,2.3165 -2.1977,1.2362 -1.9244,-1.9222 -3.5773,-2.4673 -5.0782,-3.1569 v 0 z m -8.6587,6.8585 c -5.9193,-1.2294 1.1131,-7.2763 2.3394,-7.2763 3.9742,0.1483 3.312,5.7694 3.1598,7.9622 -1.3785,-0.1459 -2.3409,0 -5.4992,-0.6859 z"
         style="fill:#eb5e28;fill-opacity:1;fill-rule:evenodd"
         id="path2" />
      <path
         d="m 2609.0873,1712.9535 c -23.4156,-19.2333 -41.6894,0.6679 -44.5751,3.5518 -19.563,19.5693 -8.6167,53.204 -7.0254,58.0127 3.2168,9.2832 -5.7671,15.0877 -9.6123,18.6055 -6.7339,6.0996 -9.9507,0.3348 -10.9102,-2.5509 -1.9262,-4.8147 -3.5479,-9.6506 -5.1421,-14.125 -3.8505,-10.5829 -8.3281,-5.1118 -10.2529,-2.5566 -7.0625,6.7371 -12.4979,23.3866 -15.3841,32.042 -13.4283,46.2004 -26.5836,62.5546 -33.0134,71.2079 -28.2186,41.3651 -66.0625,37.8289 -75.0186,37.8289 -28.226,-0.3232 -49.3917,-22.1165 -52.9044,-26.2596 22.7492,-3.8551 27.9184,-12.8409 31.104,-15.7255 8.3282,0.3252 24.3771,1.9149 30.4472,1.9149 43.613,-0.01 53.5589,-30.1541 55.1497,-33.6997 10.6041,-29.516 7.7139,-42.5962 11.5634,-63.4535 4.5031,-22.7231 11.8388,-16.9838 14.7217,-16.9838 0.3325,-10.2481 -1.6282,-31.7437 -1.6282,-31.7437 -5.1682,0 -10.4259,5.2667 -12.8296,7.6728 -10.3082,10.3422 -13.4275,38.5313 -14.8159,46.7997 -1.5261,12.1759 -2.0327,21.4894 -11.6818,41.3019 -8.4405,18.0918 -29.0591,31.8347 -32.9939,34.2373 -19.7781,11.6952 -32.8813,11.5478 -34.7737,11.3701 19.2612,-23.0304 18.9213,-53.869 18.9213,-56.7813 0.1845,-4.4493 3.7559,-16.0214 4.6298,-18.2432 2.4321,-9.955 4.146,-13.7373 5.5287,-15.8465 2.2498,-3.7823 4.1165,3.0945 4.4475,4.9895 2.5546,9.4666 9.3195,8.9561 11.0313,8.9561 9.7954,0 12.7072,-17.3716 12.7072,-19.4505 4.8152,-0.01 7.9061,-5.6798 9.4697,-8.2658 3.7845,-5.6795 2.914,-13.5922 2.914,-16.8622 0,-8.5946 -4.8129,-16.3505 -5.3243,-18.9317 -0.4439,-2.1053 -1.6435,-1.745 -2.6456,-1.8213 -0.1332,0.047 -0.2636,0.1026 -0.394,0.1514 0.9595,3.4064 0.9757,8.1303 1.4723,12.338 0.5185,4.3002 -7.7167,11.5424 -8.92,12.0547 -0.8397,-0.6886 -2.2261,-7.5725 -3.0946,-10.3077 -1.5395,-4.6298 -2.105,-4.6913 -3.4614,-4.8407 -1.3799,3.4299 1.3841,10.1931 1.7475,12.2324 1.232,5.8577 -0.5405,10.997 -1.7433,13.2576 -5.3492,9.3166 -8.0869,8.2335 -9.106,8.416 -5.167,0 -5.5289,-6.7314 -6.2178,-9.3174 -1.898,-7.5731 -4.4526,-7.1816 -5.8339,-7.0322 -4.9924,0.1533 -5.3204,8.2638 -5.3204,9.648 0,4.1196 -4.8356,16.0543 -6.0372,15.8961 -3.9725,-15.351 -15.3626,-15.7725 -17.8016,-15.8037 -15.7441,0.011 -13.6102,15.1531 -15.2022,21.2519 -3.1807,19.5341 4.5102,21.8222 7.4013,24.3759 8.022,8.0249 19.5035,-0.3291 21.4254,-2.8856 0.01,43.6112 -51.5903,64.7812 -58.6276,67.035 -2.887,-3.8517 -5.7699,-8.3534 -7.3913,-11.2382 27.5522,-22.1289 27.58,-64.4482 27.574,-71.1748 0,-41.3608 -12.5115,-72.4708 -15.4029,-81.1261 -11.5472,-35.5827 -47.4477,-101.2812 -50.9941,-109.6352 -7.3899,11.539 -1.2832,42.9786 -2.8655,109.9762 -73.3975,0.014 -72.4269,63.7968 -72.7583,69.2371 0.044,72.7641 44.5629,92.0216 50.6631,94.6045 34.3301,14.7549 54.4934,-4.4872 58.0107,-7.7048 0,0 4.1791,7.9988 5.1386,9.9206 -19.563,7.3647 -39.7621,5.1435 -45.5326,4.517 20.501,9.3113 46.8011,8.9771 52.8993,8.646 27.8994,49.0719 73.4105,52.2541 78.8759,51.9239 63.7877,0.022 85.2664,-60.9389 88.4761,-69.9256 8.6587,-22.1269 20.8536,-59.6083 23.0743,-65.7082 4.8075,-12.5095 9.9521,-3.8474 10.5805,-0.9646 5.4494,19.5644 14.4304,17.9422 16.3537,17.6131 15.3924,-0.01 18.2678,-19.872 19.2302,-25.3143 4.8093,-18.5782 23.1125,-20.2008 28.5485,-21.1674 -1.5893,-7.9928 -3.2187,-21.8199 -3.8466,-27.5825 -8.9546,5.4363 -19.2378,4.2058 -22.4532,4.5023 -13.464,-0.2965 -10.5792,-6.3961 -9.9448,-8.0209 8.6483,-17.9464 22.4413,-16.6799 25.6646,-16.6799 28.4304,-0.5536 40.0351,35.6085 39.7069,46.8184 0.337,32.7296 -22.3487,60.9003 -24.605,63.1181 -50.6049,50.0275 -86.8915,10.963 -90.1083,7.1153 -2.8822,7.0531 -5.1386,13.4628 -6.0967,18.2744 37.2203,57.7266 90.4115,10.2305 92.9998,7.6841 32.3921,-32.3878 33.9517,-62.5688 35.2383,-71.854 8.0161,-62.1878 -19.2475,-83.9695 -23.4257,-87.5145 z m -326.1221,141.4125 c -56.2989,-0.2926 -66.0189,-46.0074 -65.8397,-63.7407 0.269,-26.9005 13.8818,-40.1309 16.0733,-42.3192 21.6958,-21.7066 40.8455,-17.8076 46.6151,-17.8076 2.1056,-0.058 0.5454,9.08 0.6066,11.664 3.4852,-3.4874 1.978,-8.291 2.2195,-11.1806 40.1613,13.9427 36.7968,41.3503 36.8036,44.7128 0,32.4609 -31.0175,42.3308 -40.153,41.8504 -28.133,-0.2342 -36.0739,-20.4931 -37.7569,-25.2391 -4.0577,-11.5722 0.9565,-13.2276 3.1244,-14.1934 12.4996,-4.8075 29.8185,-3.6065 34.6246,-3.6065 6.2535,0 2.8857,3.6065 1.2042,5.0479 -6.4914,6.497 -20.1958,12.9872 -26.6885,16.5986 4.9603,-9e-4 13.7656,-1.5664 19.8402,-2.9463 7.9864,-2.3242 10.9341,-6.8593 13.9711,-11.9433 2.8863,-4.3857 5.374,-14.9941 6.4591,-19.1151 1.3827,-4.8107 -1.2643,-4.6604 -2.8829,-4.928 -6.4672,-0.9573 -12.0889,-1.2322 -16.626,-1.2322 -36.4263,-0.1154 -36.1522,25.944 -36.271,27.4813 0.1196,21.039 20.3525,33.3875 25.4313,35.5821 18.0074,8.5056 32.0142,1.3485 37.0899,-1.8102 3.0067,13.318 8.1196,25.9982 9.3501,29.0044 -9.7634,7.0044 -24.5815,8.1207 -27.195,8.1207 z m 29.694,-9.5015 c -1.6846,-3.8457 -3.31,-4.7216 -9.8073,-28.7657 4.5675,-3.1294 23.5621,-16.1152 23.3175,-44.4906 0.2429,-4.8075 0.8983,-46.5553 -39.2652,-59.5337 0,-6.6124 1.2832,-66.607 1.2832,-70.0027 6.5815,11.0645 55.317,85.6794 55.1137,140.3866 -0.2097,5.741 0.6441,40.0683 -30.6419,62.4061 z"
         style="fill:#eb5e28;fill-opacity:1;fill-rule:evenodd"
         id="path4" />
      <path
         d="m 2574.7543,1687.9505 c 0.5729,-0.5411 2.7925,-2.6764 3.6695,-4.4821 1.3212,0.4825 4.746,2.046 7.5132,-1.7374 1.891,-2.2314 3.4832,-5.686 1.6821,-10.5576 -0.5136,-1.3807 -1.7773,-3.6042 -3.85,-4.6582 0,0 0,4.9332 0,6.3156 0.5108,0.2401 2.4971,2.7343 -0.3631,4.4158 -0.6256,0.4238 -3.1218,1.7142 -4.5366,-1.3246 -0.5093,-1.1372 -1.4153,-3.3619 -2.0474,-4.8033 -0.2407,0.6905 -0.6276,3.2451 -0.6276,5.5029 0,0.508 1.9834,2.6427 -0.5406,3.964 -0.9314,0.5108 -6.9125,3.8466 -8.1473,0.9346 -0.3297,-0.6886 -0.5712,-3.0666 -0.5712,-7.007 -0.4513,0.3917 -1.9528,-0.2957 -1.9528,4.8127 -0.057,1.0791 -0.1462,4.3574 1.5645,7.5118 0.3325,0.6939 2.7042,4.6284 8.2031,1.1128 v 0 z"
         style="fill:#eb5e28;fill-opacity:1;fill-rule:evenodd"
         id="path6" />
      <path
         d="m 2518.5683,1639.7469 c -4.0555,4.6014 -34.704,30.3953 -29.5313,63.9662 0.8127,4.8731 4.8756,18.6965 4.8756,18.6965 13.0093,-2.7071 36.9022,-27.6933 46.0972,-37.701 0.54,2.1651 2.9744,9.7667 -7.3272,22.786 -23.0213,25.2195 -45.529,47.4091 -45.5224,92.9686 -0.2744,4.8773 0,24.9815 5.1482,38.5078 1.6195,-4.085 4.8342,-11.9038 6.7604,-15.4542 -1.0854,-4.629 -7.312,-30.6221 4.6173,-52.8689 18.1494,-33.8794 44.4492,-39.8877 44.4433,-85.941 0,-5.9494 -2.4126,-31.1361 -7.0416,-26.2707 -4.3574,4.8739 -17.3409,21.1377 -39.848,35.2361 -3.2754,2.4375 -7.8443,3.5498 -1.6276,-6.2226 15.9854,-26.0303 37.3904,-30.8994 37.1143,-69.404 0,-4.8682 -0.7889,-21.4316 -8.1236,-28.7345 -1.0834,6.2481 -4.0884,20.3213 -22.7766,27.3857 1.0828,4.3251 1.0828,22.7852 12.742,23.05 z"
         style="fill:#eb5e28;fill-opacity:1;fill-rule:evenodd"
         id="path8" />
      <path
         d="m 2441.1913,1728.1438 c 35.9694,-12.7066 51.658,-55.3507 51.6535,-89.1705 -0.016,-58.4302 -8.6706,-70.1229 -18.262,-93.7791 -15.7849,-38.8839 -67.89,-100.796 -76.2451,-113.746 -2.4361,3.7264 -2.645,13.6142 -2.645,16.4681 0,9.4394 4.4102,94.2281 4.4102,97.5356 -21.3092,5.7149 -32.2807,20.6251 -35.5839,23.9317 -14.7265,14.4882 -16.8809,48.9657 -16.67,53.3818 -0.2066,30.5379 5.2662,42.5888 8.3319,52.4774 0.2072,-2.4032 1.7717,-10.3399 2.2193,-13.4041 -10.9721,-35.5842 3.0571,-60.2022 4.1383,-62.1612 18.6607,-31.6494 44.8094,-31.8351 47.0375,-31.8351 36.0382,-0.43 50.2902,31.1613 52.0616,35.1303 9.4436,20.1921 -1.9783,30.534 -3.7185,31.8254 -17.7627,11.8474 -23.9303,-10.7555 -24.8326,-15.8054 -2.861,-12.5331 -3.7619,-36.4589 -5.2968,-36.4589 -1.531,2.8565 -5.9179,15.4239 -6.7893,19.5713 -1.3243,5.9479 2.198,21.7003 4.1876,28.7296 7.2451,26.3319 -11.6628,32.9754 -17.5849,32.7651 -17.9972,0.2455 -18.0369,-32.9351 -18.0369,-38.6489 0,-19.3238 -13.5864,-7.9013 -19.7475,3.0707 -5.228,10.3122 -9.4612,42.3814 -13.3974,56.8695 -5.4638,18.4294 -16.2584,0 -18.4555,-4.3855 -9.2288,-15.5959 -9.4731,-49.6232 -9.684,-54.0079 0,-5.923 1.3167,-33.3926 1.1029,-37.5703 -5.0465,10.3076 -4.3815,40.1844 -4.6196,44.8126 0,27.6794 4.8739,43.6736 5.9613,46.7656 9.4702,30.5104 21.3105,31.1987 23.508,31.1987 11.6594,0.2041 12.7088,-37.3618 13.3684,-41.7535 2.8503,-22.8744 9.4932,-26.7803 11.024,-28.7637 6.1582,-6.167 6.5537,9.8859 6.7963,15.3876 3.1002,31.1947 16.4483,32.7246 19.7526,32.9343 22.1817,0 26.1457,-33.156 25.9319,-37.7832 20.4446,31.4075 35.1658,0.8696 36.6956,-5.0562 12.3217,-35.585 -1.7827,-63.024 -3.971,-67.8642 -17.5938,-36.9082 -54.0541,-33.5968 -60.4247,-33.8051 0.2095,-8.5632 -3.0776,-70.2739 -3.738,-80.8219 3.5155,4.1768 30.751,39.3117 37.788,48.537 7.0356,9.2256 0.092,-0.096 12.085,16.4645 36.4657,50.2778 36.4745,89.8063 36.0541,93.9849 -0.1744,49.6238 -29.9852,70.0621 -34.7051,72.7134 -47.4239,26.5753 -78.2084,-10.7459 -81.9649,-15.1345 -0.9023,5.2901 -1.3198,11.1785 -1.7388,17.1306 19.1206,33.1779 47.6442,34.0158 51.3998,34.0158 8.1195,0 15.5131,-1.2864 22.2097,-3.5949 -0.026,-0.075 -0.035,-0.1551 -0.057,-0.2245 0.1415,0.044 0.2974,0.063 0.451,0.073 v 0 z"
         style="fill:#eb5e28;fill-opacity:1;fill-rule:evenodd"
         id="path10" />
      <path
         d="m 2368.187,1745.4816 c -4.03,3.9079 -18.3327,17.2287 -18.3327,19.0304 -0.029,1.29 18.3634,-14.3379 24.2878,-20.7745 1.6786,-1.7969 4.4433,-6.1892 4.5901,-13.3104 -0.091,-1.8037 -1.0208,-7.666 -6.4627,-7.6368 -2.0449,0.057 -6.0412,2.7368 -6.186,7.6963 0,1.2011 0.4172,6.5226 7.0302,6.5455 0.029,-0.2945 -0.03,-2.7924 -0.03,-4.6559 -0.9933,-0.6885 -3.2477,0.3643 -3.2769,-3.0917 0.086,-2.6456 3.3662,-2.5861 4.5068,-1.5381 1.9225,1.8612 1.1433,3.3993 1.1767,5.7118 0,3.9668 -3.2768,8.2981 -7.3035,12.0234 v 0 z"
         style="fill:#eb5e28;fill-opacity:1;fill-rule:evenodd"
         id="path12" />
      <path
         d="m 2399.6283,1594.0521 c -0.9317,0.51 -6.9125,3.8529 -8.1445,0.9349 -0.3325,-0.6942 -0.5683,-3.0665 -0.5683,-7.003 -0.4558,0.3903 -1.957,-0.3008 -1.957,4.8107 -0.06,1.0814 -0.148,4.3574 1.5661,7.5118 0.3322,0.6894 2.7068,4.6267 8.2043,1.1131 0.5684,-0.5428 2.795,-2.6787 3.6661,-4.4796 1.322,0.4757 4.7522,2.043 7.5106,-1.7478 1.897,-2.2212 3.4892,-5.6758 1.6847,-10.55 -0.5083,-1.3855 -1.7725,-3.6045 -3.8512,-4.6562 0,0 0,4.9258 0,6.3097 0.5097,0.2421 2.4962,2.7382 -0.3603,4.4209 -0.6318,0.4178 -3.1235,1.7127 -4.5357,-1.3232 -0.5128,-1.1418 -1.4165,-3.3664 -2.0491,-4.8098 -0.2356,0.6925 -0.6302,3.2462 -0.6302,5.5045 0,0.5055 1.9879,2.6422 -0.5389,3.964 v 0 z"
         style="fill:#eb5e28;fill-opacity:1;fill-rule:evenodd"
         id="path14" />
    </g>
    <g
       id="g1027"
       transform="translate(0,-9.3000972)">
      <circle
         style="fill:#eb5e28;fill-opacity:1;stroke:#eb5e28;stroke-width:1.88976;stroke-linecap:round;stroke-linejoin:round;stroke-dashoffset:17.5"
         id="path923"
         cx="1163.11"
         cy="291.048"
         r="200.16312" />
      <circle
         style="fill:none;fill-opacity:1;stroke:#eb5e28;stroke-width:5;stroke-linecap:round;stroke-linejoin:round;stroke-miterlimit:4;stroke-dasharray:none;stroke-dashoffset:17.5"
         id="circle1005"
         cx="1163.11"
         cy="725.99707"
         r="200.16312" />
    </g>
  </g>
</svg>
