<?xml version="1.0" encoding="UTF-8" standalone="no"?>
<svg
   version="1.1"
   id="svg2"
   xml:space="preserve"
   width="3992.6399"
   height="2666.6667"
   viewBox="0 0 3992.6399 2666.6667"
   sodipodi:docname="showcase-art.svg"
   inkscape:version="1.1 (c68e22c387, 2021-05-23)"
   xmlns:inkscape="http://www.inkscape.org/namespaces/inkscape"
   xmlns:sodipodi="http://sodipodi.sourceforge.net/DTD/sodipodi-0.dtd"
   xmlns="http://www.w3.org/2000/svg"
   xmlns:svg="http://www.w3.org/2000/svg"
   xmlns:rdf="http://www.w3.org/1999/02/22-rdf-syntax-ns#"
   xmlns:cc="http://creativecommons.org/ns#"
   xmlns:dc="http://purl.org/dc/elements/1.1/"><metadata
     id="metadata8"><rdf:RDF><cc:Work
         rdf:about=""><dc:format>image/svg+xml</dc:format><dc:type
           rdf:resource="http://purl.org/dc/dcmitype/StillImage" /></cc:Work></rdf:RDF></metadata><defs
     id="defs6" /><sodipodi:namedview
     pagecolor="#ffffff"
     bordercolor="#666666"
     borderopacity="1"
     objecttolerance="10"
     gridtolerance="10"
     guidetolerance="10"
     inkscape:pageopacity="0"
     inkscape:pageshadow="2"
     inkscape:window-width="1920"
     inkscape:window-height="991"
     id="namedview4"
     inkscape:pagecheckerboard="0"
     showgrid="false"
     inkscape:zoom="0.20656356"
     inkscape:cx="1996.964"
     inkscape:cy="1445.0758"
     inkscape:window-x="-9"
     inkscape:window-y="-9"
     inkscape:window-maximized="1"
     inkscape:current-layer="g10" /><g
     id="g10"
     inkscape:groupmode="layer"
     inkscape:label="ink_ext_XXXXXX"
     transform="matrix(1.3333333,0,0,-1.3333333,0,2666.6667)"
     style="display:inline"><path
       d="m 2239.459,615.09928 c -154.98,-281.95 -454.8,-473.0401 -799.26,-473.0401 -503.36397,0 -911.41297,408.0601 -911.41297,911.43012 0,503.37 408.049,911.43 911.41297,911.43 38.51,0 76.47,-2.39 113.73,-7.03 -391.01,-52.05 -692.65897,-386.84 -692.65897,-792.1 0,-441.34002 357.76897,-799.13002 799.10897,-799.13002 227.89,0 433.5,95.4 579.08,248.44"
       style="fill:#fffcf2;fill-opacity:1;fill-rule:nonzero;stroke:none;stroke-width:0.1"
       id="path26" /><path
       d="m 1743.53,1885.26 h -8.03 v 34.88 c 0,1.62 1.31,2.93 2.93,2.93 h 2.17 c 1.62,0 2.93,-1.31 2.93,-2.93 v -34.88"
       style="fill:#4c2778;fill-opacity:1;fill-rule:nonzero;stroke:none;stroke-width:0.1"
       id="path184" /><g
       id="g2649"
       transform="translate(100.05746,16.420886)"><path
         d="m 401.069,1385.85 c 10e-4,0 0.002,0 0.004,0 v 0 c -0.002,0 -0.003,0 -0.004,0 z m -0.084,0.21 c 4.052,-3.95 31.516,-4.37 41.905,-4.53 7.162,-0.11 12.819,-0.19 16.022,-0.66 30.59,-4.41 40.064,-3.3 75.311,0.82 90.492,10.6 172.35,10.2 259.011,9.78 l 17.109,-0.08 c 7.268,-0.03 14.68,-0.17 21.848,-0.31 33.53,-0.65 68.199,-1.32 99.762,9.28 4.164,1.4 8.413,3.08 11.268,5.88 4.216,4.12 5.804,11.38 4.045,18.51 -1.903,7.71 -7.069,14.51 -11.357,19.57 -9.705,11.44 -18.952,17.59 -28.27,18.78 -9.994,1.29 -20.399,-3.13 -29.58,-7.02 l -8.793,-3.72 1.65,9.41 c 2.994,17.06 -8.645,35.35 -24.907,39.15 -7.906,1.84 -17.03,-0.17 -24.406,-5.38 -7.03,-4.97 -11.544,-12.13 -12.383,-19.65 l -10.356,0.49 c -0.456,27.51 -16.777,54.91 -42.596,71.53 -22.768,14.65 -52.883,21.25 -84.81,18.58 -25.694,-2.14 -53.121,-9.89 -86.315,-24.37 -9.793,-4.27 -19.956,-9.09 -27.162,-16.76 -12.936,-13.78 -15.086,-34.69 -16.287,-56.73 l -0.399,-7.33 -6.78,2.82 c -17.737,7.37 -34.118,9.84 -48.685,7.35 -16.96,-2.89 -31.205,-13.13 -37.176,-26.71 -5.434,-12.36 -4.27,-27.18 -3.242,-40.27 l 0.679,-8.65 -7.945,3.49 c -10.967,4.81 -19.704,6.06 -26.71,3.81 -4.196,-1.35 -8.105,-4.86 -9.96,-8.95 -0.916,-2.02 -1.731,-5.05 -0.491,-8.13 z m 90.361,-18.4 c -9.8,0 -19.771,0.89 -33.917,2.93 -2.544,0.37 -8.448,0.46 -14.698,0.55 -32.449,0.5 -47.541,2.14 -51.193,10.58 v 0 c -2.243,5.18 -2.074,11.14 0.477,16.76 3.057,6.74 9.281,12.31 16.245,14.55 7.599,2.44 16.228,2.06 26.207,-1.17 -0.702,11.84 -0.561,25.17 4.677,37.08 7.359,16.74 24.578,29.3 44.937,32.77 14.62,2.5 30.629,0.69 47.675,-5.39 1.487,21.39 4.843,41.45 18.653,56.15 8.554,9.11 19.797,14.47 30.58,19.17 34.269,14.95 62.741,22.96 89.604,25.21 34.19,2.85 66.614,-4.32 91.297,-20.2 22.758,-14.65 38.88,-36.98 44.837,-61.02 2.469,3.14 5.453,5.97 8.88,8.39 9.908,7 21.848,9.56 32.762,7.01 18.539,-4.32 32.526,-22.87 33.349,-42.22 8.255,3.18 17.61,5.83 27.242,4.6 12.008,-1.54 23.415,-8.86 34.873,-22.38 5.022,-5.92 11.098,-13.98 13.519,-23.79 2.663,-10.8 0.031,-21.69 -6.87,-28.43 -4.347,-4.25 -9.885,-6.5 -15.22,-8.29 -33.27,-11.18 -68.86,-10.49 -103.272,-9.83 -7.129,0.14 -14.501,0.28 -21.691,0.31 l -17.116,0.08 c -86.337,0.42 -167.886,0.82 -257.753,-9.7 -19.711,-2.31 -31.761,-3.72 -44.084,-3.72"
         style="fill:#eb5e28;fill-opacity:1;fill-rule:nonzero;stroke:none;stroke-width:0.1"
         id="path16" /><path
         d="M 2119.72,1001.13 V 136.44 H 861.717 v 864.69 c 0,61.85 47.573,111.99 106.261,111.99 h 40.382 v 82.15 c 0,32.37 24.9,58.62 55.62,58.62 h 93.12 c -23.33,49.21 -36.46,104.72 -36.46,163.48 0,202.28 347.52,366.25 347.52,366.25 0,0 347.52,-163.97 347.52,-366.25 0,-58.76 -13.12,-114.27 -36.46,-163.48 h 97.89 c 30.71,0 55.62,-26.25 55.62,-58.62 v -82.15 h 80.73 c 58.68,0 106.26,-50.14 106.26,-111.99"
         style="fill:#eb5e28;fill-opacity:0.5;fill-rule:nonzero;stroke:none;stroke-width:0.1"
         id="path18" /><path
         d="m 1566.45,836.47 -87.89,81.77 -88.44,-81.19 9.13,119.7 -118.61,18.53 99.28,67.5 -59.48,104.28 114.67,-35.53 44.45,111.51 43.72,-111.81 114.9,34.78 -60.16,-103.89 98.83,-68.15 -118.73,-17.74 8.33,-119.76"
         style="fill:#fef6f2;fill-opacity:1;fill-rule:nonzero;stroke:none;stroke-width:0.1"
         id="path20" /><path
         d="m 514.327,301.19 c 0,0 -127.029,38.38 -187.898,-50.28 0,0 -83.363,0 -58.222,-39.7 25.141,-39.7 137.616,-23.82 137.616,-23.82 0,0 17.202,-48.96 97.919,-27.79 0,0 82.04,-46.31 168.05,5.29 0,0 41.02,-25.14 72.778,-1.32 0,0 111.151,-56.9 213.039,10.59 0,0 116.441,-41.02 181.281,17.2 0,0 142.91,-8.19 74.1,33.62 -68.81,41.81 -79.39,16.66 -79.39,16.66 0,0 -44.99,60.87 -108.51,43.67 0,0 -3.97,87.34 -134.965,75.43 0,0 -14.556,134.97 -169.374,88.66 0,0 -133.646,1.32 -125.706,-103.22 0,0 -47.636,23.82 -80.718,-44.99"
         style="fill:#eb5e28;fill-opacity:1;fill-rule:nonzero;stroke:none;stroke-width:0.1"
         id="path22" /><path
         d="m 1138.89,191.36 c -64.83,-58.22 -181.281,-17.2 -181.281,-17.2 -101.892,-67.49 -213.042,-10.59 -213.042,-10.59 -31.758,-23.81 -72.773,1.33 -72.773,1.33 -86.009,-51.61 -168.048,-5.3 -168.048,-5.3 -80.721,-21.17 -97.924,27.79 -97.924,27.79 0,0 -112.469,-15.87 -137.62,23.82 -7.49,11.84 -5.351,20.15 1.361,25.98 27.582,-37.19 136.259,-21.85 136.259,-21.85 0,0 17.203,-48.97 97.924,-27.79 0,0 82.039,-46.32 168.048,5.3 0,0 41.015,-25.15 72.773,-1.32 0,0 111.15,-56.91 213.042,10.57 0,0 116.451,-41.01 181.281,17.21 0,0 50.95,-2.92 77.36,3.62 60.84,-39.49 -77.36,-31.57 -77.36,-31.57"
         style="fill:#af471f;fill-opacity:1;fill-rule:nonzero;stroke:none;stroke-width:0.1"
         id="path24" /><path
         d="M 1949.82,742.75 V 497.08 h -942.59 v 245.67 h 942.59"
         style="fill:#6b2d97;fill-opacity:1;fill-rule:nonzero;stroke:none;stroke-width:0.1"
         id="path28" /><path
         d="M 2237.65,580.73 V 122.16 H 1089.97 v 458.57 h 1147.68"
         style="fill:#6b2d97;fill-opacity:1;fill-rule:nonzero;stroke:none;stroke-width:0.1"
         id="path30" /><path
         d="M 1089.97,123.7 H 708.442 V 580.73 H 1089.97 V 123.7"
         style="fill:#6b2d97;fill-opacity:1;fill-rule:nonzero;stroke:none;stroke-width:0.1"
         id="path32" /><path
         d="M 1291.96,361.11 V 122.16 h -174.69 v 238.95 c 0,48.25 39.1,87.35 87.34,87.35 24.12,0 45.95,-9.77 61.76,-25.58 15.81,-15.81 25.59,-37.64 25.59,-61.77"
         style="fill:#ccc5b9;fill-opacity:1;fill-rule:nonzero;stroke:none;stroke-width:0.1"
         id="path34" /><path
         d="M 1492.12,361.11 V 122.16 h -174.69 v 238.95 c 0,8.7 1.27,17.11 3.64,25.03 10.76,36.05 44.16,62.32 83.7,62.32 h 0.01 c 48.23,0 87.34,-39.1 87.34,-87.35"
         style="fill:#ccc5b9;fill-opacity:1;fill-rule:nonzero;stroke:none;stroke-width:0.1"
         id="path36" /><path
         d="m 1321.07,482.46 v -360.3 h -27.29 v 360.3 h 27.29"
         style="fill:#6b2d97;fill-opacity:1;fill-rule:nonzero;stroke:none;stroke-width:0.1"
         id="path38" /><path
         d="m 1950.68,123.21 h -409.43 v 374.86 h 409.43 V 123.21"
         style="fill:#3e2871;fill-opacity:1;fill-rule:nonzero;stroke:none;stroke-width:0.1"
         id="path40" /><path
         d="M 1059.36,156.35 H 769.649 V 458.36 H 1059.36 V 156.35"
         style="fill:#3e2871;fill-opacity:1;fill-rule:nonzero;stroke:none;stroke-width:0.1"
         id="path42" /><path
         d="m 853.374,169.32 h -71.427 v 125.49 c 0,14.39 11.664,26.05 26.052,26.05 h 19.324 c 14.388,0 26.051,-11.66 26.051,-26.05 V 169.32"
         style="fill:#ccc5b9;fill-opacity:1;fill-rule:nonzero;stroke:none;stroke-width:0.1"
         id="path44" /><path
         d="m 948.166,169.32 h -71.427 v 125.49 c 0,14.39 11.664,26.05 26.052,26.05 h 19.323 c 14.388,0 26.052,-11.66 26.052,-26.05 V 169.32"
         style="fill:#ccc5b9;fill-opacity:1;fill-rule:nonzero;stroke:none;stroke-width:0.1"
         id="path46" /><path
         d="m 1043.73,169.32 h -71.432 v 125.49 c 0,14.39 11.664,26.05 26.052,26.05 h 19.32 c 14.39,0 26.06,-11.66 26.06,-26.05 V 169.32"
         style="fill:#ccc5b9;fill-opacity:1;fill-rule:nonzero;stroke:none;stroke-width:0.1"
         id="path48" /><path
         d="m 1942.27,191.72 h -91.11 v 160.06 c 0,18.36 14.88,33.23 33.23,33.23 h 24.65 c 18.35,0 33.23,-14.87 33.23,-33.23 V 191.72"
         style="fill:#ccc5b9;fill-opacity:1;fill-rule:nonzero;stroke:none;stroke-width:0.1"
         id="path50" /><path
         d="m 1789.35,191.72 h -91.11 v 160.06 c 0,18.36 14.88,33.23 33.23,33.23 h 24.65 c 18.35,0 33.23,-14.87 33.23,-33.23 V 191.72"
         style="fill:#ccc5b9;fill-opacity:1;fill-rule:nonzero;stroke:none;stroke-width:0.1"
         id="path52" /><path
         d="m 1636.44,191.72 h -91.11 v 160.06 c 0,18.36 14.87,33.23 33.23,33.23 h 24.64 c 18.36,0 33.24,-14.87 33.24,-33.23 V 191.72"
         style="fill:#ccc5b9;fill-opacity:1;fill-rule:nonzero;stroke:none;stroke-width:0.1"
         id="path54" /><path
         d="m 876.431,155.3 h -23.057 v 303.44 h 23.057 V 155.3"
         style="fill:#6b2d97;fill-opacity:1;fill-rule:nonzero;stroke:none;stroke-width:0.1"
         id="path56" /><path
         d="M 971.89,155.3 H 948.834 V 459.17 H 971.89 V 155.3"
         style="fill:#6b2d97;fill-opacity:1;fill-rule:nonzero;stroke:none;stroke-width:0.1"
         id="path58" /><path
         d="m 1699.21,123.1 h -60.97 v 373.97 h 60.97 V 123.1"
         style="fill:#6b2d97;fill-opacity:1;fill-rule:nonzero;stroke:none;stroke-width:0.1"
         id="path60" /><path
         d="m 1851.11,123.1 h -63.83 v 373.97 h 63.83 V 123.1"
         style="fill:#6b2d97;fill-opacity:1;fill-rule:nonzero;stroke:none;stroke-width:0.1"
         id="path62" /><path
         d="m 1662.7,845.71 c 0,-37.76 -10.65,-73.03 -29.11,-102.96 h -334.71 c -18.46,29.93 -29.11,65.2 -29.11,102.96 0,108.51 196.47,196.47 196.47,196.47 0,0 196.46,-87.96 196.46,-196.47"
         style="fill:#3e2871;fill-opacity:1;fill-rule:nonzero;stroke:none;stroke-width:0.1"
         id="path64" /><path
         d="m 1967.76,890.88 c 0,-16.7 -4.71,-32.3 -12.87,-45.54 h -148.04 c -8.16,13.24 -12.87,28.84 -12.87,45.54 0,47.99 86.89,86.89 86.89,86.89 0,0 86.89,-38.9 86.89,-86.89"
         style="fill:#3e2871;fill-opacity:1;fill-rule:nonzero;stroke:none;stroke-width:0.1"
         id="path66" /><path
         d="m 1954.86,741.19 h -150.98 v 104.53 h 150.98 V 741.19"
         style="fill:#6b2d97;fill-opacity:1;fill-rule:nonzero;stroke:none;stroke-width:0.1"
         id="path68" /><path
         d="m 1178.02,890.88 c 0,-16.7 -4.71,-32.3 -12.88,-45.54 h -148.03 c -8.17,13.24 -12.88,28.84 -12.88,45.54 0,47.99 86.9,86.89 86.9,86.89 0,0 86.89,-38.9 86.89,-86.89"
         style="fill:#3e2871;fill-opacity:1;fill-rule:nonzero;stroke:none;stroke-width:0.1"
         id="path70" /><path
         d="m 1165.11,741.19 h -150.98 v 104.53 h 150.98 V 741.19"
         style="fill:#6b2d97;fill-opacity:1;fill-rule:nonzero;stroke:none;stroke-width:0.1"
         id="path72" /><path
         d="M 1949.61,579.86 V 541.15 H 708.444 v 38.92 h 650.636 v -0.21 h 590.53"
         style="fill:#3e2871;fill-opacity:1;fill-rule:nonzero;stroke:none;stroke-width:0.1"
         id="path74" /><path
         d="M 1951.11,458.58 H 707.58 v 38.71 h 1243.53 v -38.71"
         style="fill:#3e2871;fill-opacity:1;fill-rule:nonzero;stroke:none;stroke-width:0.1"
         id="path76" /><path
         d="m 1487.72,1029.49 c -0.93,0.7 -1.91,1.36 -2.91,1.98 -5.92,3.64 -12.9,5.74 -20.36,5.74 -6.05,0 -11.78,-1.38 -16.89,-3.85 -1.55,-0.74 -3.05,-1.59 -4.47,-2.53 l 6.24,22.58 h 31.65 l 6.74,-23.92"
         style="fill:#6b2d97;fill-opacity:1;fill-rule:nonzero;stroke:none;stroke-width:0.1"
         id="path78" /><path
         d="m 1477.88,1053.41 h -25.22 l 8.34,46.82 c 2.78,-1.54 5.8,-2.68 9,-3.36 l 7.88,-43.46"
         style="fill:#3e2871;fill-opacity:1;fill-rule:nonzero;stroke:none;stroke-width:0.1"
         id="path80" /><path
         d="m 1509.53,1128.9 c 0,-18.08 -14.65,-32.74 -32.73,-32.74 -2.34,0 -4.61,0.25 -6.8,0.71 -3.2,0.68 -6.22,1.82 -9,3.36 -10.1,5.57 -16.93,16.32 -16.93,28.67 0,15.46 10.72,28.42 25.14,31.84 -5.98,-5.11 -9.84,-13.21 -9.84,-22.33 0,-6.55 2,-12.58 5.33,-17.34 0.38,-0.55 0.78,-1.08 1.19,-1.59 4.55,-5.58 11.06,-9.07 18.3,-9.07 12.82,0 23.37,10.96 24.68,25.03 0.43,-2.12 0.66,-4.3 0.66,-6.54"
         style="fill:#6b2d97;fill-opacity:1;fill-rule:nonzero;stroke:none;stroke-width:0.1"
         id="path82" /><path
         d="m 985.673,655.74 c 0,-28.66 -8.087,-55.44 -22.1,-78.17 H 709.44 c -14.014,22.73 -22.101,49.51 -22.101,78.17 0,82.39 149.17,149.18 149.17,149.18 0,0 149.164,-66.79 149.164,-149.18"
         style="fill:#3e2871;fill-opacity:1;fill-rule:nonzero;stroke:none;stroke-width:0.1"
         id="path84" /><path
         d="m 852.054,795.28 c -0.647,0.48 -1.324,0.94 -2.015,1.37 -4.101,2.52 -8.927,3.97 -14.091,3.97 -4.188,0 -8.155,-0.95 -11.691,-2.66 -1.072,-0.52 -2.106,-1.1 -3.091,-1.75 l 4.318,15.62 h 21.903 l 4.667,-16.55"
         style="fill:#6b2d97;fill-opacity:1;fill-rule:nonzero;stroke:none;stroke-width:0.1"
         id="path86" /><path
         d="m 845.24,811.83 h -17.449 l 5.768,32.4 c 1.923,-1.06 4.015,-1.86 6.227,-2.32 l 5.454,-30.08"
         style="fill:#3e2871;fill-opacity:1;fill-rule:nonzero;stroke:none;stroke-width:0.1"
         id="path88" /><path
         d="m 867.143,864.07 c 0,-12.51 -10.14,-22.65 -22.651,-22.65 -1.614,0 -3.189,0.17 -4.706,0.49 -2.212,0.46 -4.304,1.26 -6.227,2.32 -6.985,3.85 -11.714,11.29 -11.714,19.84 0,10.7 7.42,19.67 17.4,22.04 -4.14,-3.54 -6.811,-9.15 -6.811,-15.45 0,-4.54 1.381,-8.71 3.69,-12.01 0.261,-0.38 0.536,-0.74 0.822,-1.1 3.145,-3.86 7.651,-6.28 12.661,-6.28 8.874,0 16.174,7.59 17.082,17.33 0.299,-1.47 0.454,-2.98 0.454,-4.53"
         style="fill:#6b2d97;fill-opacity:1;fill-rule:nonzero;stroke:none;stroke-width:0.1"
         id="path90" /><path
         d="m 2118.38,799.4 c -0.64,0.48 -1.32,0.94 -2.01,1.37 -4.1,2.52 -8.93,3.97 -14.09,3.97 -4.19,0 -8.16,-0.95 -11.69,-2.66 -1.08,-0.51 -2.11,-1.1 -3.09,-1.75 l 4.31,15.62 h 21.91 l 4.66,-16.55"
         style="fill:#6b2d97;fill-opacity:1;fill-rule:nonzero;stroke:none;stroke-width:0.1"
         id="path92" /><path
         d="m 2111.57,815.95 h -17.45 l 5.77,32.4 c 1.92,-1.06 4.01,-1.85 6.23,-2.32 l 5.45,-30.08"
         style="fill:#3e2871;fill-opacity:1;fill-rule:nonzero;stroke:none;stroke-width:0.1"
         id="path94" /><path
         d="m 2133.47,868.19 c 0,-12.51 -10.14,-22.65 -22.65,-22.65 -1.61,0 -3.19,0.17 -4.7,0.49 -2.22,0.47 -4.31,1.26 -6.23,2.32 -6.99,3.86 -11.72,11.3 -11.72,19.84 0,10.7 7.42,19.68 17.4,22.04 -4.13,-3.54 -6.81,-9.14 -6.81,-15.45 0,-4.54 1.39,-8.71 3.69,-12.01 0.27,-0.37 0.54,-0.74 0.83,-1.09 3.14,-3.86 7.65,-6.28 12.66,-6.28 8.87,0 16.17,7.59 17.08,17.32 0.3,-1.46 0.45,-2.98 0.45,-4.53"
         style="fill:#6b2d97;fill-opacity:1;fill-rule:nonzero;stroke:none;stroke-width:0.1"
         id="path96" /><path
         d="m 1112.68,965.17 c -0.86,0.64 -1.75,1.24 -2.66,1.8 -5.4,3.32 -11.76,5.24 -18.56,5.24 -5.51,0 -10.74,-1.26 -15.39,-3.51 -1.42,-0.68 -2.78,-1.45 -4.08,-2.31 l 5.69,20.58 h 28.85 l 6.15,-21.8"
         style="fill:#6b2d97;fill-opacity:1;fill-rule:nonzero;stroke:none;stroke-width:0.1"
         id="path98" /><path
         d="m 1103.7,986.97 h -22.98 l 7.6,42.68 c 2.53,-1.4 5.28,-2.45 8.2,-3.06 l 7.18,-39.62"
         style="fill:#3e2871;fill-opacity:1;fill-rule:nonzero;stroke:none;stroke-width:0.1"
         id="path100" /><path
         d="m 1132.55,1055.78 c 0,-16.48 -13.36,-29.84 -29.83,-29.84 -2.13,0 -4.2,0.23 -6.2,0.65 -2.92,0.61 -5.67,1.66 -8.2,3.06 -9.2,5.07 -15.43,14.87 -15.43,26.13 0,14.09 9.77,25.91 22.92,29.03 -5.46,-4.67 -8.98,-12.05 -8.98,-20.36 0,-5.97 1.82,-11.47 4.87,-15.81 0.34,-0.5 0.7,-0.98 1.08,-1.45 4.14,-5.08 10.08,-8.27 16.67,-8.27 11.69,0 21.31,10 22.5,22.82 0.4,-1.93 0.6,-3.92 0.6,-5.96"
         style="fill:#6b2d97;fill-opacity:1;fill-rule:nonzero;stroke:none;stroke-width:0.1"
         id="path102" /><path
         d="m 1901.83,966.55 c -0.85,0.63 -1.74,1.24 -2.65,1.8 -5.4,3.32 -11.76,5.23 -18.56,5.23 -5.51,0 -10.74,-1.25 -15.4,-3.5 -1.41,-0.68 -2.77,-1.45 -4.07,-2.31 l 5.69,20.58 h 28.85 l 6.14,-21.8"
         style="fill:#6b2d97;fill-opacity:1;fill-rule:nonzero;stroke:none;stroke-width:0.1"
         id="path104" /><path
         d="m 1892.86,988.35 h -22.98 l 7.6,42.67 c 2.53,-1.4 5.28,-2.44 8.2,-3.06 l 7.18,-39.61"
         style="fill:#3e2871;fill-opacity:1;fill-rule:nonzero;stroke:none;stroke-width:0.1"
         id="path106" /><path
         d="m 1921.71,1057.15 c 0,-16.48 -13.36,-29.83 -29.84,-29.83 -2.12,0 -4.2,0.22 -6.19,0.64 -2.92,0.62 -5.67,1.66 -8.2,3.06 -9.2,5.08 -15.43,14.88 -15.43,26.13 0,14.1 9.77,25.91 22.91,29.03 -5.45,-4.66 -8.97,-12.05 -8.97,-20.35 0,-5.98 1.82,-11.47 4.86,-15.82 0.35,-0.49 0.71,-0.98 1.09,-1.44 4.14,-5.08 10.07,-8.27 16.67,-8.27 11.69,0 21.3,9.99 22.5,22.81 0.39,-1.92 0.6,-3.92 0.6,-5.96"
         style="fill:#6b2d97;fill-opacity:1;fill-rule:nonzero;stroke:none;stroke-width:0.1"
         id="path108" /><path
         d="m 1953.76,693.6 h -946.53 v 47.59 h 946.53 V 693.6"
         style="fill:#3e2871;fill-opacity:1;fill-rule:nonzero;stroke:none;stroke-width:0.1"
         id="path110" /><path
         d="M 2182.01,418.47 V 122.16 h -160.52 v 296.31 c 0,44.33 35.93,80.27 80.26,80.27 22.16,0 42.23,-8.99 56.75,-23.51 14.53,-14.53 23.51,-34.6 23.51,-56.76"
         style="fill:#ccc5b9;fill-opacity:1;fill-rule:nonzero;stroke:none;stroke-width:0.1"
         id="path112" /><path
         d="m 2252,658.95 c 0,-28.67 -8.08,-55.44 -22.1,-78.17 h -254.13 c -14.01,22.73 -22.1,49.5 -22.1,78.17 0,82.39 149.17,149.17 149.17,149.17 0,0 149.16,-66.78 149.16,-149.17"
         style="fill:#3e2871;fill-opacity:1;fill-rule:nonzero;stroke:none;stroke-width:0.1"
         id="path114" /><path
         d="m 1123.37,740.8 h -60.01 v 59.42 c 0,12.08 9.8,21.88 21.89,21.88 h 16.23 c 12.09,0 21.89,-9.8 21.89,-21.88 V 740.8"
         style="fill:#100f0d;fill-opacity:1;fill-rule:nonzero;stroke:none;stroke-width:0.1"
         id="path116" /><path
         d="m 1909.24,740.8 h -60.01 v 59.42 c 0,12.08 9.8,21.88 21.89,21.88 h 16.23 c 12.09,0 21.89,-9.8 21.89,-21.88 V 740.8"
         style="fill:#100f0d;fill-opacity:1;fill-rule:nonzero;stroke:none;stroke-width:0.1"
         id="path118" /><path
         d="m 1986.65,1544.44 c -4.15,9.59 3.59,21.1 13.54,24.3 9.95,3.19 20.82,0.2 30.39,-4 -1.14,14.42 -2.16,29.53 3.66,42.77 7.09,16.12 23.7,26.77 41.06,29.74 17.36,2.96 35.29,-0.92 51.55,-7.68 1.16,21.28 3.1,44.47 17.69,60 7.81,8.32 18.41,13.4 28.87,17.97 28.05,12.23 57.46,22.24 87.96,24.79 30.49,2.55 62.32,-2.84 88.05,-19.39 25.74,-16.57 44.48,-45.22 44.98,-75.82 2.19,19.56 23.97,33.98 43.13,29.51 19.17,-4.47 32.25,-25.73 28.85,-45.11 10.28,4.36 21.18,8.81 32.26,7.39 12.76,-1.64 23.26,-10.77 31.57,-20.58 5.44,-6.41 10.43,-13.52 12.44,-21.68 2.02,-8.16 0.56,-17.6 -5.45,-23.47 -3.62,-3.54 -8.46,-5.48 -13.25,-7.09 -39.27,-13.19 -81.86,-9.41 -123.29,-9.24 -91.71,0.39 -179.31,1.6 -275.49,-9.66 -35.76,-4.19 -45.43,-5.31 -76.66,-0.8 -10.43,1.5 -57.81,-1.31 -61.86,8.05"
         style="fill:#eb5e28;fill-opacity:0.5;fill-rule:nonzero;stroke:none;stroke-width:0.1"
         id="path120" /><path
         d="m 147.647,472.93 c -2.848,6.59 2.467,14.49 9.296,16.68 6.828,2.2 14.288,0.14 20.855,-2.74 -0.777,9.9 -1.479,20.27 2.516,29.35 4.865,11.07 16.268,18.38 28.181,20.42 11.913,2.03 24.224,-0.64 35.384,-5.27 0.797,14.6 2.128,30.52 12.14,41.18 5.365,5.71 12.635,9.2 19.817,12.33 19.252,8.4 39.443,15.27 60.374,17.02 20.931,1.75 42.776,-1.95 60.438,-13.31 17.663,-11.37 30.525,-31.04 30.873,-52.04 1.499,13.42 16.452,23.32 29.604,20.25 13.153,-3.06 22.132,-17.66 19.798,-30.96 7.061,2.99 14.542,6.05 22.148,5.07 8.756,-1.12 15.961,-7.39 21.67,-14.12 3.731,-4.4 7.154,-9.28 8.537,-14.88 1.382,-5.61 0.381,-12.08 -3.746,-16.12 -2.479,-2.42 -5.805,-3.75 -9.091,-4.86 -26.954,-9.05 -56.187,-6.46 -84.621,-6.34 -62.955,0.27 -123.08,1.1 -189.095,-6.63 -24.545,-2.88 -31.185,-3.64 -52.615,-0.55 -7.158,1.03 -39.682,-0.9 -42.463,5.52"
         style="fill:#eb5e28;fill-opacity:0.5;fill-rule:nonzero;stroke:none;stroke-width:0.1"
         id="path122" /><path
         d="m 2265.29,427.27 c -2.85,6.58 2.47,14.49 9.3,16.68 6.82,2.19 14.28,0.14 20.85,-2.74 -0.78,9.89 -1.48,20.26 2.52,29.35 4.86,11.06 16.27,18.38 28.18,20.41 11.91,2.04 24.22,-0.63 35.38,-5.27 0.8,14.61 2.13,30.52 12.14,41.19 5.37,5.71 12.64,9.19 19.82,12.33 19.25,8.4 39.44,15.26 60.37,17.01 20.93,1.75 42.78,-1.94 60.44,-13.31 17.66,-11.36 30.53,-31.03 30.87,-52.03 1.5,13.42 16.46,23.32 29.61,20.25 13.15,-3.07 22.13,-17.66 19.8,-30.96 7.06,2.99 14.54,6.04 22.14,5.07 8.76,-1.12 15.96,-7.39 21.67,-14.13 3.73,-4.4 7.16,-9.28 8.54,-14.88 1.38,-5.6 0.38,-12.08 -3.75,-16.11 -2.47,-2.42 -5.8,-3.76 -9.09,-4.86 -26.95,-9.06 -56.18,-6.46 -84.62,-6.34 -62.95,0.27 -123.08,1.09 -189.09,-6.64 -24.55,-2.87 -31.19,-3.64 -52.62,-0.55 -7.16,1.04 -39.68,-0.9 -42.46,5.53"
         style="fill:#eb5e28;fill-opacity:0.7;fill-rule:nonzero;stroke:none;stroke-width:0.1"
         id="path124" /><path
         d="m 1563.54,1607.72 c 0,-2.32 -0.08,-4.63 -0.25,-6.9 h -3.89 v 0.02 h -168.38 c -0.18,2.27 -0.26,4.56 -0.26,6.88 0,48.89 86.39,88.52 86.39,88.52 0,0 86.39,-39.63 86.39,-88.52"
         style="fill:#4c2778;fill-opacity:1;fill-rule:nonzero;stroke:none;stroke-width:0.1"
         id="path126" /><path
         d="m 1563.54,1405.7 c 0,-0.16 0,-0.33 0,-0.5 -0.59,-48.65 -86.39,-88.01 -86.39,-88.01 0,0 -85.28,39.12 -86.38,87.57 -0.01,0.31 -0.01,0.63 -0.01,0.94 0,4.09 0.27,8.1 0.79,12.04 h 169.67 c 0.54,0 1.06,-0.07 1.56,-0.2 0.51,-3.87 0.76,-7.82 0.76,-11.84"
         style="fill:#4c2778;fill-opacity:1;fill-rule:nonzero;stroke:none;stroke-width:0.1"
         id="path128" /><path
         d="m 1563.54,1600.84 v -207.35 h -172.52 v 207.35 h 172.52"
         style="fill:#4c2778;fill-opacity:1;fill-rule:nonzero;stroke:none;stroke-width:0.1"
         id="path130" /><path
         d="m 1575.44,1593.96 c 0,-1.89 -0.76,-3.6 -2,-4.85 -1.24,-1.23 -2.96,-2 -4.85,-2 H 1385.6 c -3.79,0 -6.85,3.07 -6.85,6.85 0,1.9 0.76,3.61 2,4.85 1.24,1.24 2.96,2.01 4.85,2.01 h 182.99 c 3.79,0 6.85,-3.07 6.85,-6.86"
         style="fill:#6d2b96;fill-opacity:1;fill-rule:nonzero;stroke:none;stroke-width:0.1"
         id="path132" /><path
         d="m 1571.91,1411.25 c 0,-1.8 -0.73,-3.42 -1.9,-4.59 -0.63,-0.63 -1.38,-1.13 -2.22,-1.46 -0.73,-0.28 -1.53,-0.44 -2.37,-0.44 h -174.65 c -3.56,0.03 -6.44,2.92 -6.44,6.49 0,1.79 0.73,3.41 1.9,4.59 1.18,1.17 2.8,1.9 4.59,1.9 h 174.6 c 0.54,0 1.08,-0.07 1.59,-0.2 2.81,-0.71 4.9,-3.26 4.9,-6.29"
         style="fill:#6d2b96;fill-opacity:1;fill-rule:nonzero;stroke:none;stroke-width:0.1"
         id="path134" /><path
         d="m 1567.17,1380.51 h -178.11 c -2.61,0 -4.73,2.12 -4.73,4.74 v 3.51 c 0,2.61 2.12,4.73 4.73,4.73 h 178.11 c 2.62,0 4.74,-2.12 4.74,-4.73 v -3.51 c 0,-2.62 -2.12,-4.74 -4.74,-4.74"
         style="fill:#6d2b96;fill-opacity:1;fill-rule:nonzero;stroke:none;stroke-width:0.1"
         id="path136" /><path
         d="m 1427.41,1424.71 h -24.53 v 139.58 c 0,4.94 4.01,8.95 8.95,8.95 h 6.63 c 4.94,0 8.95,-4.01 8.95,-8.95 v -139.58"
         style="fill:#ccc5b9;fill-opacity:1;fill-rule:nonzero;stroke:none;stroke-width:0.1"
         id="path138" /><path
         d="m 1552.84,1424.71 h -24.53 v 139.58 c 0,4.94 4,8.95 8.94,8.95 h 6.64 c 4.94,0 8.95,-4.01 8.95,-8.95 v -139.58"
         style="fill:#ccc5b9;fill-opacity:1;fill-rule:nonzero;stroke:none;stroke-width:0.1"
         id="path140" /><path
         d="m 1473.67,1424.71 h -37.88 v 134.71 c 0,7.63 6.19,13.82 13.82,13.82 h 10.24 c 7.63,0 13.82,-6.19 13.82,-13.82 v -134.71"
         style="fill:#ccc5b9;fill-opacity:1;fill-rule:nonzero;stroke:none;stroke-width:0.1"
         id="path142" /><path
         d="m 1519.92,1424.71 h -37.87 v 134.71 c 0,7.63 6.19,13.82 13.81,13.82 h 10.25 c 7.63,0 13.81,-6.19 13.81,-13.82 v -134.71"
         style="fill:#ccc5b9;fill-opacity:1;fill-rule:nonzero;stroke:none;stroke-width:0.1"
         id="path144" /><path
         d="m 1493.4,1711.52 c 0,-8.44 -6.84,-15.28 -15.28,-15.28 -8.44,0 -15.28,6.84 -15.28,15.28 0,8.44 6.84,15.28 15.28,15.28 8.44,0 15.28,-6.84 15.28,-15.28"
         style="fill:#6d2b96;fill-opacity:1;fill-rule:nonzero;stroke:none;stroke-width:0.1"
         id="path146" /><path
         d="m 1481.31,1757.17 h -6.7 v 29.09 c 0,1.35 1.09,2.45 2.44,2.45 h 1.81 c 1.35,0 2.45,-1.1 2.45,-2.45 v -29.09"
         style="fill:#4c2778;fill-opacity:1;fill-rule:nonzero;stroke:none;stroke-width:0.1"
         id="path148" /><path
         d="m 1489.08,1736.57 c 0,-6.39 -5.18,-11.57 -11.57,-11.57 -6.39,0 -11.57,5.18 -11.57,11.57 0,6.39 5.18,11.57 11.57,11.57 6.39,0 11.57,-5.18 11.57,-11.57"
         style="fill:#6d2b96;fill-opacity:1;fill-rule:nonzero;stroke:none;stroke-width:0.1"
         id="path150" /><path
         d="m 1484.35,1753.93 c 0,-3.63 -2.94,-6.57 -6.57,-6.57 -3.63,0 -6.57,2.94 -6.57,6.57 0,3.63 2.94,6.58 6.57,6.58 3.63,0 6.57,-2.95 6.57,-6.58"
         style="fill:#6d2b96;fill-opacity:1;fill-rule:nonzero;stroke:none;stroke-width:0.1"
         id="path152" /><path
         d="m 1465.26,1313.39 c 0,7.14 5.78,12.92 12.91,12.92 7.14,0 12.92,-5.78 12.92,-12.92 0,-7.13 -5.78,-12.92 -12.92,-12.92 -7.13,0 -12.91,5.79 -12.91,12.92"
         style="fill:#6d2b96;fill-opacity:1;fill-rule:nonzero;stroke:none;stroke-width:0.1"
         id="path154" /><path
         d="m 1475.48,1274.79 h 5.66 v -24.59 c 0,-1.14 -0.92,-2.07 -2.06,-2.07 h -1.54 c -1.14,0 -2.06,0.93 -2.06,2.07 v 24.59"
         style="fill:#4c2778;fill-opacity:1;fill-rule:nonzero;stroke:none;stroke-width:0.1"
         id="path156" /><path
         d="m 1468.9,1292.21 c 0,5.41 4.38,9.79 9.79,9.79 5.4,0 9.78,-4.38 9.78,-9.79 0,-5.4 -4.38,-9.78 -9.78,-9.78 -5.41,0 -9.79,4.38 -9.79,9.78"
         style="fill:#6d2b96;fill-opacity:1;fill-rule:nonzero;stroke:none;stroke-width:0.1"
         id="path158" /><path
         d="m 1472.9,1277.53 c 0,3.07 2.49,5.56 5.56,5.56 3.07,0 5.56,-2.49 5.56,-5.56 0,-3.07 -2.49,-5.55 -5.56,-5.55 -3.07,0 -5.56,2.48 -5.56,5.55"
         style="fill:#6d2b96;fill-opacity:1;fill-rule:nonzero;stroke:none;stroke-width:0.1"
         id="path160" /><path
         d="m 1842.12,1706.09 c 0,-2.79 -0.1,-5.55 -0.31,-8.28 h -4.66 v 0.02 h -201.87 c -0.21,2.73 -0.31,5.48 -0.31,8.26 0,58.61 103.58,106.12 103.58,106.12 0,0 103.57,-47.51 103.57,-106.12"
         style="fill:#4c2778;fill-opacity:1;fill-rule:nonzero;stroke:none;stroke-width:0.1"
         id="path162" /><path
         d="m 1842.12,1463.89 c 0,-0.19 0,-0.4 0,-0.6 -0.71,-58.33 -103.57,-105.52 -103.57,-105.52 0,0 -102.24,46.91 -103.57,104.99 0,0.37 -0.01,0.75 -0.01,1.13 0,4.9 0.32,9.71 0.95,14.43 h 203.42 c 0.64,0 1.27,-0.08 1.86,-0.24 0.61,-4.64 0.92,-9.37 0.92,-14.19"
         style="fill:#4c2778;fill-opacity:1;fill-rule:nonzero;stroke:none;stroke-width:0.1"
         id="path164" /><path
         d="m 1842.12,1697.83 v -248.57 h -206.83 v 248.57 h 206.83"
         style="fill:#4c2778;fill-opacity:1;fill-rule:nonzero;stroke:none;stroke-width:0.1"
         id="path166" /><path
         d="m 1856.39,1689.59 c 0,-2.27 -0.92,-4.32 -2.41,-5.81 -1.49,-1.48 -3.54,-2.4 -5.81,-2.4 h -219.39 c -4.53,0 -8.21,3.68 -8.21,8.21 0,2.28 0.92,4.33 2.41,5.82 1.48,1.48 3.54,2.4 5.8,2.4 h 219.39 c 4.54,0 8.22,-3.68 8.22,-8.22"
         style="fill:#6d2b96;fill-opacity:1;fill-rule:nonzero;stroke:none;stroke-width:0.1"
         id="path168" /><path
         d="m 1852.15,1470.54 c 0,-2.15 -0.88,-4.09 -2.28,-5.5 -0.76,-0.75 -1.65,-1.35 -2.66,-1.75 -0.88,-0.34 -1.84,-0.53 -2.84,-0.53 h -209.39 c -4.26,0.03 -7.71,3.51 -7.71,7.78 0,2.15 0.87,4.09 2.27,5.5 1.42,1.41 3.36,2.28 5.51,2.28 h 209.32 c 0.65,0 1.29,-0.08 1.9,-0.24 3.37,-0.84 5.88,-3.9 5.88,-7.54"
         style="fill:#6d2b96;fill-opacity:1;fill-rule:nonzero;stroke:none;stroke-width:0.1"
         id="path170" /><path
         d="m 1846.47,1433.69 h -213.53 c -3.13,0 -5.67,2.55 -5.67,5.68 v 4.21 c 0,3.14 2.54,5.68 5.67,5.68 h 213.53 c 3.14,0 5.68,-2.54 5.68,-5.68 v -4.21 c 0,-3.13 -2.54,-5.68 -5.68,-5.68"
         style="fill:#6d2b96;fill-opacity:1;fill-rule:nonzero;stroke:none;stroke-width:0.1"
         id="path172" /><path
         d="m 1678.91,1486.68 h -29.4 v 167.34 c 0,5.92 4.8,10.73 10.72,10.73 h 7.96 c 5.92,0 10.72,-4.81 10.72,-10.73 v -167.34"
         style="fill:#ccc5b9;fill-opacity:1;fill-rule:nonzero;stroke:none;stroke-width:0.1"
         id="path174" /><path
         d="m 1829.28,1486.68 h -29.4 v 167.34 c 0,5.92 4.8,10.73 10.72,10.73 h 7.96 c 5.92,0 10.72,-4.81 10.72,-10.73 v -167.34"
         style="fill:#ccc5b9;fill-opacity:1;fill-rule:nonzero;stroke:none;stroke-width:0.1"
         id="path176" /><path
         d="m 1734.37,1486.68 h -45.41 v 161.51 c 0,9.14 7.42,16.56 16.57,16.56 h 12.28 c 9.15,0 16.56,-7.42 16.56,-16.56 v -161.51"
         style="fill:#ccc5b9;fill-opacity:1;fill-rule:nonzero;stroke:none;stroke-width:0.1"
         id="path178" /><path
         d="m 1789.83,1486.68 h -45.41 v 161.51 c 0,9.14 7.41,16.56 16.56,16.56 h 12.29 c 9.14,0 16.56,-7.42 16.56,-16.56 v -161.51"
         style="fill:#ccc5b9;fill-opacity:1;fill-rule:nonzero;stroke:none;stroke-width:0.1"
         id="path180" /><path
         d="m 1758.03,1830.53 c 0,-10.12 -8.21,-18.32 -18.32,-18.32 -10.12,0 -18.32,8.2 -18.32,18.32 0,10.12 8.2,18.32 18.32,18.32 10.11,0 18.32,-8.2 18.32,-18.32"
         style="fill:#6d2b96;fill-opacity:1;fill-rule:nonzero;stroke:none;stroke-width:0.1"
         id="path182" /><path
         d="m 1752.85,1860.56 c 0,-7.66 -6.21,-13.87 -13.87,-13.87 -7.67,0 -13.88,6.21 -13.88,13.87 0,7.67 6.21,13.88 13.88,13.88 7.66,0 13.87,-6.21 13.87,-13.88"
         style="fill:#6d2b96;fill-opacity:1;fill-rule:nonzero;stroke:none;stroke-width:0.1"
         id="path186" /><path
         d="m 1747.18,1881.38 c 0,-4.35 -3.53,-7.88 -7.88,-7.88 -4.35,0 -7.88,3.53 -7.88,7.88 0,4.35 3.53,7.88 7.88,7.88 4.35,0 7.88,-3.53 7.88,-7.88"
         style="fill:#6d2b96;fill-opacity:1;fill-rule:nonzero;stroke:none;stroke-width:0.1"
         id="path188" /><path
         d="m 1724.29,1353.22 c 0,8.56 6.93,15.49 15.48,15.49 8.56,0 15.49,-6.93 15.49,-15.49 0,-8.55 -6.93,-15.48 -15.49,-15.48 -8.55,0 -15.48,6.93 -15.48,15.48"
         style="fill:#6d2b96;fill-opacity:1;fill-rule:nonzero;stroke:none;stroke-width:0.1"
         id="path190" /><path
         d="m 1736.54,1306.95 h 6.79 v -29.49 c 0,-1.36 -1.11,-2.47 -2.47,-2.47 h -1.84 c -1.37,0 -2.48,1.11 -2.48,2.47 v 29.49"
         style="fill:#4c2778;fill-opacity:1;fill-rule:nonzero;stroke:none;stroke-width:0.1"
         id="path192" /><path
         d="m 1728.66,1327.83 c 0,6.48 5.25,11.73 11.73,11.73 6.48,0 11.73,-5.25 11.73,-11.73 0,-6.48 -5.25,-11.73 -11.73,-11.73 -6.48,0 -11.73,5.25 -11.73,11.73"
         style="fill:#6d2b96;fill-opacity:1;fill-rule:nonzero;stroke:none;stroke-width:0.1"
         id="path194" /><path
         d="m 1733.45,1310.23 c 0,3.68 2.99,6.67 6.67,6.67 3.68,0 6.66,-2.99 6.66,-6.67 0,-3.68 -2.98,-6.66 -6.66,-6.66 -3.68,0 -6.67,2.98 -6.67,6.66"
         style="fill:#6d2b96;fill-opacity:1;fill-rule:nonzero;stroke:none;stroke-width:0.1"
         id="path196" /><path
         d="m 1788.21,238.59 c 0,0 -127.03,38.37 -187.9,-50.29 0,0 -83.36,0 -58.22,-39.69 25.14,-39.7 137.62,-23.82 137.62,-23.82 0,0 17.2,-48.9599 97.92,-27.79 0,0 82.04,-46.3102 168.05,5.29 0,0 41.02,-25.14 72.77,-1.32 0,0 111.16,-56.9001 213.04,10.59 0,0 116.45,-41.0299 181.29,17.2 0,0 142.91,-8.19 74.1,33.61 -68.81,41.81 -79.4,16.67 -79.4,16.67 0,0 -44.99,60.87 -108.5,43.67 0,0 -3.97,87.33 -134.97,75.43 0,0 -14.56,134.97 -169.37,88.65 0,0 -133.65,1.33 -125.71,-103.21 0,0 -47.64,23.82 -80.72,-44.99"
         style="fill:#eb5e28;fill-opacity:1;fill-rule:nonzero;stroke:none;stroke-width:0.1"
         id="path198" /><path
         d="m 2412.78,128.76 c -64.84,-58.2198 -181.29,-17.21 -181.29,-17.21 -101.89,-67.4801 -213.04,-10.58 -213.04,-10.58 -31.76,-23.8098 -72.77,1.33 -72.77,1.33 -86.01,-51.6199 -168.05,-5.3 -168.05,-5.3 -80.72,-21.1699 -97.92,27.79 -97.92,27.79 0,0 -112.47,-15.88 -137.62,23.82 -7.49,11.83 -5.35,20.15 1.36,25.97 27.58,-37.18 136.26,-21.84 136.26,-21.84 0,0 17.2,-48.97 97.92,-27.79 0,0 82.04,-46.3199 168.05,5.29 0,0 41.01,-25.14 72.77,-1.32 0,0 111.15,-56.9001 213.04,10.58 0,0 116.45,-41.0199 181.29,17.2 0,0 50.94,-2.91 77.35,3.63 60.85,-39.49 -77.35,-31.57 -77.35,-31.57"
         style="fill:#af471f;fill-opacity:1;fill-rule:nonzero;stroke:none;stroke-width:0.1"
         id="path200" /></g></g></svg>
