<?xml version="1.0" encoding="UTF-8" standalone="no"?>
<!-- Generator: Adobe Illustrator 15.0.0, SVG Export Plug-In . SVG Version: 6.00 Build 0)  -->

<svg
   version="1.0"
   x="0px"
   y="0px"
   width="1400px"
   height="980px"
   viewBox="0 0 1400 980"
   enable-background="new 0 0 1400 980"
   xml:space="preserve"
   id="svg20334"
   sodipodi:docname="telescope_hollow.svg"
   inkscape:version="1.1 (c68e22c387, 2021-05-23)"
   xmlns:inkscape="http://www.inkscape.org/namespaces/inkscape"
   xmlns:sodipodi="http://sodipodi.sourceforge.net/DTD/sodipodi-0.dtd"
   xmlns="http://www.w3.org/2000/svg"
   xmlns:svg="http://www.w3.org/2000/svg"><defs
   id="defs20338" /><sodipodi:namedview
   id="namedview20336"
   pagecolor="#ffffff"
   bordercolor="#999999"
   borderopacity="1"
   inkscape:pageshadow="0"
   inkscape:pageopacity="0"
   inkscape:pagecheckerboard="0"
   showgrid="false"
   inkscape:zoom="0.39744898"
   inkscape:cx="700.71887"
   inkscape:cy="489.37099"
   inkscape:window-width="1920"
   inkscape:window-height="991"
   inkscape:window-x="-9"
   inkscape:window-y="-9"
   inkscape:window-maximized="1"
   inkscape:current-layer="layer3" />


<g
   inkscape:groupmode="layer"
   id="layer3"
   inkscape:label="hollow"
   style="display:inline"><g
     id="g17177"
     style="display:inline"
     transform="matrix(2.2055442,0,0,2.2055442,-1782.9336,-741.67623)"><path
       fill-rule="evenodd"
       clip-rule="evenodd"
       fill="#624d39"
       d="m 992.949,374.784 c 0.706,0 1.413,0 2.119,0 0.483,0.828 2.286,0.338 3.029,0.907 -0.106,2.115 -0.254,4.189 -1.817,4.846 -0.592,-2.044 -0.409,-4.185 -2.12,-4.542 -3.577,-0.749 -6.372,9.776 -3.028,10.6 2.765,0.68 2.473,-3.15 4.542,-3.332 1.336,0.239 -0.282,1.376 -0.606,1.817 -0.636,0.868 -1.421,1.561 -1.816,2.12 -4.058,1.322 -6.465,-1.612 -6.662,-4.542 -0.281,-4.158 3.506,-7.101 6.359,-7.874 z"
       id="path17091" /><path
       fill-rule="evenodd"
       clip-rule="evenodd"
       fill="#624d39"
       d="m 1239.144,376.298 c 4.895,2.699 1.947,10.646 -2.423,11.809 -3.246,-0.187 -7.247,0.383 -9.993,-0.302 0.139,-1.376 2.265,-0.764 3.028,-1.515 0.993,-2.843 2.05,-5.622 2.726,-8.781 -0.357,-0.854 -2.761,0.338 -2.726,-0.909 -0.049,-0.352 0.067,-0.54 0.303,-0.605 3.338,-0.208 5.747,0.511 9.085,0.303 z m -3.028,0.908 c -1.732,2.609 -2.825,5.856 -3.331,9.69 4.009,1.317 6.527,-4.947 6.056,-9.085 -0.674,-0.437 -1.46,-0.76 -2.725,-0.605 z"
       id="path17093" /><path
       fill-rule="evenodd"
       clip-rule="evenodd"
       fill="#624d39"
       d="m 1056.541,382.354 c 0.125,1.336 -1.188,1.234 -2.119,1.515 -1.232,2.19 -1.809,8.549 -4.24,9.993 -2.2,1.307 -7.356,0.511 -7.874,-2.119 -0.432,-2.203 2.028,-5.338 2.121,-7.572 -0.606,-0.604 -1.89,-0.533 -2.423,-1.211 2.164,-0.954 4.975,-0.855 7.571,-0.908 2.283,-0.048 4.736,-0.21 6.964,0.302 z m -8.479,1.211 c -1.154,2.884 -2.672,5.404 -2.726,9.388 0.732,0.579 2.434,0.191 3.634,0.302 1.985,-2.254 2.589,-5.891 3.331,-9.387 -1.25,-0.691 -2.66,-0.6 -4.239,-0.303 z"
       id="path17095" /><path
       fill-rule="evenodd"
       clip-rule="evenodd"
       fill="#624d39"
       d="m 1312.125,390.531 c 0.27,1.244 1.979,1.047 2.12,2.422 -0.677,4.884 -8.135,4.569 -13.325,3.937 -0.076,-1.49 2.211,-0.617 2.725,-1.515 0.225,-3.511 2.177,-5.293 2.423,-8.781 -0.26,-0.749 -2.108,0.089 -2.423,-0.607 -0.818,-2.021 7.117,-1.673 8.782,-1.211 3.478,0.967 3.822,5.551 -0.302,5.755 z m -3.937,-0.607 c 2.221,0.843 4.578,-0.622 4.24,-3.33 -2.857,-1.373 -3.882,1.242 -4.24,3.33 z m -0.303,1.211 c -0.347,1.573 -1.322,2.515 -1.211,4.544 2.814,1.145 5.027,-0.789 4.542,-3.937 -0.709,-0.604 -1.927,-0.698 -3.331,-0.607 z"
       id="path17097" /><path
       fill-rule="evenodd"
       clip-rule="evenodd"
       fill="#624d39"
       d="m 965.695,388.411 c 0.187,3.721 -0.567,6.5 -0.606,9.993 0.072,0.836 1.708,0.109 1.515,1.211 -1.466,0.655 -4.1,0.14 -6.056,0.304 -0.01,-1.018 1.401,-0.617 1.816,-1.211 0,-0.606 0,-1.211 0,-1.817 -1.348,-0.732 -4.28,-0.452 -4.24,1.211 -0.431,1.34 1.025,0.792 0.909,1.817 -1.902,-0.388 -3.554,0.748 -4.845,0 3.701,-3.668 6.674,-8.063 9.993,-12.113 0.752,-0.047 0.937,0.474 1.514,0.605 z m -5.148,6.661 c 0.804,-10e-4 1.729,0.116 2.119,-0.302 0.626,-3.541 -2.029,-1.313 -2.119,0.302 z"
       id="path17099" /><path
       fill-rule="evenodd"
       clip-rule="evenodd"
       fill="#624d39"
       d="m 923.602,390.531 c -0.221,0.99 -1.693,0.729 -2.422,1.211 -0.945,2.688 -1.999,5.269 -2.726,8.176 0.091,0.818 1.274,0.543 1.515,1.211 -1.364,1.571 -4.485,0.553 -6.965,0.605 -2.624,0.058 -5.366,1.225 -7.268,0 -0.067,-1.279 1.573,-0.85 2.12,-1.515 0.97,-2.461 1.85,-5.014 2.423,-7.872 0.109,-1.219 -1.662,-0.559 -1.817,-1.515 0.419,-1.992 5.968,-1.437 7.268,-0.605 1.758,-0.579 6.948,-2.042 7.872,0.304 z m -10.599,4.541 c 1.312,0 2.624,0 3.937,0 -0.047,-1.662 1.155,-2.074 0.908,-3.937 -3.162,-1.063 -4.271,1.518 -4.845,3.937 z m -1.514,5.755 c 0.914,0.408 2.417,0.408 3.332,0 0.836,-1.083 1.015,-2.822 1.514,-4.241 -3.439,-1.494 -4.959,1.208 -4.846,4.241 z"
       id="path17101" /><path
       fill-rule="evenodd"
       clip-rule="evenodd"
       fill="#624d39"
       d="m 1122.254,407.488 c -0.013,10e-4 0.092,-0.295 0.303,-0.302 12.653,-0.414 12.117,18.889 0.303,18.774 -5.922,-0.056 -11.112,-5.978 -8.781,-13.02 0.743,-2.248 3.911,-5.074 8.175,-5.452 z m -3.634,2.422 c -5.663,3.289 -3.918,14.185 3.937,14.537 3.354,0.15 7.883,-1.954 8.177,-7.268 0.305,-5.533 -3.474,-8.348 -7.874,-8.176 -2.218,0.085 -3.231,0.322 -4.24,0.907 z"
       id="path17103" /><path
       fill-rule="evenodd"
       clip-rule="evenodd"
       fill="#624d39"
       d="m 1128.916,412.94 c 0.444,3.273 -2.91,3.599 -3.936,1.513 -0.172,-2.457 2.607,-2.98 3.936,-1.513 z"
       id="path17105" /><path
       fill-rule="evenodd"
       clip-rule="evenodd"
       fill="#624d39"
       d="m 905.13,412.636 c -0.607,1.815 -0.472,4.374 -1.817,5.452 -0.744,-2.482 -0.787,-4.411 -2.422,-4.846 -4.106,-1.096 -7.78,10.332 -4.24,11.205 2.44,0.601 2.926,-2.104 3.634,-3.937 -0.261,-0.749 -2.108,0.089 -2.423,-0.605 1.564,-1.264 5.344,-0.309 7.874,-0.605 -0.481,0.932 -2.198,0.628 -2.726,1.513 0.097,1.813 -0.727,2.706 -0.909,4.24 -0.711,-0.096 -0.677,-0.937 -1.211,-1.211 -3.514,3.323 -9.322,0.115 -8.782,-5.148 0.394,-3.841 5.212,-6.773 9.085,-6.057 1.035,-0.226 0.385,1.231 1.514,0.909 1.005,0.852 0.949,-1.295 2.423,-0.91 z"
       id="path17107" /><path
       fill-rule="evenodd"
       clip-rule="evenodd"
       fill="#624d39"
       d="m 1145.269,412.636 c -0.045,1.167 -1.686,0.737 -2.12,1.515 0.07,1.584 -1.058,1.97 -0.908,3.633 2.013,-1.117 4.37,-1.889 5.753,-3.633 0.147,-0.954 -1.389,-0.228 -1.514,-0.909 0.463,-0.911 5.323,-1.021 5.753,-0.302 -0.673,0.981 -2.043,1.547 -3.029,2.118 -1.124,0.652 -2.193,1.286 -3.331,1.817 0.522,3.112 1.009,6.26 3.633,7.268 -1.308,1.53 -4.641,0.06 -6.662,0.304 -0.176,-1.085 0.896,-0.921 1.816,-0.909 0,-2.018 -0.684,-3.353 -1.211,-4.844 -2.161,0.261 -2.519,2.325 -3.028,4.239 -0.111,0.919 0.986,0.628 1.514,0.909 -1.212,1.31 -4.771,0.275 -6.964,0.605 -0.023,-1.033 1.122,-0.897 2.12,-0.909 1.605,-2.734 2.555,-6.125 3.331,-9.69 0.166,-1.275 -2.368,0.147 -2.12,-1.211 2.312,-0.521 4.931,-0.311 6.967,-10e-4 z"
       id="path17109" /><path
       fill-rule="evenodd"
       clip-rule="evenodd"
       fill="#624d39"
       d="m 1121.951,414.756 c 3.684,-0.546 3.29,3.359 1.211,3.633 -1.796,0.238 -2.936,-2.136 -1.211,-3.633 z m 0.303,2.726 c 0.505,0 1.01,0 1.514,0 0,-0.505 0,-1.01 0,-1.515 -1.042,-1.066 -2.58,0.472 -1.514,1.515 z"
       id="path17111" /><path
       fill-rule="evenodd"
       clip-rule="evenodd"
       fill="#624d39"
       d="m 1121.346,420.51 c -1.287,1.289 -4.404,0.518 -3.634,-2.12 1.389,-1.391 4.316,-0.431 3.634,2.12 z"
       id="path17113" /><path
       fill-rule="evenodd"
       clip-rule="evenodd"
       fill="#624d39"
       d="m 1134.367,442.011 c 1.005,0.105 0.475,1.744 0.606,2.724 -0.478,-0.632 -0.629,-1.592 -0.606,-2.724 z"
       id="path17115" /><path
       fill-rule="evenodd"
       clip-rule="evenodd"
       fill="#624d39"
       d="m 1050.485,450.187 c -0.548,1.369 -0.108,3.727 -1.514,4.239 0.01,-1.322 -0.263,-2.361 -0.606,-3.33 -1.11,0 -2.221,0 -3.331,0 -0.807,0.807 -0.955,2.273 -1.211,3.633 1.942,0.327 1.676,-1.554 3.33,-1.515 -0.455,1.866 -1.224,3.419 -1.816,5.148 -1.217,0.006 0.01,-2.429 -1.211,-2.422 -2.051,0.069 -1.353,2.887 -2.121,4.239 1.485,1.424 3.159,0.368 4.24,-0.302 1.314,-0.813 1.654,-2.569 3.029,-2.726 -0.463,1.657 -0.78,3.46 -1.514,4.844 -3.984,-0.013 -9.173,0.112 -11.811,-0.302 -0.247,-1.256 1.867,-0.152 2.12,-0.909 2.096,-2.244 2.597,-6.083 3.633,-9.387 -0.327,-0.784 -2.512,0.292 -2.119,-1.211 2.957,-0.499 7.945,-0.499 10.902,0.001 z"
       id="path17117" /><path
       fill-rule="evenodd"
       clip-rule="evenodd"
       fill="#624d39"
       d="m 1190.086,449.883 c 0.171,1.312 -0.012,4.265 -1.514,4.846 1.348,-5.956 -6.356,-4.385 -5.148,0.302 1.671,-0.145 2.321,-1.312 3.029,-2.422 0.767,0.646 -0.683,4.863 -1.817,5.754 0.092,-1.304 0.021,-2.444 -1.211,-2.422 -1.298,0.683 -1.904,3.458 -1.816,4.542 0.189,0.719 1.864,-0.048 2.12,0.605 -1.227,0.61 -7.137,1.653 -7.873,0 4.268,0.117 4.005,-6.339 5.753,-9.69 0.12,-1.13 -1.892,-0.127 -2.12,-0.909 0.94,-1.109 3.334,-0.605 5.148,-0.605 1.896,-0.001 3.844,-0.001 5.449,-0.001 z"
       id="path17119" /><path
       fill-rule="evenodd"
       clip-rule="evenodd"
       fill="#624d39"
       d="m 1199.474,457.757 c -2.18,-3.039 1.115,-6.192 3.332,-3.937 1.619,1.648 -0.284,5.255 -3.332,3.937 z m 0.908,-1.211 c 0.695,-0.238 0.294,-1.875 -0.605,-1.515 0.134,0.573 -0.412,1.827 0.605,1.515 z m 1.212,0 c 0.931,0.463 0.931,-1.977 0,-1.515 0,0.505 0,1.01 0,1.515 z"
       id="path17121" /><path
       fill-rule="evenodd"
       clip-rule="evenodd"
       fill="#624d39"
       d="m 1031.709,454.124 c 2.075,4.199 -3.86,6.135 -4.845,3.028 -0.787,-2.485 2.071,-4.812 4.845,-3.028 z m -3.633,2.12 c 0.738,-0.172 1.558,-0.261 1.514,-1.213 -0.698,-0.661 -1.69,0.091 -1.514,1.213 z m 1.211,1.211 c 0.952,0.144 1.238,-0.378 1.514,-0.909 -0.951,-0.144 -1.238,0.378 -1.514,0.909 z"
       id="path17123" /><path
       fill-rule="evenodd"
       clip-rule="evenodd"
       fill="#624d39"
       d="m 984.772,464.419 c 1.476,-0.717 2.774,-0.067 3.029,1.211 0.968,4.869 -7.905,1.158 -3.029,-1.211 z"
       id="path17125" /><path
       fill-rule="evenodd"
       clip-rule="evenodd"
       fill="#624d39"
       d="m 1005.364,471.384 c 4.979,-0.021 5.242,6.498 2.726,9.69 -0.913,1.157 -3.353,3.142 -4.542,3.332 -2.686,0.426 -5.37,-1.238 -5.753,-3.937 -0.586,-4.118 3.599,-9.068 7.569,-9.085 z m 0,1.211 c -3.405,-0.133 -4.542,6.102 -4.24,9.69 4.918,2.92 7.792,-7.828 4.24,-9.69 z"
       id="path17127" /><path
       fill-rule="evenodd"
       clip-rule="evenodd"
       fill="#624d39"
       d="m 1221.883,477.744 c -0.844,0.854 -1.502,3.227 -1.212,4.24 0.19,0.718 1.865,-0.048 2.121,0.604 -1.821,0.705 -4.944,0.104 -7.269,0.304 3.492,-1.556 3.803,-6.292 4.845,-10.296 -0.278,-0.528 -0.946,-0.668 -1.816,-0.605 2.781,-1.325 10.162,-0.929 10.599,1.817 0.506,3.18 -3.879,3.503 -7.268,3.936 z m 0.304,-1.212 c 1.995,0.521 4.983,-0.422 4.239,-3.633 -2.446,-2.511 -4.211,0.993 -4.239,3.633 z"
       id="path17129" /><path
       fill-rule="evenodd"
       clip-rule="evenodd"
       fill="#624d39"
       d="m 1190.086,496.215 c 0.264,1.273 -1.006,1.013 -1.514,1.515 -0.945,3.394 -1.586,7.093 -3.331,9.69 -2.017,-1.719 -2.32,-5.15 -3.331,-7.874 -1.833,1.096 -1.415,4.44 -2.726,6.057 -0.247,1.173 2.209,1.2 1.514,1.817 -0.623,1.564 -2.718,-0.187 -4.239,0.304 0.079,-1.031 1.364,-0.858 1.816,-1.515 0.835,-2.698 1.733,-5.333 2.422,-8.178 0.073,-1.181 -1.125,-1.096 -1.817,-1.513 4.826,-2.844 5.238,3.8 6.965,6.057 0.576,-1.278 3.505,-5.918 0,-5.755 0,-0.302 0,-0.605 0,-0.908 0.919,-0.457 3.739,-0.619 4.241,0.303 z"
       id="path17131" /><path
       fill-rule="evenodd"
       clip-rule="evenodd"
       fill="#624d39"
       d="m 1239.447,498.639 c 0.168,1.48 -1.901,0.723 -3.028,0.907 -0.186,-0.303 2.197,-0.615 3.028,-0.907 z"
       id="path17133" /><path
       fill-rule="evenodd"
       clip-rule="evenodd"
       fill="#624d39"
       d="m 1125.585,514.688 c 1.115,2.32 0.299,4.688 -1.817,4.844 -4.481,0.333 -3.601,-7.903 1.817,-4.844 z m -0.908,2.725 c 0.639,-1.273 -0.238,-2.488 -1.818,-2.422 0.36,1.052 0.555,2.272 1.818,2.422 z m -1.514,0.607 c 0.207,-1.318 -0.544,-1.677 -1.211,-2.12 -0.845,0.995 0.174,2.067 1.211,2.12 z"
       id="path17135" /><path
       fill-rule="evenodd"
       clip-rule="evenodd"
       fill="#624d39"
       d="m 1183.728,517.111 c -0.201,1.157 -1.46,0.853 -2.12,1.211 -1.526,0.825 -2.613,2.086 -3.634,3.332 1.302,2.13 1.132,5.732 4.24,6.055 -0.988,1.822 -4.634,0.521 -6.663,0.607 -0.279,-1.188 1.598,-0.221 1.817,-0.909 -0.41,-1.206 -0.602,-2.628 -1.514,-3.332 -1.786,0.132 -2.151,1.685 -3.029,2.726 0.167,0.841 1.171,0.848 1.817,1.211 -1.806,0.218 -5.115,1.112 -6.359,0 0.254,-1.033 1.272,-0.411 1.817,-0.605 2.307,-0.827 3.83,-3.067 5.148,-4.846 -1.028,-2.201 -0.835,-5.623 -4.542,-5.148 1.369,-1.076 3.966,-0.605 6.359,-0.605 2.327,-10e-4 4.956,-0.237 6.663,0.303 z m -7.571,0.605 c 0.273,1.04 0.667,1.957 1.211,2.726 1.262,-0.554 2.295,-1.34 2.725,-2.726 -1.013,-0.43 -2.923,-0.43 -3.936,0 z"
       id="path17137" /><path
       fill-rule="evenodd"
       clip-rule="evenodd"
       fill="#624d39"
       d="m 1164.346,518.927 c 2.615,0.012 5.595,2.277 8.177,3.332 -2.646,0.018 -5.668,-2.205 -8.177,-3.332 z"
       id="path17139" /><path
       fill-rule="evenodd"
       clip-rule="evenodd"
       fill="#624d39"
       d="m 1051.999,524.681 c 0.161,1.473 -2.082,0.542 -2.422,1.515 -0.718,3.016 -1.657,5.813 -2.423,8.781 3.126,2.117 4.836,-2.157 6.663,-3.332 -0.094,2.026 -0.63,3.61 -1.515,4.846 -3.326,0.33 -7.723,1.128 -11.205,0.302 -0.021,-1.232 1.12,-1.303 2.423,-1.211 1.675,-2.562 2.347,-6.131 3.33,-9.387 -0.44,-1.112 -1.582,0.232 -2.422,-0.605 1.151,-2.495 6.131,-0.485 7.571,-0.909 z"
       id="path17141" /><path
       fill-rule="evenodd"
       clip-rule="evenodd"
       fill="#624d39"
       d="m 1144.057,536.793 c -0.223,1.191 -0.525,2.302 -0.908,3.332 -1.122,-0.893 -0.397,-2.485 -1.514,-3.332 -1.146,-0.868 -4.034,-0.667 -4.239,1.211 1.261,2.529 5.955,3.189 5.451,6.359 -0.318,2.006 -2.255,3.734 -5.753,3.332 -1.525,-0.175 -1.252,-1.512 -3.634,-1.211 0.335,-1.28 0.747,-2.483 1.212,-3.633 0.931,1.358 0.459,3.665 2.422,4.239 1.242,0.365 3.102,-0.234 3.937,-1.513 -0.66,-3.28 -7.44,-3.232 -5.148,-7.874 1.264,-2.563 4.794,-1.625 8.174,-0.91 z"
       id="path17143" /><path
       fill-rule="evenodd"
       clip-rule="evenodd"
       fill="#624d39"
       d="m 1122.557,536.492 c 0.139,0.945 -0.646,0.969 -1.514,0.907 -2.601,3.861 -5.588,7.334 -8.479,10.902 -2.09,-2.449 2.208,-10.534 -1.816,-11.204 3.251,-0.67 6.898,-0.508 11.809,-0.605 z m -7.57,0.907 c -0.433,1.84 -0.837,5.151 -0.606,6.663 1.784,-1.952 3.884,-3.585 4.846,-6.359 -1.224,-0.912 -2.278,-0.131 -4.24,-0.304 z"
       id="path17145" /><path
       fill-rule="evenodd"
       clip-rule="evenodd"
       fill="#624d39"
       d="m 1102.873,539.52 c -0.037,0.67 -1.284,0.128 -1.816,0.303 0.275,-1.099 0.893,-0.185 1.816,-0.303 z"
       id="path17147" /><path
       fill-rule="evenodd"
       clip-rule="evenodd"
       fill="#624d39"
       d="m 1052.604,551.936 c 0.956,1.313 1.223,3.356 1.212,4.844 1.43,0.22 0.532,-1.889 2.119,-1.513 -0.354,2.52 -4.033,4.625 -5.451,1.816 -0.019,-1.736 0.863,-2.569 0.908,-4.24 -0.042,-0.866 -1.263,-0.553 -2.119,-0.605 -0.978,0.84 -1.167,2.468 -1.514,3.937 -0.197,1.206 1.786,0.233 1.514,1.515 -1.749,0.795 -4.899,1.045 -6.662,0.908 -0.402,-1.916 0.898,-2.128 1.817,-2.724 0.554,-3.081 1.917,-5.353 2.725,-8.177 -0.121,-0.886 -1.776,-0.241 -2.119,-0.908 0.448,-1.115 6.094,-1.214 8.479,-0.605 3.979,1.013 3.224,4.975 -0.909,5.752 z m -3.33,-0.606 c 3.132,0.499 5.029,-1.482 4.24,-3.937 -3.103,-1.437 -3.896,1.649 -4.24,3.937 z"
       id="path17149" /><path
       fill-rule="evenodd"
       clip-rule="evenodd"
       fill="#624d39"
       d="m 1185.241,550.119 c 0.291,5.235 -2.822,7.068 -6.057,8.781 1.944,1.462 3.713,-1.233 4.846,-0.605 -0.215,2.308 -2.134,2.914 -3.937,3.633 -0.719,-0.593 -1.676,-0.949 -2.12,-1.817 -1.644,-0.33 -0.867,1.757 -2.726,1.211 -0.304,-1.716 1.388,-1.438 1.817,-2.422 -1.897,-1.03 -3.749,-2.467 -3.937,-4.542 -0.282,-3.12 3.778,-8.397 7.268,-8.176 2.229,0.14 3.101,2.048 4.846,3.937 z m -2.725,-1.211 c -4.085,-4.813 -8.021,4.411 -6.056,8.478 4.769,2.108 5.652,-4.271 6.056,-8.478 z"
       id="path17151" /><path
       fill-rule="evenodd"
       clip-rule="evenodd"
       fill="#624d39"
       d="m 1109.233,572.528 c 1.409,0.142 2.021,0.409 3.331,0 1.142,1.079 0.393,4.049 0.605,6.055 2.286,-1.248 2.815,-4.25 4.542,-6.055 1.515,0 3.029,0 4.542,0 0.028,0.936 -0.914,0.902 -1.816,0.907 -1.271,2.767 -1.896,6.179 -3.029,9.085 -0.09,0.799 0.419,0.995 1.211,0.909 -0.936,1.284 -4.147,0.293 -6.057,0.605 0.038,-1.072 1.719,-0.503 2.121,-1.211 0.462,-2.566 1.531,-4.526 2.119,-6.965 -2.4,2.041 -3.501,5.381 -5.451,7.872 -1.56,-1.266 0.147,-5.8 -0.908,-7.57 -0.738,2.187 -2.906,6.076 -1.211,7.874 -1.312,0 -2.625,0 -3.937,0 2.666,-2.284 4.403,-8.03 3.938,-11.506 z"
       id="path17153" /><path
       fill-rule="evenodd"
       clip-rule="evenodd"
       fill="#624d39"
       d="m 1140.727,594.633 c 0.059,0.909 -1.043,2.833 0.303,3.937 1.201,0.919 4.812,-0.573 5.148,1.211 0,0.998 -2.887,-1.347 -4.24,0 0.157,2.165 1.422,3.221 1.817,5.148 0.504,0.401 2.525,-0.488 2.726,0.909 0.214,1.729 -1.685,1.345 -2.726,1.816 -0.246,2.099 0.205,4.193 0.303,6.359 0.113,2.477 -0.574,5.171 0.605,6.966 1.874,-0.629 2.393,-3.755 2.726,-6.057 0.684,-4.729 -0.098,-10.371 -1.211,-14.233 2.554,-0.624 3.176,-2.02 5.754,-2.12 6.233,-0.241 11.906,6.214 11.507,13.325 -0.461,8.212 -8.804,13.87 -16.655,8.176 -0.714,1.406 -1.045,3.194 -2.726,3.633 1.343,4.873 -0.497,12.332 0.605,17.261 0.38,1.699 1.902,2.692 2.423,3.937 -0.519,1.376 -1.36,-1.76 -2.423,-1.816 -0.405,3.991 0.074,8.591 0.304,13.627 0.177,3.904 -0.458,8.36 0.303,12.112 0.543,2.687 3.391,6.042 5.148,9.085 10.4,18.017 20.13,35.645 30.888,53.297 1.66,2.724 4.351,5.269 4.542,8.781 -1.986,0.293 -2.883,-1.908 -3.633,-3.028 -2.62,-3.912 -4.795,-8.435 -7.268,-12.718 -9.417,-16.313 -19.894,-33.28 -29.071,-50.269 -0.893,0.942 -0.319,2.488 -0.303,3.937 0.217,19.766 1.14,41.735 1.514,62.382 -1.709,-1.304 -0.866,-3.902 -0.909,-5.452 -0.848,-31.25 -1.493,-71.993 -2.423,-105.684 -0.347,-12.577 0.329,-27.398 -6.056,-33.916 1.121,-0.07 2.131,1.618 3.028,-0.606 z m 6.359,8.479 c 2.01,-0.889 3.992,-2.584 6.662,-2.724 1.064,-0.056 2.31,1.043 3.029,0 -2.886,-1.889 -10.637,-1.607 -9.691,2.724 z m 15.141,3.937 c -2.063,-5.575 -11.353,-9.019 -14.838,-2.12 1.048,1.548 2.11,1.822 2.422,3.635 0.574,3.328 -1.152,3.812 -1.816,5.753 -0.551,1.612 -0.277,2.997 -0.605,4.543 7.722,8.253 18.069,-3.074 14.837,-11.811 z m -13.325,3.937 c -0.13,-0.98 0.398,-2.619 -0.605,-2.726 -0.395,0.546 -0.763,3.006 0.605,2.726 z"
       id="path17155" /><path
       fill-rule="evenodd"
       clip-rule="evenodd"
       fill="#624d39"
       d="m 1071.985,614.014 c -1.407,-1.967 -2.413,-3.219 -1.514,-5.148 1.397,-2.997 6.384,-2.089 6.965,0.605 0.62,2.873 -1.726,5.828 -5.451,4.543 z m -0.605,-4.845 c -1.048,3.282 2.568,4.259 3.937,2.422 0.568,-2.927 -2.112,-3.602 -3.937,-2.422 z"
       id="path17157" /><path
       fill-rule="evenodd"
       clip-rule="evenodd"
       fill="#624d39"
       d="m 1104.388,657.016 c 0.258,-0.056 0.286,0.117 0.303,0.302 -0.148,25.152 1.514,47.818 1.514,73.586 0,2.632 -0.317,5.364 0,8.176 0.052,0.464 1.313,1.229 0,1.515 -1.666,-0.92 -0.895,-3.253 -0.908,-4.542 -0.241,-22.999 -1.211,-43.195 -1.211,-66.318 -10e-4,-4.57 -0.761,-9.069 0.302,-12.719 z"
       id="path17159" /><path
       fill-rule="evenodd"
       clip-rule="evenodd"
       fill="#624d39"
       d="m 1085.31,657.318 c 0.355,0.049 0.256,0.553 0.303,0.909 -2.473,3.305 -4.69,6.826 -6.964,10.296 -6.735,10.27 -13.037,21.27 -19.986,31.795 -4.618,6.993 -8.535,14.434 -13.022,21.501 -2.205,3.472 -4.74,6.807 -6.965,10.296 -1.1,1.724 -2.245,3.673 -3.331,5.45 -1.008,1.65 -1.821,3.924 -3.937,4.542 -0.07,-2.193 1.94,-3.549 3.029,-5.148 1.167,-1.714 2.184,-3.678 3.331,-5.45 3.103,-4.792 6.093,-9.593 9.387,-14.536 3.578,-5.366 7.199,-11.494 10.902,-17.261 9.113,-14.191 18.096,-28.496 27.253,-42.394 z"
       id="path17161" /><path
       fill-rule="evenodd"
       clip-rule="evenodd"
       fill="#624d39"
       d="m 1068.655,660.649 c 0.515,-0.112 0.571,0.236 0.605,0.605 -8.239,12.499 -15.917,25.191 -23.923,37.853 -3.958,6.26 -7.648,12.896 -11.81,19.077 -4.187,6.217 -8.745,12.319 -11.507,19.381 -1.96,-1.436 0.148,-3.95 0.908,-5.148 6.928,-10.91 14.434,-22.323 21.5,-33.31 2.062,-3.208 3.854,-6.481 6.056,-9.69 6.204,-9.034 12.13,-19.226 18.171,-28.768 z"
       id="path17163" /><path
       fill-rule="evenodd"
       clip-rule="evenodd"
       fill="#624d39"
       d="m 1124.375,663.677 c 0.436,0.98 -0.542,2.789 -0.909,3.937 -1.209,-0.103 -0.14,-2.485 -0.909,-3.028 -1.131,-0.028 -0.863,-0.34 -1.816,0 -1.378,2.66 -2.346,5.729 -2.726,9.387 -0.083,1.195 2.133,0.087 2.423,0.909 -0.84,1.261 -6.128,0.662 -8.177,0.606 0.376,-1.239 2.531,-0.7 3.029,-1.817 0.567,-3.27 1.754,-5.917 2.422,-9.085 -2.953,-0.33 -2.958,2.291 -4.845,3.028 0.281,-1.436 0.761,-2.671 1.212,-3.937 3.663,0.406 7.152,-0.885 10.296,0 z"
       id="path17165" /><path
       fill-rule="evenodd"
       clip-rule="evenodd"
       fill="#624d39"
       d="m 1159.501,668.219 c 0.353,-0.049 0.539,0.066 0.605,0.304 12.034,20.783 24.364,42.504 36.643,63.593 0.897,1.541 1.722,3.113 2.725,4.542 0.681,0.971 2.721,2.313 1.817,3.937 -1.809,-0.644 -2.167,-2.887 -3.029,-4.24 -2.692,-4.228 -5.179,-9.001 -7.874,-13.626 -10.291,-17.68 -21.075,-35.931 -30.887,-54.51 z"
       id="path17167" /><path
       fill-rule="evenodd"
       clip-rule="evenodd"
       fill="#624d39"
       d="m 1172.523,514.688 c -1.817,0 -3.634,0 -5.451,0 -2.47,-1.569 -0.907,-7.169 -3.332,-8.783 0.694,7.212 -1.444,13.243 -1.514,20.592 4.043,-0.213 4.411,6.394 0,6.057 0.488,1.871 0.121,3.472 0,6.057 -0.502,0.507 -1.778,0.241 -2.726,0.302 -0.163,1.956 0.352,4.591 -0.303,6.058 0.517,1.4 1.64,2.194 1.212,4.541 2.964,0.469 6.248,0.617 9.69,0.607 0.386,2.151 0.667,5.108 0,6.661 -2.182,1.15 -6.277,0.386 -9.387,0.606 -0.607,2.074 0.926,5.226 1.211,8.177 1.837,0.993 3.698,1.417 3.634,3.33 -0.092,2.746 -4.337,2.553 -6.057,4.241 -1.218,3.542 0.021,8.138 -0.908,11.507 -0.705,2.556 -3.257,2.203 -4.24,4.239 0.053,1.462 2.282,0.748 3.634,0.909 0.95,2.579 3.663,4.274 4.24,6.663 0.438,1.813 -0.413,3.779 0,5.754 0.516,2.473 3.291,5.552 4.845,8.479 7.676,14.447 15.366,28.198 23.317,42.091 2.37,4.142 4.888,8.027 7.268,12.416 0.668,1.233 1.686,2.706 1.514,4.239 -1.569,-0.642 -2.299,-2.631 -3.028,-3.937 -5.563,-9.95 -11.5,-20.521 -16.959,-30.888 -3.132,-5.948 -6.75,-11.627 -9.993,-17.562 -3.215,-5.887 -6.188,-11.966 -9.388,-17.868 0.779,0.029 0.434,1.183 1.212,1.212 1.927,-4.105 -1.967,-7.479 -3.634,-9.994 -8.262,-0.122 -17.607,-0.758 -25.74,0 2.128,1.303 4.956,1.909 6.057,4.239 -2.11,-1.422 -4.1,-2.965 -6.965,-3.633 0.245,22.699 0.225,45.106 1.211,67.529 1.092,24.831 0.706,48.898 1.817,74.192 0.117,2.656 1.044,5.4 -0.303,8.176 -2.6,-0.444 -1.791,-3.419 -1.817,-5.148 -0.11,-7.25 -0.271,-15.36 -0.605,-22.712 -0.79,-17.391 -0.428,-35.739 -1.211,-52.993 -0.203,-4.453 0.558,-9.505 -0.303,-13.627 -0.467,-2.234 -2.687,-4.428 -3.937,-6.663 -1.361,-2.43 -2.156,-4.81 -3.634,-6.661 -6.013,-1.12 -10.861,-0.059 -17.563,-0.303 -0.785,7.548 -0.077,16.228 0,23.923 -1.34,-5.23 -0.656,-10.91 -0.909,-16.655 -0.517,-11.778 -0.617,-24.281 -0.908,-36.036 0.921,4.16 0.692,8.864 0.908,13.627 0.192,4.232 0.083,8.38 0.303,13.02 6.996,0.939 16.763,-0.049 25.135,0.304 0.573,-11.746 -0.78,-22.392 -0.303,-35.128 -6.554,-1.261 -17.006,-0.291 -25.135,-0.302 -0.593,1.425 -0.126,3.912 -0.605,5.45 -1.39,-1.637 0.032,-6.088 -0.908,-8.176 -13.858,1.464 -10.441,20.171 -10.296,33.614 0.014,1.259 -0.31,2.328 -0.303,3.633 0.01,1.287 0.585,2.619 0.605,3.937 0.419,26.141 0.9,57.658 1.817,84.185 0.184,5.323 0.422,11.636 0.605,17.868 0.042,1.396 1.302,4.592 -1.212,4.845 -1.707,-0.848 -0.815,-3.259 -0.908,-4.542 -1.438,-19.833 -0.749,-42.163 -1.514,-62.987 -0.261,-7.09 -0.664,-14.414 -0.606,-21.5 -1.98,0.86 -2.698,3.375 -3.937,5.148 -0.824,-0.832 0.736,-2.422 1.514,-3.635 0.695,-1.081 2.156,-2.463 2.423,-3.937 0.177,-0.975 -0.231,-1.925 -0.303,-3.028 -0.365,-5.646 0.238,-11.946 -0.303,-16.353 -2.637,2.605 -4.29,5.968 -6.36,9.085 -2.041,3.074 -4.288,6.118 -6.056,9.389 -0.08,-2.028 1.68,-3.518 2.726,-5.148 3.192,-4.978 6.396,-10.473 9.69,-15.444 0,-1.615 0,-3.23 0,-4.846 -0.432,-0.98 -2.568,-0.259 -3.028,-1.211 -0.56,-1.46 -0.89,-3.148 -1.514,-4.542 -2.636,2.006 -3.307,4.259 -6.056,5.148 -9.404,3.041 -16.965,-6.799 -14.536,-15.746 1.115,-4.105 7.087,-9.999 13.021,-9.389 3.716,0.383 5.623,2.987 7.571,5.753 0.706,-1.414 0.817,-3.422 1.817,-4.542 1.571,-0.146 3.758,0.326 4.845,-0.302 -1.719,-6.169 -9.469,-7.562 -15.444,-5.148 -3.902,1.576 -6.315,5.386 -9.69,6.359 0.297,1.408 -0.392,1.829 -0.605,2.726 -13.161,21.468 -27.778,43.415 -40.881,65.409 -0.616,1.035 -0.961,4.18 -3.332,3.028 -1.55,-1.422 0.616,-3.058 1.212,-3.937 4.462,-6.58 9.081,-13.903 13.626,-20.894 8.749,-13.452 17.493,-28.888 26.043,-42.699 -0.13,-2.673 -0.619,-4.957 0,-6.964 0.902,-2.927 4.184,-4.673 5.754,-6.965 1.318,-0.196 3.423,0.395 4.239,-0.304 -0.36,-2.631 -2.217,-1.376 -3.331,-3.331 -2.019,-3.541 0.839,-9.522 -1.211,-13.02 -3.112,-0.22 -5.66,-1.003 -6.057,-3.937 0.954,-1.368 2.214,-2.431 4.845,-2.121 0.541,-3.194 2.244,-5.225 2.12,-9.084 -2.609,-0.922 -7.519,0.454 -9.69,-0.908 -0.946,-1.328 -0.773,-5.214 -0.303,-6.966 2.544,-1.089 6.921,-0.345 9.993,-0.907 -0.505,-3.209 1.183,-4.755 0.605,-8.782 -0.709,-0.604 -2.512,-0.112 -3.029,-0.909 0,-1.816 0,-3.633 0,-5.45 -1.68,-0.644 -3.182,-1.462 -3.937,-3.029 -1.856,0.589 -5.092,0.993 -6.965,0.605 0.864,-1.761 4.353,-0.896 6.359,-1.513 1.053,-0.261 1.052,-1.574 1.817,-2.12 1.437,-0.297 1.59,-0.007 3.028,-0.304 -0.733,-3.457 1.156,-4.295 2.423,-5.753 -2.048,-1.054 -4.455,-0.706 -6.663,-0.605 -2.125,0.097 -4.645,1.048 -6.359,0.605 -4.949,-1.275 -4.356,-13.512 -0.303,-15.444 1.224,-0.342 2.072,0.721 3.332,0.909 3.089,0.462 7.856,-0.424 12.113,-0.605 5.323,-0.229 9.949,0.457 13.324,-1.211 3.474,0.573 7.223,0.007 11.205,-0.304 0.152,-2.991 0.877,-5.722 0.303,-8.176 -0.57,-2.434 -3.634,-4.122 -3.029,-6.964 -28.631,-0.974 -57.256,-0.381 -85.093,-1.211 -0.812,0.742 0.531,2.074 -0.303,3.027 -2.471,2.779 -7.305,3.193 -9.085,6.661 -3.302,-0.379 -5.931,0.146 -9.69,0 -0.586,-0.422 -0.897,-1.12 -1.211,-1.816 -2.028,-0.254 -3.843,-0.94 -5.754,-1.513 -1.703,-0.512 -3.601,-0.988 -5.148,-1.818 -1.602,-2.739 1.847,-4.59 2.422,-6.964 0.917,-3.777 -0.471,-7.5 0,-11.507 -0.977,-0.637 -2.453,-0.777 -3.633,-1.211 -8.076,-9.249 -3.82,-27.215 0.605,-37.551 -6.91,-0.456 -14.457,-0.376 -22.409,-0.302 -2.366,0.021 -4.923,-0.31 -6.965,0 -1.175,0.178 -2.462,1.188 -3.634,1.211 -1.526,0.03 -2.819,-0.97 -4.24,-0.909 -1.25,0.056 -2.762,1.274 -3.936,1.212 -1.717,-0.09 -2.864,-1.765 -3.634,-3.029 -1.117,-0.028 -1.94,1.241 -3.029,0.304 -1.723,-0.599 -1.608,-3.036 -2.422,-4.542 -1.364,0.048 -1.111,1.714 -2.423,1.817 -3.113,-1.083 -3.698,1.729 -6.662,0.605 -7.345,7.823 -9.271,-9.623 -8.177,-19.986 0.553,-5.229 4.784,-11.42 8.177,-5.148 3,0.058 7.444,-0.404 9.084,1.817 0.634,-2.495 2.027,-4.23 5.451,-3.937 1.553,-0.566 1.533,-2.706 3.331,-3.028 2.628,0.464 2.001,1.903 4.239,1.515 1.677,-0.292 1.684,-2.37 3.029,-2.726 2.21,-0.586 3.459,0.802 4.542,2.726 10.831,0.232 20.805,-0.393 31.494,-0.304 2.138,-1.597 2.746,-4.724 7.267,-3.937 1.538,-2.298 1.287,-6.384 2.726,-8.781 1.395,-0.492 4.661,-0.492 6.056,0 1.355,1.774 1.22,5.038 2.12,7.268 0.379,0.266 2.09,-1.302 3.331,-0.304 1.106,1.417 1.423,3.625 1.817,5.754 10.441,0.264 24.122,-0.17 36.339,0 1.749,-1.078 2.066,-3.587 5.451,-3.028 0.909,-0.901 0.727,-2.084 2.12,-2.726 1.264,-0.582 2.941,-0.356 4.542,0 1.236,0.715 0.433,1.949 0.908,3.028 3.592,-1.181 5.981,0.951 7.571,2.726 10.128,0.11 21.893,-0.566 33.916,-0.605 4.614,-0.015 9.074,0.467 13.325,0 1.301,-0.142 2.379,-0.82 3.634,-0.909 2.003,-0.139 4.559,0.518 6.965,0.607 4.72,0.175 8.743,-1.003 12.113,0.908 20.61,-0.008 43.66,-0.205 65.41,0 9.717,0.092 18.224,-0.074 28.163,-0.302 0.808,-1.615 1.377,-3.468 2.725,-4.542 0.914,-0.399 2.417,-0.208 3.332,-0.605 1.439,-1.79 1.799,-4.661 3.331,-6.361 1.42,-0.396 3.323,-0.31 5.148,-0.302 1.421,2.515 2.619,5.255 3.331,8.479 1.173,0.802 1.704,-0.068 3.029,0.302 1.784,0.5 2.442,2.836 4.239,3.332 2.877,0.792 9.984,0.241 15.444,0 3.037,-0.134 5.895,-0.012 8.479,0 3.07,0.015 5.824,-0.703 8.177,0 1.637,0.49 3.134,2.219 4.239,2.12 1.454,-0.13 1.855,-1.979 3.634,-2.726 1.836,-0.772 2.932,-0.216 4.239,-0.606 1.519,-1.554 4.288,-3.745 6.965,-1.211 18.451,0.395 38.172,-0.087 57.234,0.304 2.349,3.706 4.551,7.56 3.936,14.231 -1.382,-4.875 -1.62,-10.896 -5.451,-13.324 -16.914,-1.122 -37.501,0.304 -55.113,0 0.242,2.921 2.127,6.105 2.725,9.993 1.333,8.659 -0.451,18.582 -3.331,24.529 11.549,0.853 22.804,0.37 35.127,0.304 1.59,-0.008 3.661,-0.508 4.845,-0.304 1.34,0.234 1.642,1.397 3.029,1.515 1.45,-0.231 1.544,-1.158 3.028,-1.515 2.778,-0.667 7.216,0.515 9.69,-0.302 2.277,-0.751 1.713,-2.962 3.331,-4.542 0.497,-3.944 1.334,-7.549 1.817,-11.507 0,-1.11 0,-2.221 0,-3.332 -0.085,-0.541 0.286,-0.622 0.303,-0.302 0.072,6.834 -0.286,13.24 -2.12,18.168 -1.648,1.18 -2.31,3.343 -3.937,4.542 -14.276,0.284 -36.687,-0.769 -52.994,-0.605 -2.206,0.021 -4.625,1 -6.662,0.605 -1.475,-0.285 -2.654,-2.307 -4.24,-2.726 -1.44,-0.379 -2.998,0.313 -3.937,0 -1.192,-0.397 -2.073,-1.698 -2.726,-2.724 -6.971,2.429 -16.205,0.739 -25.134,1.211 0.418,1.897 1.42,3.665 2.12,5.754 0.608,1.818 1.005,3.92 1.816,5.753 1.529,3.453 4.285,6.285 2.726,11.507 -0.507,1.698 -2.325,4.226 -3.634,4.846 -1.218,0.576 -6.853,1.023 -9.085,0.604 -3.683,-0.69 -5.616,-5.478 -8.781,-5.45 -1.962,4.107 5.805,4.882 5.451,9.085 -0.15,1.784 -1.014,1.741 -2.12,3.028 1.043,4.224 -0.654,10.288 0.303,14.233 0.511,2.109 2.416,2.556 2.726,4.241 -0.972,3.468 -1.32,7.563 -5.753,7.57 0.674,-1.042 2.899,-0.533 2.725,-2.422 -2.549,0.137 -5.571,1.981 -6.965,4.239 -2.926,0.607 -6.894,0.173 -10.296,0.302 -1.281,-1.772 -1.259,-3.232 -3.332,-4.239 -1.455,-0.706 -3.398,-0.266 -4.845,-0.909 -2.23,-0.992 -3.364,-3.432 -2.725,-5.752 -27.138,1 -55.372,1.564 -82.065,2.119 -1.481,1.049 -1.133,2.881 -1.817,4.241 -0.862,1.711 -3.07,2.932 -2.12,6.055 12.275,-0.719 20.832,-0.292 32.402,-0.605 1.112,-2.622 0.651,-6.819 2.726,-8.479 1.372,-0.544 3.621,-0.214 5.451,-0.302 1.834,1.886 2.231,7.859 2.422,11.809 0.238,4.802 -0.345,10.092 -2.418,12.712 z m 1.514,-18.473 c -0.345,-1.897 -0.825,-4.305 -2.422,-4.845 0.263,1.56 1.437,3.206 1.816,5.148 0.25,1.277 -0.848,3.42 0.909,3.937 -0.144,-1.371 -0.057,-2.887 -0.303,-4.24 z M 989.012,390.833 c -0.95,1.79 -1.689,7.353 0,8.176 0.704,-1.82 0.103,-4.943 0.303,-7.267 0.228,-0.797 3.243,-0.371 2.726,-0.909 -1.011,0 -2.02,0 -3.029,0 z m 242.259,2.12 c -0.079,1.627 -1.225,6.034 0.605,6.661 1.435,-1.351 -0.12,-3.825 0.304,-6.056 0.507,-1.209 3.022,-0.409 3.633,-1.515 -1.597,-0.875 -3.517,0.237 -4.542,0.91 z m -240.139,0 c 1.926,4.067 2.269,10.293 3.633,14.535 0.459,1.425 0.581,3.783 2.423,3.937 -2.246,-5.427 -0.906,-14.438 -3.937,-19.077 -1.05,0.243 -1.164,-0.452 -2.12,-0.304 10e-4,0.304 10e-4,0.606 10e-4,0.909 z m 243.167,0.908 c 0.068,0.236 0.01,0.597 0.303,0.605 3.125,5.645 3.291,14.338 7.874,18.17 -0.124,-3.036 -1.566,-6.282 -2.423,-9.69 -0.859,-3.416 -1.918,-6.851 -3.634,-9.387 -0.805,0.002 -1.73,-0.114 -2.12,0.302 z m -243.471,6.057 c 0.326,0.827 0.868,1.483 1.212,2.422 0.844,2.307 0.654,5.872 2.422,7.268 -1.655,-4.099 -1.92,-9.586 -3.331,-13.929 -0.609,0.904 -0.171,2.856 -0.303,4.239 z m 245.288,5.45 c 0.478,1.895 0.152,5.528 3.028,4.542 -1.314,-4.843 -2.616,-9.697 -4.542,-13.929 -0.067,-0.236 -0.254,-0.352 -0.605,-0.302 -0.606,4.471 1.355,6.661 2.119,9.689 z m -238.322,-6.359 c 2.693,3.193 2.837,8.095 3.331,12.718 0.137,1.282 -0.628,3.318 0.909,4.24 -0.271,-5.788 -0.544,-13.101 -3.029,-17.564 -0.605,0 -1.211,0 -1.816,0 0.033,0.37 0.089,0.718 0.605,0.606 z m 47.846,-0.302 c -0.128,1.031 2.407,-0.373 2.12,1.513 -0.322,1.554 -2.03,0.05 -2.423,1.211 0.743,1.259 3.209,0.33 4.542,0.303 0.147,-1.561 -0.289,-2.538 -0.908,-3.331 -1.113,0.099 -2.681,-0.257 -3.331,0.304 z m 186.842,14.233 c 0.176,2.424 -0.563,5.083 1.211,5.753 -0.01,-8.268 -1.133,-15.423 -4.845,-19.986 1.665,3.773 3.253,8.987 3.634,14.233 z m -9.085,-9.994 c 1.59,-0.177 2.292,0.535 3.937,0.304 5.785,7.626 4.62,23.819 -0.606,31.189 -0.551,0.66 -2.476,-0.053 -3.028,0.606 -0.291,1.501 1.914,0.51 2.422,1.211 1.17,-0.155 1.194,1.746 2.12,0.909 4.047,-10.58 5.166,-27.994 -0.303,-37.853 -3.015,-0.29 -4.471,0.979 -4.542,3.634 z M 983.258,400.22 c 1.316,3.228 2.131,6.955 2.726,10.903 0.853,0.457 1.893,0.731 3.331,0.604 0,-0.908 0,-1.817 0,-2.724 0.39,-0.417 1.316,-0.3 2.12,-0.304 -0.333,-3.302 -1.372,-5.896 -2.12,-8.781 -1.957,0.163 -4.592,-0.352 -6.057,0.302 z m 15.141,8.783 c 1.381,-2.612 -0.474,-6.909 -1.817,-8.783 -0.323,2.742 -0.668,7.867 1.817,8.783 z m 235.294,0.302 c 0.713,-0.006 0.892,0.521 1.816,0.304 -0.553,-3.585 -1.624,-6.653 -3.027,-9.389 -0.303,0 -0.606,0 -0.909,0 0.016,2.541 1.638,6.011 2.12,9.085 z m 9.691,1.211 c 0,0.404 0,0.808 0,1.211 0.352,0.256 0.812,0.399 1.514,0.304 -0.058,-0.951 -0.563,-1.456 -1.514,-1.515 z m -0.908,-1.211 c 1.358,0.459 2.086,1.548 3.331,2.12 -0.718,-4.026 -1.48,-8.007 -3.331,-10.901 -0.707,0 -1.413,0 -2.12,0 0.186,3.446 1.618,5.649 2.12,8.781 z m -262.247,-6.359 c 1.841,1.793 1.041,6.227 4.542,6.359 -0.513,-3.02 -1.097,-5.968 -2.119,-8.478 -1.657,-0.145 -2.11,0.918 -2.423,2.119 z m 60.565,30.887 c 0.435,0.98 1.023,2.001 2.726,1.515 2.757,-0.789 3.865,-14.876 3.633,-19.684 -0.242,-5.052 -1.095,-17.764 -6.662,-13.93 0.282,2.605 1.457,5.004 1.816,7.874 0.399,3.167 0.226,6.532 0.304,10.296 -0.28,0.528 0.01,1.625 -0.909,1.515 -0.049,0.957 0.805,1.012 0.605,2.119 0.076,2.661 -2.675,7.672 -1.513,10.295 z m 248.922,0.606 c 2.236,0.637 3.857,3.393 6.056,2.726 3.309,-1.003 4.87,-11.29 5.451,-17.866 0.292,-3.3 -0.55,-7.481 -1.514,-11.205 -0.597,-2.307 -2.723,-8.367 -4.542,-7.267 -1.477,0.891 -2.702,2.359 -4.24,2.724 -1.582,0.375 -2.244,-0.673 -4.542,0.304 1.52,4.176 3.343,9.294 3.332,14.838 -0.013,5.874 -2.114,11.207 -4.24,15.14 1.784,0.742 2.628,0.147 4.239,0.606 z m -237.717,-32.401 c 2.25,5.028 3.583,12.774 3.028,19.985 -0.375,4.861 -2.261,9.164 -2.423,12.72 4.724,1.127 5.705,-4.582 6.36,-9.69 1.082,-8.439 -0.312,-18.412 -3.029,-23.014 -1.364,-0.353 -2.393,-1.04 -4.24,-0.909 0.049,0.355 -0.051,0.859 0.304,0.908 z m -110.228,1.212 c 0.303,0 0.605,0 0.908,0 0.055,-0.662 -0.248,-0.964 -0.908,-0.909 0,0.303 0,0.605 0,0.909 z m 2.12,0 c 0.303,0 0.606,0 0.909,0 0.055,-0.662 -0.248,-0.964 -0.909,-0.909 0,0.303 0,0.605 0,0.909 z m 300.704,0 c 0.213,1.117 0.866,2.214 1.211,3.633 0.439,1.811 0.048,4.429 1.514,5.452 0.404,0 0.808,0 1.212,0 -0.4,-4.244 -0.913,-8.374 -3.937,-9.994 0,0.303 0,0.605 0,0.909 z m -198.653,-0.304 c 0.342,3.192 1.907,7.783 1.817,12.416 0.825,-0.205 3.556,-1.137 5.148,0 0.106,-5.052 -0.918,-8.974 -2.423,-12.416 -1.805,0.383 -3.307,-0.776 -4.542,0 z m 72.073,0.304 c -0.633,0.175 -0.864,0.75 -1.817,0.605 -1.593,-1.213 -3.332,-0.464 -6.056,-0.605 0.863,1.76 1.826,3.422 1.816,6.055 2.85,-2.845 6.74,-5.73 12.113,-5.45 0.866,0.044 2.151,1.236 2.726,0 -1.786,-1.345 -6.006,-0.252 -8.782,-0.605 z m -184.42,0.907 c -0.044,1.458 1.647,1.18 1.817,2.422 0.67,2.823 1.301,5.966 1.514,9.388 0.447,7.199 -1.371,13.479 -2.12,18.17 2.53,0.198 2.316,-3 2.725,-4.846 0.95,-4.285 1.546,-8.636 1.211,-13.929 -0.307,-4.859 -1.107,-9.935 -3.331,-12.112 -1.171,-0.265 -1.076,0.738 -1.816,0.907 z m 196.23,-0.302 c -0.202,0 -0.404,0 -0.606,0 -0.726,1.724 1.316,2.52 2.12,3.331 3.307,3.333 5.974,8.981 3.028,15.141 -1.596,3.339 -6.16,5.712 -5.753,10.296 24.634,0.162 52.925,-0.348 75.101,0.304 1.961,-3.492 2.546,-8.357 3.634,-12.72 5.069,-0.35 11.102,-0.944 15.747,0 0.743,4.285 -1.552,9.464 -1.817,12.72 1.212,0 2.423,0 3.634,0 5.291,-6.313 5.841,-23.4 0.303,-29.071 -31.278,0.144 -67.445,-0.046 -95.391,-10e-4 z m -191.688,0.605 c -0.036,2.911 0.914,5.59 1.211,8.479 0.715,6.955 -0.581,13.797 -0.908,20.288 2.858,0.748 3.262,-2.655 5.451,-2.726 1.683,-0.055 2.232,1.167 3.634,2.424 9.791,0 19.582,0 29.374,0 1.708,-3.818 -0.05,-7.31 -0.303,-11.507 -3.864,-0.376 -5.702,-2.777 -7.268,-5.452 -0.976,-0.64 -2.628,-0.602 -2.725,-2.12 4.612,-2.866 5.405,4.787 9.993,4.846 0.247,-1.051 -1.314,-1.155 -1.817,-1.818 -2.797,-3.683 0.237,-8.866 5.148,-8.781 -0.007,-1.809 -0.641,-2.993 -1.514,-3.937 -12.545,-0.308 -28.587,0.278 -40.276,0.304 z m 90.847,-0.605 c -8.741,0 -18.169,0.628 -27.254,0.302 0.609,4.105 0.987,8.504 0.909,13.022 -0.05,2.853 -0.546,5.409 -0.605,7.57 -0.038,1.327 0.194,2.97 0.303,4.241 0.107,1.254 -0.098,2.747 0.605,3.633 2.68,0.838 2.61,-1.584 3.028,-3.332 0.747,-3.123 0.784,-6.932 0.909,-9.69 5.103,0.251 11.745,-0.475 15.444,0.304 1.126,4.328 -0.466,9.969 -0.606,13.022 4.848,-0.604 10.728,-0.175 16.05,-0.304 3.037,-7.125 4.285,-20.153 1.211,-28.162 -3.017,-0.634 -6.581,-0.606 -9.994,-0.606 z m 30.586,0.302 c 0.092,-0.614 -0.875,0.062 -0.908,0.304 2.086,8.262 1.808,19.549 0,27.858 16.383,0.673 33.205,0.208 48.451,0 2.258,-2.108 3.71,-6.89 3.634,-11.204 -0.027,-1.551 -0.637,-3.23 -0.605,-4.844 0.029,-1.559 0.621,-3.085 0.605,-4.544 -0.037,-3.411 -1.356,-5.803 -3.029,-7.872 -16.457,-0.099 -32.319,0.49 -48.148,0.302 z m 224.392,16.05 c 0.452,-5.96 -0.288,-13.779 -3.937,-15.746 -2.845,-1.535 -7.992,-0.35 -11.507,-0.304 -6.375,0.084 -13.279,-0.68 -20.592,-0.302 -0.304,-0.002 -0.36,0.246 -0.606,0.302 0.938,1.789 1.31,4.142 1.817,6.359 3.819,-4.135 10.818,-2.388 10.902,3.029 0.041,2.66 -2.184,3.574 -3.029,6.055 -0.096,0.284 0.337,0.489 0.303,0.909 0,0.05 -0.591,0.8 -0.605,0.909 -0.571,4.407 -0.75,8.166 0,11.204 7.69,0.543 15.472,-0.208 23.621,0 1.794,-3.079 3.244,-7.284 3.633,-12.415 z m -169.278,-10.902 c -4.812,5.561 -1.802,15.329 3.936,17.564 7.745,3.018 15.487,-3.024 15.141,-10.902 -0.271,-6.192 -6.011,-10.936 -12.416,-9.992 -3.555,0.523 -5.201,1.644 -6.661,3.33 z m -187.145,-1.817 c -0.555,1.119 0.893,2.826 1.211,4.239 1.11,4.929 -0.264,14.18 -0.303,18.473 0.856,1.162 2.646,1.393 4.845,1.211 3.132,-6.089 2.785,-19.229 0,-25.437 -2.018,0.107 -4.955,-0.095 -5.753,1.514 z m 355.211,-0.606 c 2.346,5.17 2.337,13.862 0.909,20.289 -0.385,1.729 -1.894,3.031 -1.212,4.544 1.969,0.37 2.744,-2.27 3.331,-3.937 2.173,-6.163 2.365,-17.551 -1.816,-21.803 -0.303,0 -0.606,0 -0.909,0 -0.016,0.386 -0.387,0.419 -0.303,0.907 z m -369.444,0.304 c 0.751,0.043 1.47,0.056 1.515,-0.607 -0.573,0.135 -1.826,-0.411 -1.515,0.607 z m -2.725,7.57 c 0.172,1.551 0.321,-0.987 1.514,-0.304 1.461,1.772 1.619,6.873 0,8.479 -1.157,0.147 -0.948,-1.071 -1.514,-1.513 0.032,3.399 0.521,6.343 1.817,8.478 1.932,-7.506 1.945,-15.084 0,-22.409 -1.946,1.085 -1.003,5.055 -1.817,7.269 z m 6.359,-6.057 c 0.682,3.886 1.206,9.227 0.908,13.931 -0.173,2.74 -1.468,5.536 -0.303,7.57 3.153,-0.625 3.393,-5.494 3.634,-9.085 0.329,-4.9 -0.417,-10.604 -2.12,-13.324 -0.706,0 -1.412,0 -2.119,0 0,0.303 0,0.606 0,0.908 z m -3.029,0.304 c 0.776,-0.031 1.444,-0.172 1.817,-0.605 -0.46,-0.468 -2.076,-0.54 -1.817,0.605 z m 6.965,-0.606 c 1.574,6.314 1.168,13.797 0.303,20.592 1.111,0 2.221,0 3.331,0 1.156,-5.006 3.758,-22.8 -3.634,-20.592 z m 334.621,0.606 c -3.391,-0.703 -4.541,1.927 -6.359,3.937 -1.433,-0.02 -2.98,-0.155 -3.331,0.907 1.123,0.391 2.534,0.495 3.937,0.605 0.62,1.881 2.765,4.858 4.845,3.332 -5.277,-0.379 -5.021,-7.527 -0.605,-7.874 3.73,-0.292 5.212,4.6 2.725,7.269 3.811,-1.636 2.105,-7.488 -1.212,-8.176 z m -270.12,3.331 c -1.428,-0.614 -1.854,-2.168 -3.331,-2.726 -5.794,-2.185 -10.68,5.633 -3.937,6.964 0.223,-1.716 -2.088,-1.285 -2.12,-3.331 -0.058,-3.673 7.612,-4.417 8.479,-0.302 -0.4,2.122 -3.311,1.735 -3.633,3.935 2.614,-0.211 3.589,-2.062 5.451,-3.028 1.326,-0.289 3.975,0.746 3.936,-0.907 -0.913,-1.065 -2.766,0.286 -4.845,-0.605 z m -71.466,-1.818 c 0.725,-0.184 2.198,0.381 2.423,-0.302 -0.542,-0.802 -2.222,-0.825 -2.423,0.302 z m 79.038,0.607 c -0.249,-0.762 -0.397,-1.624 -1.514,-1.515 -0.07,1.08 0.435,1.584 1.514,1.515 z m 6.964,-0.304 c -0.596,-0.513 -0.694,-1.526 -2.119,-1.211 -0.173,1.1 1.273,2.136 2.119,1.211 z m 238.626,1.212 c 0.225,-0.933 -0.832,-0.583 -0.605,-1.515 -0.707,0 -1.413,0 -2.12,0 -0.219,1.632 1.233,1.594 2.725,1.515 z m -312.515,-0.304 c 0.212,2.983 0.817,6.554 0.606,9.692 -0.163,2.409 -1.278,4.805 -0.303,6.359 1.915,-4.01 1.361,-12.085 0.605,-16.959 -0.303,0 -0.605,0 -0.909,0 10e-4,0.304 10e-4,0.606 10e-4,0.908 z m 306.761,18.775 c -1.277,5.534 -1.992,8.781 -4.542,11.509 0.62,0.792 2.197,0.628 2.422,1.816 0.902,1.361 -0.875,3.833 0.605,4.844 0.485,-5.961 3.818,-13.157 4.542,-19.683 0.285,-2.566 -0.125,-5.429 0,-8.177 0.157,-3.445 1.51,-7.899 -1.211,-9.993 -0.202,0 -0.403,0 -0.605,0 0.773,7.26 0.144,13.812 -1.211,19.684 z m 18.775,-16.957 c -0.075,1.449 0.584,1.754 1.515,2.726 1.229,-0.084 1.662,-0.963 3.331,-0.607 2.907,-5.108 -4.637,-6.142 -4.846,-2.119 z m -260.125,-1.211 c 0.084,-0.691 -0.073,-1.138 -0.606,-1.211 -0.085,0.69 0.073,1.139 0.606,1.211 z m -77.221,-0.303 c 0.226,0.683 1.699,0.119 2.423,0.303 0.29,-0.993 -2.487,-1.478 -2.423,-0.303 z m 81.157,1.211 c 0.414,-0.386 0.468,-1.483 -0.303,-1.515 0.166,0.44 -0.354,1.566 0.303,1.515 z m -2.12,16.958 c 2.92,0.68 5.405,-0.03 8.479,0.302 0.281,-3.026 -0.46,-6.483 -0.606,-9.69 -0.159,-3.493 0.483,-7.23 -1.514,-8.781 -1.389,0.832 -1.033,3.409 -2.422,4.24 -0.909,0 -1.818,0 -2.726,0 -0.958,-0.859 -0.616,-3.018 -1.211,-4.24 -0.303,0 -0.605,0 -0.909,0 0.171,6.189 0.559,12.16 0.909,18.169 z M 978.11,413.847 c 1.044,0.508 1.34,0.008 2.726,0.304 0.361,-0.904 0.083,-1.03 -0.304,-1.817 -1.158,0.152 -2.349,0.274 -2.422,1.513 z m 258.914,-1.211 c -1.365,4.389 -0.237,11.271 -0.605,16.655 3.248,-0.345 6.148,0.672 8.782,0 0.112,-3.02 -0.146,-6.534 0,-9.69 0.111,-2.368 1.239,-5.253 -0.605,-6.661 -0.667,2.219 -1.187,4.108 -3.331,3.935 -2.256,-0.182 -1.762,-2.198 -2.725,-4.239 -0.506,0 -1.011,0 -1.516,0 z m -254.674,1.515 c 0.798,0.091 0.994,-0.419 0.909,-1.211 -0.8,-0.093 -0.782,0.632 -0.909,1.211 z m 13.627,0.302 c 0.417,-0.013 0.665,0.144 0.909,0.304 0.269,-0.538 0.845,-0.769 0.605,-1.816 -1.079,-0.07 -1.583,0.433 -1.514,1.512 z m 244.378,-0.606 c 0.202,0 0.404,0 0.605,0 0.017,-0.386 0.389,-0.419 0.303,-0.907 -0.201,0 -0.403,0 -0.605,0 -0.016,0.386 -0.387,0.419 -0.303,0.907 z m -325.837,-0.302 c -0.021,0.967 1.903,0.785 2.119,0.605 0.284,-1.23 -1.64,-1.05 -2.119,-0.605 z m 76.614,9.993 c -0.213,4.669 -0.826,12.609 -2.12,15.142 -0.248,0.483 -1.414,1.926 -1.817,2.119 -0.435,0.211 -1.787,-0.609 -1.817,0.605 0.038,1.963 0.551,4.033 0.909,6.057 0.324,1.84 0.175,4.321 1.817,5.148 1.386,-1.096 1.279,-3.237 1.514,-4.846 0.267,-1.82 0.615,-3.601 0.908,-5.45 0.577,-3.642 1.68,-7.479 1.817,-11.205 0.191,-5.163 -0.607,-13.277 -1.211,-17.562 -0.115,3.095 0.15,6.668 0,9.992 z m 250.132,-8.48 c 0.79,0.639 2.681,0.439 2.12,-1.211 -1.254,-0.143 -2.222,-10e-4 -2.12,1.211 z m -326.746,0.304 c -0.285,1.231 1.639,1.049 2.119,0.605 0.284,-1.23 -1.64,-1.049 -2.119,-0.605 z m 72.071,1.211 c -0.101,6.546 -0.857,14.555 -2.726,20.29 0.65,0.561 2.218,0.203 3.331,0.302 1.957,-6.606 2.502,-13.222 2.12,-21.198 -0.575,-0.005 -2.473,-0.867 -2.725,0.606 z m 259.52,3.331 c 0.287,-0.746 0.88,-3.998 -0.303,-4.24 0.195,1.32 -0.395,3.423 0.303,4.24 z m 1.211,-4.24 c -0.017,0.388 -0.388,0.42 -0.303,0.909 0.583,3.881 -1.264,8.013 -1.514,10.296 -0.116,1.056 -0.46,2.785 0.605,3.633 2.497,-3.458 2.782,-9.128 3.028,-14.838 -0.604,0 -1.21,0 -1.816,0 z m -335.528,5.148 c 0.333,-1.089 0.623,-3.805 0,-4.845 -0.333,1.091 -0.623,3.807 0,4.845 z m 138.693,-4.845 c -0.791,0.909 -1.278,2.927 -0.303,3.937 0.872,-0.036 1.982,0.165 2.422,-0.304 0.866,-1.676 0.011,-3.969 -2.119,-3.633 z m -139.904,1.515 c 0.049,-0.211 -0.105,-1.762 -0.303,-0.909 -0.267,1.154 0.162,1.516 0.303,0.909 z m 3.937,0.908 c 1.017,-0.092 2.625,0.404 2.422,-0.908 -0.441,-0.468 -1.55,-0.267 -2.422,-0.303 0,0.404 0,0.806 0,1.211 z m 334.619,3.937 c 1.855,-0.467 2.775,-1.868 3.634,-3.332 -1.144,-0.47 -1.885,-1.345 -3.028,-1.816 -0.434,1.485 -0.659,3.176 -0.606,5.148 z m -266.181,1.514 c -0.255,4.065 -1.31,8.491 -2.12,11.204 0.925,0.287 0.949,1.473 2.12,1.515 1.706,-5.562 3.042,-11.494 2.725,-19.078 -3.08,0.31 -2.529,3.208 -2.725,6.359 z m -67.833,-3.029 c 1.117,0.008 2.085,-0.135 2.12,-1.211 -0.502,-0.506 -1.778,-0.241 -2.725,-0.302 -0.26,0.965 0.476,0.935 0.605,1.513 z m 65.106,8.177 c 0.665,-3.143 1.233,-6.034 0.606,-9.389 -3.424,1.275 -0.55,6.17 -0.606,9.389 z m 65.713,3.937 c 0.996,0.619 3.066,0.163 4.542,0.302 1.66,-2.998 2.374,-8.507 2.423,-12.113 -2.305,0.55 -4.097,0.211 -5.148,-1.211 0.191,5.137 -1.243,8.65 -1.817,13.022 z m 181.998,6.661 c 4.572,-3.419 5.187,-13.627 5.451,-19.381 -0.303,0 -0.605,0 -0.908,0 -0.899,7.077 -1.741,14.209 -4.543,19.381 z m -219.245,-18.775 c 0.169,3.97 -0.533,9.242 -1.816,12.72 3.206,2.262 10.557,3.011 13.324,0 1.556,-3.694 2.174,-8.812 1.211,-12.72 -3.601,-0.502 -8.316,0.315 -12.719,0 z m 200.167,0 c -0.096,4.864 -1.902,9.588 -2.726,12.72 3.149,2.358 9.638,1.554 13.022,0 2.048,-3.034 3.708,-7.955 3.029,-12.72 -4.442,0 -8.884,0 -13.325,0 z m 46.029,0.909 c 0.202,0 0.403,0 0.605,0 0.339,-0.436 0.327,-0.739 -0.303,-0.909 -0.016,0.388 -0.387,0.42 -0.302,0.909 z m -340.373,0.606 c 0.442,0.919 3.085,1.015 2.422,-0.908 -1.075,0.035 -2.44,-0.219 -2.422,0.908 z m 334.316,1.514 c -0.324,3.712 -1.847,6.227 -3.028,9.085 2.683,-0.146 5.976,0.322 8.176,-0.304 -0.309,-3.18 -0.024,-7.722 0.303,-11.204 -2.413,0.126 -2.672,3.628 -5.451,2.423 z m 6.057,-0.605 c 0.303,0 0.605,0 0.908,0 -0.051,-0.454 0.108,-1.119 -0.303,-1.213 0,0.602 -0.825,0.386 -0.605,1.213 z m -337.951,0.907 c -0.383,-0.346 -2.388,-0.607 -2.726,0 0.636,0.53 2.223,0.994 2.726,0 z m 192.293,9.994 c 6.331,-0.305 11.821,1.097 17.563,-0.304 1.037,-1.688 1.977,-3.473 2.422,-5.753 -2.012,0.248 -3.236,1.066 -4.844,1.211 -5.625,0.51 -9.136,-2.457 -12.114,-5.148 -0.594,3.746 -1.791,6.889 -3.027,9.994 z m -193.807,-7.268 c 0.403,-0.304 1.127,-0.286 1.211,-0.909 -0.382,-0.347 -2.387,-0.607 -2.726,0 0.714,0.094 0.564,1.053 1.515,0.909 z m 339.162,0.302 c 0.303,0 0.606,0 0.909,0 0,-0.302 0,-0.604 0,-0.907 -0.202,0 -0.404,0 -0.605,0 -0.017,0.387 -0.389,0.419 -0.304,0.907 z m -340.07,1.213 c 0.624,-0.183 2.104,0.488 1.816,-0.605 -0.605,0 -1.211,0 -1.816,0 0,0.2 0,0.402 0,0.605 z m 339.767,0.907 c 0.303,0 0.606,0 0.909,0 0,-0.302 0,-0.605 0,-0.907 -0.202,0 -0.404,0 -0.606,0 -0.017,0.386 -0.388,0.419 -0.303,0.907 z m -338.859,0.606 c 0.467,-0.914 -1.567,-0.795 -1.515,-0.302 0.352,0.254 0.813,0.399 1.515,0.302 z m 320.69,0.303 c 0,0.302 0,0.606 0,0.908 -1.33,4.353 -2.668,10.073 -3.633,14.537 -0.371,1.711 -0.457,3.801 -0.909,5.148 -0.406,1.208 -1.676,1.888 -1.514,3.028 3.129,0 6.259,0 9.388,0 1.857,-7.833 3.724,-15.657 5.451,-23.62 -2.928,-0.001 -5.856,-0.001 -8.783,-0.001 z m 18.472,1.212 c 0.798,0.091 0.994,-0.419 0.909,-1.211 -0.798,-0.092 -0.995,0.419 -0.909,1.211 z m -261.337,0 c -0.982,4.369 -1.771,8.928 -2.423,13.627 3.397,0.741 3.706,4.571 3.634,8.782 0.818,0.236 3.319,0.827 3.634,-0.302 -1.243,0.031 -2.473,0.05 -3.029,-0.607 0.738,-0.574 2.534,-0.091 3.332,-0.604 0.809,-7.065 2.415,-13.332 3.028,-20.592 -2.15,-0.677 -5.529,-0.125 -8.176,-0.304 z m -50.874,1.514 c 0.303,0 0.605,0 0.908,0 0.04,-0.544 -0.3,-0.709 -0.908,-0.607 0,0.203 0,0.404 0,0.607 z m 3.029,-0.303 c -0.388,-0.017 -0.42,-0.388 -0.909,-0.304 -0.471,0.746 1.028,0.891 0.909,0.304 z m 310.091,1.816 c 0.38,-0.546 1.143,-2.269 -0.303,-2.12 -0.01,0.507 -0.986,2.213 0.303,2.12 z m -50.875,0.606 c -26.54,-0.457 -51.18,-0.381 -76.312,-0.606 -2.534,2.236 -6.599,1.515 -11.81,1.515 -3.107,0 -6.799,0.429 -9.085,0 -1.022,-0.193 -2.025,-1.053 -3.028,-1.211 -4.099,-0.648 -8.998,-0.304 -13.324,-0.304 -10.767,0 -22.032,0.632 -32.705,0.304 -1.793,1.413 -4.95,3.596 -7.571,1.513 -0.043,1.168 0.237,2.66 -0.605,3.029 -0.775,0.738 -2.396,0.63 -3.937,0.605 -1.243,-0.373 -1.202,-2.028 -1.514,-3.331 -1.41,0.003 -1.672,1.153 -3.332,0.907 -1.376,-0.61 -1.829,-1.934 -3.633,-2.422 -4.264,-1.152 -11.728,0.854 -16.958,0 -2.984,1.963 -4.018,9.332 -2.422,13.021 1.596,-0.624 1.414,-3.028 3.331,-3.331 3.956,1.293 10.211,0.289 15.141,0.605 0.605,-0.809 0.161,-2.665 1.212,-3.028 3.633,0 7.268,0 10.902,0 5.193,-4.47 13.234,-2.995 23.317,-3.028 19.529,-0.064 40.387,0.302 62.382,0.302 5.895,0 11.865,0 17.563,0 6.32,0 12.593,-0.598 18.169,0 3.592,0.386 5.275,2.805 7.874,3.331 3.096,0.627 7.027,-0.479 9.69,0 1.075,0.338 -0.063,2.889 1.514,2.726 5.344,-0.208 11.741,0.638 15.747,-0.909 1.796,0.62 1.383,4.953 3.332,3.635 1.334,-0.158 -0.155,-1.234 -0.303,-1.515 -1.403,-2.673 -1.23,-7.471 -2.121,-10.6 -0.602,-0.302 -1.293,-0.52 -1.514,-1.208 z m -202.286,-0.302 c -1.06,2.897 -1.817,7.645 -1.818,10.598 3.171,-1.366 5.09,-6.192 3.332,-10.598 -0.505,0 -1.01,0 -1.514,0 z m 212.885,13.627 c 1.615,0.261 2.592,-0.726 3.332,0.302 -0.565,3.205 1.276,5.498 0.605,9.691 -1.109,0.911 -0.704,3.333 -1.211,4.844 -0.849,0.363 -2.09,0.333 -3.332,0.304 -1.452,1.407 -1.426,2.166 -3.028,2.12 -1.812,-0.055 -2.143,-2.32 -3.634,-2.12 -2.186,0.293 -1.204,3.669 -3.937,3.937 -6.759,-1.067 -15.746,-0.605 -23.923,-0.605 -6.322,0 -12.924,-0.515 -17.563,-0.302 -0.822,0.036 -1.399,0.612 -2.12,0.604 -1.04,-0.01 -1.978,-0.576 -3.028,-0.604 -2.475,-0.069 -5.056,-0.012 -7.268,0 -42.738,0.211 -84.15,0.34 -126.278,0 -1.11,0.101 -1.223,1.199 -2.726,0.907 -1.915,-0.508 -1.398,-3.447 -3.331,-3.937 -1.77,2.11 -5.96,3.569 -7.268,0 -1.32,0.008 -2.804,0.181 -3.331,-0.606 0.309,-2.082 -0.725,-3.547 -0.909,-5.148 -0.293,-2.546 0.414,-5.237 0.304,-8.176 0.757,-1.059 2.729,-0.904 3.33,-2.12 -0.093,-5.66 0.082,-11.588 -4.845,-12.416 0.036,2.186 0.501,3.94 0.303,6.359 -0.875,1.852 -2.396,3.056 -3.331,4.846 0.328,1.477 0.76,2.228 0.303,3.331 -0.659,1.586 -2.247,0.997 -3.029,2.422 1.291,2.747 2.598,5.478 2.726,9.389 2.253,1.637 6.675,2.534 5.148,6.963 29.66,0.053 58.009,-0.214 86.304,0 39.612,0.302 85.92,-0.982 124.461,0 -0.524,-5.267 4.125,-5.362 5.451,-8.781 0.415,-1.726 -0.794,-1.83 -0.605,-3.33 0.795,-0.215 0.597,-1.422 1.211,-1.818 0.153,-0.855 1.933,-0.086 1.514,-1.515 -0.011,-2.208 -2.098,-2.343 -2.422,-4.239 0.04,-1.272 0.729,-1.894 1.211,-2.724 -1.435,-1.937 -4.75,-3.896 -4.542,-6.966 0.141,-2.081 1.331,-1.927 2.12,-3.937 -7.628,-1.488 -4.323,8.631 -6.662,13.325 z m 29.676,-13.325 c -1.005,2.006 -1.512,5.72 -2.422,9.388 -0.83,3.341 -2.457,6.958 -1.817,8.478 0.771,1.834 4.62,2.211 6.056,3.333 1.992,1.554 2.532,3.769 4.845,4.239 6.707,0.694 11.632,-1.544 10.599,-7.874 -0.248,-1.524 -1.878,-2.823 -2.725,-4.542 -2.181,-4.428 -2.966,-10.876 -5.451,-13.324 -2.988,0.344 -6.118,0.122 -9.085,0.302 z m -196.229,2.422 c 0.504,0 1.009,0 1.514,0 0.249,-1.458 -0.571,-1.851 -1.514,-2.119 0,0.707 0,1.413 0,2.119 z m -75.1,17.262 c -0.34,5.321 0.311,13.688 3.634,16.05 0.518,0.368 2.409,0.995 2.422,0.302 0.073,-2.48 -2.59,-2.554 -2.422,-4.844 0.213,-2.909 5.662,-3.396 6.057,-8.177 0.291,-3.536 -0.564,-4.284 1.816,-6.359 -1.18,-3.866 -1.794,-8.299 -2.422,-12.718 -1.412,-0.708 -2.234,-2.004 -3.634,-2.726 -1.637,5.002 -4.981,11.117 -5.451,18.472 z m 234.991,-17.866 c -0.235,2.358 0.39,4.569 0.605,7.57 2.326,0.311 4.001,0.832 6.056,0.302 0.366,-2.663 0.946,-5.11 0.908,-8.176 -2.209,0.528 -5.887,0.118 -7.569,0.304 z m 14.233,5.148 c 1.314,1.6 3.49,2.721 4.239,4.844 0.691,1.962 -0.399,4.8 2.12,5.452 1.721,-1.409 1.025,-5.234 1.211,-8.178 -2.137,-0.386 -3.029,-2.016 -3.634,-3.937 -0.336,0.977 -1.666,0.958 -3.028,0.909 -0.443,-0.667 -0.92,-1.3 -0.908,-2.422 0.016,-1.196 1.439,-0.983 1.816,-1.817 -2.967,0.245 -2.731,4.034 -1.816,5.149 z m 3.936,-4.846 c -0.186,-0.089 -1.166,-0.754 -1.211,0 0.564,-0.289 1.012,0.908 1.211,0 z m -215.61,0.302 c 0.136,2.894 0.233,5.825 0.909,8.178 1.727,0.599 3.463,-0.013 4.845,-0.606 0.019,-2.807 0.699,-4.953 0.908,-7.572 -1.965,-0.873 -4.418,0.167 -6.662,0 z m 214.096,0.607 c 0.037,0.771 0.441,1.173 1.211,1.211 0.306,-1.191 -0.668,-1.759 -1.211,-1.211 z m -1.514,2.119 c 0.505,0 1.009,0 1.514,0 -0.072,-0.938 -0.842,-1.175 -1.211,-1.817 -0.534,0.64 -0.683,0.896 -0.303,1.817 z m 35.128,1.818 c -0.504,-0.507 0.192,-2.211 -0.908,-2.121 0.011,0.999 -0.125,2.144 0.908,2.121 z m -82.065,1.211 c -5.067,-4.115 -14.96,-2.416 -22.41,-2.424 -15.183,-0.017 -31.725,-0.291 -48.148,-0.302 -7.252,-0.005 -16.422,0.003 -25.134,0 -11.979,-0.005 -25.01,-2.112 -31.494,2.118 0,0.909 0,1.818 0,2.726 3.586,0.452 7.262,0.813 11.507,0.607 1.027,-0.185 0.569,-1.854 1.818,-1.818 0.42,0.388 0.185,1.431 0.605,1.818 1.544,0.333 0.271,-2.151 1.816,-1.818 -0.276,1.287 0.494,1.525 1.211,1.818 0.521,-0.389 0.01,-1.812 0.909,-1.818 0.513,0.598 -0.01,2.231 1.515,1.818 1.261,-0.457 0.485,-2.947 1.211,-3.937 1.016,0.699 -0.682,4.113 1.211,3.937 1.051,0.142 0.174,-1.643 0.908,-1.818 0.662,0.045 0.65,0.764 0.605,1.515 1.306,0.396 0.375,-1.442 1.515,-1.211 0.685,0.122 -0.16,1.775 1.211,1.211 0.671,-0.238 -0.058,-1.875 1.211,-1.515 0.134,0.573 -0.412,1.825 0.605,1.515 1.543,0.533 0.417,-1.603 1.515,-1.515 0.418,0.693 0.331,1.89 1.514,1.818 1.271,-0.244 0.044,-2.985 0.909,-3.635 1.098,0.214 0.417,2.208 0.605,3.332 1.545,0.333 0.272,-2.152 1.817,-1.817 0.012,0.998 -0.125,2.142 0.908,2.12 1.197,-0.015 -0.051,-2.475 1.514,-2.12 -0.013,0.921 -0.176,1.993 0.908,1.817 0.67,-0.238 -0.058,-1.875 1.211,-1.515 -0.059,0.868 -0.037,1.653 0.909,1.515 1.126,0.318 0.593,-1.021 1.211,-1.211 0.473,0.536 0.405,1.614 1.816,1.211 0.211,-1.203 -0.528,-3.354 0.605,-3.633 0.581,0.731 0.191,2.432 0.303,3.633 1.488,0.479 1.421,-0.599 1.817,-1.211 0.861,0.25 0.475,1.746 1.817,1.515 0.954,0.146 0.227,-1.389 0.908,-1.515 0.598,0.512 0.473,1.748 1.817,1.515 0.504,-0.506 -0.192,-2.212 0.909,-2.12 0,0.605 0,1.211 0,1.817 2.557,0.92 5.75,-0.403 8.176,0.303 5.385,-2.658 11.665,0.833 18.169,0 0.602,-0.409 -0.096,-2.115 0.909,-2.12 -0.197,1.408 0.106,2.316 1.514,2.12 0.735,-0.175 -0.142,-1.96 0.909,-1.818 -0.041,0.748 -0.046,1.459 0.303,1.818 1.219,0.311 1.345,-0.472 1.816,-0.909 -0.1,1.596 2.675,0.946 2.726,0 -0.092,0.797 0.419,0.994 1.211,0.909 0.735,-0.175 -0.142,-1.96 0.909,-1.818 0.183,0.624 -0.489,2.104 0.605,1.818 1.269,0.36 0.54,-1.277 1.211,-1.515 0.036,0.772 0.058,1.558 0.909,1.515 1.269,0.36 0.541,-1.277 1.211,-1.515 0.671,0.238 -0.058,1.875 1.211,1.515 0.836,0.129 0.284,-1.13 0.908,-1.212 0.096,0.409 0.431,0.579 0.303,1.212 0.707,0 1.413,0 2.12,0 0.013,-1.401 -0.169,-2.996 0.605,-3.635 0.252,1.363 -0.774,4.004 1.211,3.635 0.843,0.136 -0.238,-1.651 0.605,-1.515 0.28,0.528 -0.01,1.625 0.908,1.515 1.475,0.464 0.909,-1.112 1.515,-1.515 0.681,0.329 0.115,1.904 1.514,1.515 0.735,-0.175 -0.142,-1.96 0.908,-1.818 -0.286,1.396 0.223,1.999 1.211,2.121 0.597,-0.209 -0.074,-1.69 0.605,-1.817 1.037,-0.026 0.176,1.843 1.212,1.817 1.716,-0.739 -0.654,-4.501 1.211,-4.542 0,1.412 0,2.826 0,4.24 0.235,0.068 0.597,0.007 0.605,0.302 2.023,0.248 0.84,-1.538 1.816,-1.817 -0.012,0.921 -0.176,1.993 0.909,1.817 1.129,0.12 0.127,-1.891 0.909,-2.121 0.532,0.736 -0.375,1.987 1.211,2.121 1.094,-0.017 0.627,-1.594 1.211,-2.121 0.042,0.969 -0.298,2.318 0.909,2.121 1.565,0.353 0.317,-2.105 1.515,-2.121 -0.176,0.983 0.206,1.409 0.303,2.121 3.612,-0.122 7.872,0.402 10.599,-0.605 0.137,-1.043 -0.114,-1.7 -0.297,-2.424 z m -137.18,2.119 c 3.028,0 6.056,0 9.084,0 0,-0.706 0,-1.413 0,-2.119 -3.168,0.419 -10.881,-1.354 -9.084,2.119 z m 219.245,-1.212 c 0.304,0 0.361,0.246 0.606,0.304 -0.029,-0.477 0.04,-1.049 -0.606,-0.909 0,0.202 0,0.404 0,0.605 z m -80.552,0.91 c 0.794,0.922 2.751,0.568 4.542,0.606 1.743,0.036 4.208,0.452 4.845,-0.606 0.065,-2.29 -6.285,-0.78 -9.085,-1.211 0.069,0.572 -0.34,0.668 -0.302,1.211 z m 26.346,20.894 c 2.233,-1.62 3.09,-6.247 3.028,-9.992 -0.06,-3.686 -0.891,-8.181 -2.726,-9.993 -0.304,0 -0.36,-0.246 -0.605,-0.303 3.143,5.198 3.21,14.138 0.303,20.288 z m -92.664,-19.985 c -0.811,0.843 1.193,2.105 0.303,3.028 -12.319,0.416 -28.902,0.302 -44.211,0.302 -4.176,0 -8.611,0.662 -11.811,0 -1.594,-0.329 -3.55,-2.621 -5.451,-3.028 -3.906,-0.84 -8.924,0 -13.324,0 -4.655,0 -9.208,0 -13.325,0 0.641,5.042 1.018,12.023 0.303,18.169 31.948,0.324 61.71,-0.191 92.058,0.302 2.672,0.043 5.447,-0.013 8.177,0 24.233,0.124 52.004,0.168 78.734,0 2.459,-4.726 2.333,-14.639 -0.909,-17.866 -5.794,-0.426 -10.551,-0.568 -15.747,-0.605 -2.896,-0.021 -6.537,-0.605 -9.085,0 -1.968,0.468 -3.645,2.703 -5.451,3.028 -3.003,0.541 -6.756,0 -10.296,0 -8.96,0 -17.44,-0.302 -25.74,-0.302 -1.675,0 -4.168,0.499 -4.845,-0.605 11.007,-0.193 23.203,0.135 32.705,0.302 3.389,0.06 7.7,0.899 9.69,-1.816 -18.892,0.244 -34.066,-0.917 -53.902,0 0.992,3.044 7.505,0.569 10.296,1.816 -2.728,0.705 -6.762,0.103 -9.993,0.304 -1.395,-0.422 -0.995,-2.64 -2.423,-3.028 -1.918,-0.001 -3.835,-0.001 -5.753,-0.001 z m 147.778,0.907 c 0.202,0 0.403,0 0.605,0 0,-0.201 0,-0.404 0,-0.605 -0.202,0 -0.403,0 -0.605,0 0,0.201 0,0.404 0,0.605 z m -155.348,-0.303 c -16.597,0 -36.523,-0.394 -49.966,0.607 3.658,1.949 8.596,1.211 13.324,1.211 11.98,0 24.729,0 36.339,0 2.204,0 5.771,0.703 5.754,-0.909 -1.234,-1.671 -3.687,-0.909 -5.451,-0.909 z m -104.778,3.029 c 1.291,0.708 1.884,-0.61 1.817,-2.12 -0.602,-0.003 -0.385,-0.827 -1.212,-0.605 -0.477,0.631 -0.209,2.011 -0.605,2.725 z m 20.289,-1.515 c 0.037,0.924 0.836,0.974 1.211,2.121 0.317,0.967 -0.61,2.904 0.909,3.027 -0.342,-2.181 -0.349,-4.697 -1.515,-6.055 -0.146,0.357 -0.321,0.686 -0.605,0.907 z m 191.082,0.304 c 0.916,-0.094 2.355,0.336 2.423,-0.607 -0.916,0.096 -2.355,-0.335 -2.423,0.607 z m 14.536,0.908 c 0.178,-0.72 0.464,-1.409 -0.605,-1.515 -0.632,0.604 -0.011,1.294 0.605,1.515 z m 36.338,-0.302 c 0.141,-0.949 -0.263,-1.351 -1.211,-1.212 -0.14,0.948 0.264,1.352 1.211,1.212 z m -272.238,3.331 c 0.711,0.096 1.137,0.479 2.12,0.302 0.327,-1.303 0.064,-3.909 -1.212,-4.542 -0.483,1.232 -0.461,2.971 -0.908,4.24 z m 28.466,-3.635 c -0.187,-0.089 -1.166,-0.752 -1.211,0 0.186,0.089 1.166,0.754 1.211,0 z m 191.687,3.635 c 2.585,-0.14 5.769,0.317 7.874,-0.304 -0.067,-0.975 0.535,-1.282 0.303,-2.422 -1.503,-1.122 -4.845,-0.406 -7.269,-0.605 -0.086,1.44 0.287,2.052 -0.908,3.331 z m -1.817,-1.818 c 0.158,-0.447 0.448,-0.762 0.606,-1.211 -1.011,-0.563 -1.275,1.089 -0.606,1.211 z m 54.812,0.303 c 0.055,-0.66 -0.248,-0.964 -0.909,-0.909 -0.055,0.662 0.248,0.964 0.909,0.909 z m -254.372,1.817 c 0.747,-0.04 1.458,-0.046 1.816,0.302 0.359,-0.751 0.439,-1.782 0.606,-2.724 -0.807,0 -1.615,0 -2.422,0 0,0.807 0,1.615 0,2.422 z m 4.845,0.302 c 1.548,-0.875 5.104,0.26 6.662,-0.604 -0.01,-0.714 0.521,-0.893 0.303,-1.818 -2.049,-0.477 -6.134,-0.523 -8.176,0 1.217,-0.005 -0.01,2.428 1.211,2.422 z m 194.715,-0.604 c 0.44,-0.167 1.565,0.353 1.514,-0.304 -0.63,-0.178 -0.979,-0.637 -1.514,-0.907 0,0.403 0,0.807 0,1.211 z m 0,5.752 c 3.432,0 6.864,0 10.296,0 0.425,-1.703 0.758,-3.79 0,-5.148 -3.332,0 -6.662,0 -9.993,0 0.185,2.003 -0.529,3.105 -0.303,5.148 z M 985.075,453.82 c 0.388,0.016 0.42,0.388 0.909,0.303 1.854,-0.366 5.196,0.754 6.056,-0.605 -1.893,-0.168 -5.238,-0.865 -6.965,0.302 z m 22.409,3.635 c 0.725,0.183 1.381,0.434 2.422,0.302 0.478,-0.774 0.478,-3.163 0,-3.937 -0.439,-0.469 -1.55,-0.266 -2.422,-0.302 -0.318,1.236 0.15,2.135 0,3.937 z m 3.936,0.302 c 1.041,0.132 1.698,-0.119 2.423,-0.302 -0.894,-1.952 0.86,-3.203 2.422,-3.635 1.791,0.407 1.793,2.534 1.817,3.937 3.206,0.533 3,-2.693 1.816,-4.239 -2.826,0 -5.653,0 -8.479,0 -0.479,0.855 -0.479,3.383 10e-4,4.239 z m 251.647,-4.239 c -0.243,1.833 1.388,0.201 0,0 z m -38.156,1.513 c 3.467,0.436 8.967,0.445 12.719,0.304 1.209,-0.046 3.358,0.638 3.633,-0.909 -6.435,0.519 -12.142,-1.192 -16.352,0.605 z m -210.159,1.817 c 0.852,-0.056 1.29,-0.526 1.211,-1.513 -0.303,0 -0.605,0 -0.908,0 -0.255,0.351 -0.4,0.811 -0.303,1.513 z m 229.54,-0.908 c -0.103,-0.244 -0.804,-0.366 -0.908,0 -0.2,0.702 1.183,0.655 0.908,0 z m -4.239,0.606 c -1.02,-0.919 -0.919,1.12 0,0 z m 22.712,1.211 c 0.174,-0.183 0.709,-1.437 0,-1.513 0.18,0.538 -0.888,1.257 0,1.513 z m -32.706,-1.211 c -0.439,0.165 -1.565,-0.355 -1.514,0.302 0.44,-0.165 1.565,0.355 1.514,-0.302 z m 4.543,0.605 c 0.202,0 0.403,0 0.605,0 0,-0.201 0,-0.404 0,-0.605 -0.202,0 -0.403,0 -0.605,0 0,0.201 0,0.404 0,0.605 z m 11.81,0.908 c -10e-4,-0.904 -0.543,-1.272 -1.211,-1.513 0.17,0.738 0.258,1.558 1.211,1.513 z M 985.68,456.848 c -0.072,0.433 -0.498,0.512 -0.605,0.909 0.384,5.126 -3.357,6.131 -5.451,8.783 0.611,3.179 5.79,1.869 8.177,1.815 2.022,-3.023 3.866,-6.227 3.937,-11.204 -2.288,0.169 -4.045,-0.196 -6.058,-0.303 z m 9.388,0 c -1.313,3.734 -2.183,7.912 -3.633,11.507 4.801,-0.548 11.948,1.249 14.838,-1.211 0.074,-3.201 -3.658,-2.789 -4.845,-4.845 -0.879,-1.523 -0.264,-3.113 -1.212,-5.148 -1.287,-0.529 -3.408,-0.224 -5.148,-0.303 z m 230.449,1.211 c -0.303,2.927 -2.335,4.125 -3.633,6.057 1.621,-0.005 2.602,0.628 3.028,1.816 0.234,1.096 -2.234,2.198 -0.908,2.422 6.846,0.092 13.602,-0.15 19.684,0 -0.334,-1.406 -0.87,-4.113 1.211,-3.936 1.625,0.408 1.294,2.732 0.606,3.936 4.552,-2.211 -1.421,-5.628 -3.028,-7.267 -0.886,-0.932 -0.673,-2.96 -2.12,-3.332 -4.369,0.682 -9.974,0.122 -14.84,0.304 z m -232.568,1.212 c 0.017,-0.185 0.045,-0.358 0.303,-0.303 -0.035,-0.37 -0.091,-0.716 -0.605,-0.605 0.046,0.356 -0.053,0.859 0.302,0.908 z m 27.254,6.056 c 1.888,-0.937 1.377,-4.275 1.817,-6.661 -0.067,-0.236 -0.254,-0.353 -0.606,-0.303 -0.578,2.055 -1.336,5.174 -1.211,6.964 z m 227.723,-6.359 c -0.92,1.021 1.12,0.919 0,0 z m -239.231,2.726 c 1.35,0.422 4.129,-0.232 6.965,0 -0.132,-1.041 0.12,-1.698 0.303,-2.422 -2.422,0 -4.845,0 -7.268,0 0,0.807 0,1.615 0,2.422 z m 9.085,0 c 0.807,0 1.614,0 2.422,0 0.243,-1.051 -0.451,-1.163 -0.303,-2.12 -0.656,-0.17 -2.479,-0.723 -3.027,0 1.456,0.202 0.963,0.779 0.908,2.12 z m 189.568,0 c 0.693,0.193 1.827,0.601 2.422,0 -0.346,-1.122 -0.03,-1.755 -0.303,-2.422 -0.505,0 -1.009,0 -1.514,0 -0.161,0.848 -0.444,1.574 -0.605,2.422 z m 4.845,0.302 c 1.817,0 3.633,0 5.451,0 -0.145,-1.339 0.417,-1.504 0,-2.422 -1.46,-0.56 -3.833,-0.205 -5.754,-0.302 0.812,1.247 0,1.772 0.303,2.724 z m -219.85,-0.302 c 0.073,-0.432 0.499,-0.51 0.606,-0.909 -0.624,-0.264 -1.36,0.785 -0.606,0.909 z m 259.822,0.302 c 0.092,-0.798 -0.632,-0.78 -1.211,-0.907 -0.304,1.009 0.421,0.993 1.211,0.907 z m 6.36,-0.908 c -0.505,0 -1.01,0 -1.515,0 -0.237,1.277 1.625,1.033 1.515,0 z m -267.697,3.634 c 1.254,0.244 1.555,-0.465 1.515,-1.515 -1.031,-0.021 -1.129,0.891 -1.515,1.515 z m 21.502,-0.908 c 0.532,0.82 2.553,0.878 2.725,-0.303 -1.281,0.006 -1.946,-0.576 -2.725,0.303 z m 198.651,-0.303 c -0.311,1.018 0.942,0.472 1.515,0.605 -0.105,-1.069 -0.795,-0.782 -1.515,-0.605 z m 9.994,3.936 c 0,-0.807 0,-1.615 0,-2.422 -1.595,-0.155 -1.595,2.578 0,2.422 z M 991.132,466.54 c -2.696,0.389 -0.513,2.572 0,0 z m 99.931,2.119 c -32.827,2.416 -67.564,-0.592 -100.235,1.211 -2.46,1.175 -4.435,5.457 -9.084,5.452 0.824,3.595 -0.534,6.801 0.303,10.598 41.981,0.455 93.489,1.63 134.756,1.515 -0.717,-5.48 0.249,-11.516 0,-18.17 -8.494,-0.217 -16.793,-1.265 -25.74,-0.606 z m 26.648,1.211 c 0,5.753 0,11.507 0,17.262 9.228,1.076 18.372,-0.353 27.558,-0.304 31.863,0.172 66.913,-1.911 99.628,-2.12 0.182,-5.412 -0.047,-9.67 0,-15.444 -41.277,-0.589 -86.737,-0.13 -126.58,-0.302 -0.38,0.124 -0.619,0.39 -0.606,0.908 z m -129.91,0.303 c 0.792,0.084 1.303,-0.111 1.211,-0.909 -0.579,0.127 -1.304,0.111 -1.211,0.909 z m -5.754,-0.303 c 0,0.605 0,1.211 0,1.818 1.751,-0.37 3.438,-0.802 4.24,-2.12 -1.535,-0.022 -2.508,0.519 -4.24,0.302 z m 238.019,19.684 c 0.354,1.681 3.235,1.327 5.451,2.119 1.973,0.706 3.495,3.224 5.148,3.635 2.775,0.688 5.59,-0.975 7.571,-0.304 1.618,-3.592 9.493,-2.332 8.781,-7.268 -4.886,-1.371 -12.284,-0.231 -18.169,-0.604 0.091,1.119 1.333,1.089 0.908,2.724 -1.697,3.081 -5.917,-0.524 -3.331,-2.724 -3.07,0.204 -7.096,-1.083 -6.359,2.422 z m -232.568,0.907 c -0.423,1.422 -1.237,1.791 -2.121,1.818 -2.01,0.061 -2.626,-3.564 -4.845,-3.331 -2.813,3.171 2.926,3.057 5.452,4.239 1.106,0.518 1.959,1.845 3.028,2.12 2.302,0.594 7.426,0.499 9.388,0 1.298,-0.33 2.661,-1.81 3.937,-2.424 1.838,-0.881 4.715,-1.206 4.24,-3.33 -1.967,-2.001 -5.483,-1.06 -8.782,-0.909 -3.693,0.168 -8.614,0.062 -11.205,-0.302 -0.117,1.125 1.226,0.791 0.908,2.119 z m 108.411,-1.211 c -1.804,2.061 1.157,4.181 2.119,5.452 10.302,0.795 23.674,-0.393 32.706,0.302 1.611,-1.214 2.763,-2.889 3.028,-5.45 -12.022,-0.05 -24.57,0.259 -37.853,-0.304 z m 74.191,3.03 c -0.357,-0.35 -1.07,-0.343 -1.817,-0.304 -0.427,0.967 1.813,0.766 1.817,0.304 z m -3.028,1.513 c 1.124,-0.188 3.117,0.492 3.331,-0.605 -1.124,0.187 -3.116,-0.492 -3.331,0.605 z m 5.148,6.359 c 0.404,-1.877 -0.105,-5.3 -1.514,-6.359 -0.589,2.601 -1.739,5.953 1.514,6.359 z m -2.423,-5.45 c -0.92,0.19 -2.608,-0.388 -3.028,0.302 0.544,0.393 2.926,0.683 3.028,-0.302 z m -3.33,2.119 c 1.42,-0.456 2.985,1.119 3.027,-0.605 -0.92,0.289 -3.07,-0.649 -3.027,0.605 z m -67.834,0 c -1.162,2.271 -0.376,6.488 -0.605,9.69 1.022,0.564 3.484,0.366 4.542,0 -0.371,-4.001 1.578,-9.671 -3.937,-9.69 z m 4.846,0.304 c 0.693,1.68 1.758,3.735 0.909,6.055 3.216,-0.013 3.602,-2.858 4.542,-5.148 -0.548,-1.436 -3.82,-1.541 -5.451,-0.907 z m 4.239,6.662 c 4.727,-0.422 7.314,-2.983 8.782,-6.663 -2.2,-0.693 -3.974,0.016 -6.359,-0.304 0.58,3.71 -2.085,4.175 -2.423,6.967 z m 9.993,-6.359 c -1.299,1.185 -1.527,3.026 -2.725,4.239 -1.58,1.599 -4.112,1.761 -5.451,3.634 -0.525,2.45 -0.218,7.41 -0.303,11.205 1.427,0.59 2.617,1.42 4.239,1.816 0.299,-0.711 0.532,-1.486 0.606,-2.422 -0.905,-1.221 -2.512,-0.349 -3.028,-2.121 -0.48,-1.646 0.681,-3.83 3.028,-3.633 1.249,-4.453 11.33,-1.818 16.655,-2.726 0.447,-2.858 0.521,-7.452 0,-10.296 -3.4,0.02 -9.196,-0.25 -13.021,0.304 z m 48.453,1.211 c 1.312,0.056 2.952,0.845 3.33,-0.607 -0.832,-0.536 -3.241,-0.554 -3.33,0.607 z m 0,1.211 c -0.014,0.416 0.143,0.663 0.303,0.908 1.253,-0.621 2.413,0.547 2.725,-0.908 -0.421,-0.594 -2.57,-0.37 -3.028,0 z m -33.917,0 c -0.644,1.274 -0.146,3.688 -0.303,5.45 7.362,-0.008 14.545,-0.191 21.5,-0.606 1.357,-2.478 2.884,-4.787 7.571,-3.937 1.966,0.356 0.71,3.934 3.331,3.635 0.699,-0.917 0.107,-3.124 0.303,-4.542 -10.903,-0.264 -22.351,0.406 -32.402,0 z m 37.55,6.359 c 0.22,1.973 0.425,4.164 1.515,5.147 0.901,-1.722 0.71,-4.537 1.211,-6.663 -1.071,-0.98 -1.065,0.951 -2.423,0.606 0.507,-1.512 1.747,-2.292 2.12,-3.937 -0.813,-0.398 -1.61,-0.812 -2.423,-1.211 -0.06,1.826 -0.263,3.695 0,6.058 z m -0.606,-4.542 c -0.572,-0.538 -2,-0.221 -3.027,-0.303 -0.571,1.827 3.152,1.553 3.027,0.303 z m -7.569,2.422 c 1.149,4.996 1.323,12.08 -0.303,16.655 -0.117,0.585 -2.265,1.701 -0.909,1.816 2.52,-1.795 2.996,-6.552 3.028,-10.296 0.033,-3.841 -0.733,-8.227 -2.725,-10.296 -0.883,0.972 0.691,1.324 0.909,2.121 z m -2.424,-1.513 c -3.475,-0.34 -2.168,0.904 0,0 z m 12.719,10.9 c 2.633,-1.605 2.032,-6.447 2.422,-10.296 -0.067,-0.234 -0.253,-0.351 -0.606,-0.302 -0.296,3.841 -0.851,7.425 -1.816,10.598 z m -6.056,-9.689 c 0.65,0.561 2.217,0.203 3.33,0.302 0.287,-1.406 -3.194,-1.203 -3.33,-0.302 z m -9.69,0.606 c 0.838,-0.272 2.843,0.622 2.725,-0.605 -0.838,0.27 -2.843,-0.624 -2.725,0.605 z m 1.816,3.633 c 0.841,1.48 1.309,3.334 3.332,3.633 -0.111,-2.716 -0.428,-5.224 -0.909,-7.57 -0.304,0 -0.606,0 -0.909,0 -0.566,1.251 -0.871,2.762 -1.514,3.937 z m -53.599,4.542 c 0.331,-1.902 0.852,-6.461 -0.303,-7.874 0.082,2.267 -0.774,6.318 0.303,7.874 z m 1.817,-7.874 c -0.615,4.407 0.096,8.509 -0.303,13.326 5.027,-0.223 1.817,-8.683 2.725,-13.022 -0.44,-0.469 -1.55,-0.267 -2.422,-0.304 z m 49.36,1.515 c 1.069,-0.142 2.917,0.495 2.725,-0.909 -1.381,0.173 -2.74,-0.982 -2.725,0.909 z m 13.021,-1.211 c -0.724,0.185 -2.197,-0.381 -2.422,0.302 0.562,0.527 2.169,0.391 2.422,-0.302 z m -82.67,0.908 c -4.102,4.805 -0.851,13.629 -0.606,20.29 3.092,-0.139 6.004,-0.457 9.388,-0.304 0.987,-6.551 -2.48,-13.627 0,-19.986 -2.627,-0.86 -5.61,0.41 -8.782,0 z m 10.295,0.303 c -1.02,-0.92 -0.918,1.119 0,0 z m -27.253,0.908 c -4.753,0.125 -10.088,-0.3 -11.811,0.909 -2.334,1.639 -1.827,7.544 -0.605,10.598 7.82,0.433 17.368,0.021 25.438,-0.302 -0.933,-2.688 -0.385,-5.61 0,-8.176 0.196,-1.31 1.383,-3.308 -0.303,-3.635 -2.969,0.296 -7.922,0.48 -12.719,0.606 z m 66.015,0.303 c 1.507,0.309 2.473,1.16 2.725,2.726 2.327,0.403 5.389,-0.318 6.662,-0.605 3.365,-0.759 8.486,0.988 8.782,-2.726 -5.739,-0.68 -12.778,-0.068 -18.169,0.605 z m 31.494,-0.303 c 0.516,0.594 2.904,0.5 2.725,-0.605 -0.838,0.271 -2.843,-0.623 -2.725,0.605 z m -11.811,0.607 c 0.844,0.45 2.759,1.024 3.029,-0.304 -0.35,-0.826 -3.078,-1.006 -3.029,0.304 z m -59.959,0.907 c -0.33,3.893 -0.518,8.567 0.909,11.507 0.706,0 1.413,0 2.119,0 0.038,-2.655 -0.168,-3.737 0,-6.056 0.259,-0.954 1.667,-0.756 1.817,-1.818 -0.588,-2.605 1.244,-2.792 1.211,-4.844 -2.463,-0.041 -4.314,0.532 -6.056,1.211 z m 21.803,0 c -1.807,3.241 0.065,6.882 -0.908,9.992 -1.117,3.571 -4.433,4.624 -6.663,6.967 7.694,0.15 16.516,-0.014 24.832,0.302 0.94,-5.663 -0.323,-12.425 0.303,-17.866 -6.319,0.408 -11.657,-0.045 -17.564,0.605 z m 52.994,-0.303 c -0.42,-0.689 -2.107,-0.112 -3.027,-0.302 -0.25,1.109 2.99,1.44 3.027,0.302 z m -67.226,4.24 c 0.328,-1.556 0.444,-2.8 0,-4.241 -2.072,0.234 -3.132,5.502 0,4.241 z m 32.402,-1.211 c 1.064,-0.348 1.921,-0.904 1.816,-2.422 -0.409,-0.096 -0.578,-0.433 -1.211,-0.304 -0.436,0.674 -0.76,1.461 -0.605,2.726 z m 19.683,-2.422 c -0.571,1.828 3.153,1.554 3.029,0.302 -1.11,-0.814 -1.592,-0.346 -3.029,-0.302 z m 12.114,0.907 c 0.572,0.538 2,0.221 3.027,0.304 -0.189,-1.249 -2.45,-1.021 -3.027,-0.304 z m -21.501,0.304 c -0.458,0.853 -0.732,1.893 -0.606,3.33 1.437,1.483 5.91,1.234 7.874,1.212 -0.161,-1.904 0.256,-4.065 0,-5.148 -2.637,-0.013 -5.023,0.227 -7.268,0.606 z m 12.719,4.239 c 2.521,-0.414 1.766,-3.221 0.303,-4.239 -0.493,1.668 -0.681,2.614 -0.303,4.239 z m -3.635,-2.422 c 1.012,-0.3 3.395,0.769 3.029,-0.909 -0.42,-0.69 -2.108,-0.112 -3.029,-0.302 0,0.404 0,0.807 0,1.211 z m 13.022,-0.606 c 0.42,0.69 2.108,0.112 3.028,0.302 0.418,-1.277 -3.08,-1.349 -3.028,-0.302 z m -29.676,0.908 c 0.088,-0.185 0.753,-1.165 0,-1.211 -0.089,0.186 -0.754,1.166 0,1.211 z m 2.725,1.514 c -0.188,-0.822 0.384,-2.402 -0.303,-2.726 -0.271,0.361 -0.853,2.868 0.303,2.726 z m -1.515,-0.303 c -0.458,-0.967 0.879,-2.317 -0.303,-2.119 -0.275,0.776 -0.491,1.716 0.303,2.119 z m 3.332,-0.604 c 0.202,0 0.404,0 0.606,0 0.185,-0.018 0.359,-0.046 0.303,-0.304 -0.521,-0.094 0.394,-1.053 -0.909,-0.909 0,0.404 0,0.809 0,1.213 z m 25.74,0 c 0.822,-0.188 2.403,0.383 2.725,-0.304 -0.36,-0.27 -2.866,-0.853 -2.725,0.304 z m -13.93,0.604 c 0.518,0.694 2.312,0.112 3.332,0.303 0.56,-1.864 -3.44,-1.561 -3.332,-0.303 z m -54.508,0 c 0.668,1.351 3.79,0.247 5.451,0.607 -0.211,-1.678 -4.301,-0.853 -5.451,-0.607 z m 35.43,0.909 c -0.078,2.668 -0.029,6.292 0.303,8.783 0.14,1.058 -0.937,3.411 1.514,2.724 0.226,-3.76 1.532,-11.222 -1.816,-12.416 -10e-4,0.303 -10e-4,0.607 -10e-4,0.909 z m 35.127,-0.606 c -2.405,0.16 1.483,-0.099 0,0 z m -10.296,7.269 c 1.003,-1.926 1.792,-4.064 1.818,-6.965 -2.813,-0.213 -4.937,5.767 -1.818,6.965 z m -59.959,-6.36 c 0.237,1.51 5.484,1.355 5.754,0 -2.173,-0.43 -2.793,0.147 -5.754,0 z m 54.206,0.606 c 0.647,0.35 3.553,0.866 3.332,-0.605 -0.977,-0.395 -3.146,-0.654 -3.332,0.605 z m -8.479,0.908 c -1.154,-0.191 -1.716,-1.053 -3.028,-1.211 -1.244,-0.149 -2.563,0.728 -4.24,0.303 -1.188,2.456 -0.094,7.447 -0.303,10.598 3.182,0.475 8.333,0.52 11.507,0 0.12,-1.432 -0.097,-2.526 -0.303,-3.633 0.39,-1.226 1.692,-1.54 2.726,-2.12 0.12,-1.432 -0.097,-2.528 -0.303,-3.633 -2.334,-0.557 -4.278,-0.011 -6.056,-0.304 z m -45.727,0.303 c 1.25,0.346 4.984,0.815 5.754,-0.304 -1.251,-0.346 -4.984,-0.815 -5.754,0.304 z m 54.811,0.606 c 0.106,1.005 1.746,0.475 2.726,0.605 0.795,-2.052 -2.755,-1.953 -2.726,-0.605 z m -54.811,0.302 c 1.188,1.732 3.013,0.198 5.754,0.607 -1.376,-1.579 -4.3,-0.474 -5.754,-0.607 z m 11.205,4.542 c 0.667,-0.746 1.498,-1.328 1.816,-2.422 -0.589,-0.925 -1.505,-1.522 -3.027,-1.513 -1.937,1.536 -0.355,2.871 1.211,3.935 z m -7.571,-3.331 c -0.938,-0.074 -3.056,-0.432 -3.33,0.607 1.816,0 3.633,0 5.451,0 0.056,-1.079 -1.453,-0.553 -2.121,-0.607 z m 51.177,0 c -0.065,1.312 3.425,1.352 3.332,0 -0.621,-0.469 -2.711,-0.469 -3.332,0 z m -57.536,2.424 c -0.37,1.681 -0.252,3.704 0.303,4.844 3.402,-0.13 7.371,0.305 10.296,-0.302 0,-1.313 0,-2.625 0,-3.937 -2.43,-2.032 -7.213,-1.392 -10.599,-0.605 z m 58.142,-0.606 c 10e-4,1.376 3.003,0.928 3.028,-0.303 -1.028,0.082 -2.455,-0.235 -3.028,0.303 z m -79.037,0 c -0.453,0.051 -1.118,-0.109 -1.211,0.302 0.453,-0.051 1.117,0.109 1.211,-0.302 z m 1.514,0.908 c 0.206,1.411 2.554,0.676 3.028,1.818 0.537,0.572 0.22,2 0.303,3.028 0.707,0 1.413,0 2.119,0 0,-1.919 0,-3.836 0,-5.754 -1.722,0.396 -5.152,-0.914 -5.45,0.908 z m 73.284,4.846 c 3.055,0.678 7.474,-0.005 10.599,0.605 0.611,-1.018 0.041,-2.412 0,-3.029 -3.284,0.866 -7.666,0.468 -7.874,-2.724 -3.564,-0.939 -2.651,2.598 -2.725,5.148 z m -77.826,-4.846 c -0.627,0.182 -1.989,-0.375 -2.12,0.304 0.628,-0.181 1.989,0.374 2.12,-0.304 z m 3.634,0 c -1.94,-0.35 -0.665,0.925 0,0 z m 79.34,0.909 c 0.724,-0.185 2.197,0.379 2.422,-0.304 -0.442,-0.406 -2.398,-0.619 -2.422,0.304 z m -87.213,1.211 c 0.111,1.201 -0.278,2.902 0.303,3.633 3.404,-0.533 7.646,-0.226 10.901,-0.907 0,-0.909 0,-1.817 0,-2.726 -2.961,-1.365 -8.379,-1.751 -11.204,0 z m 39.972,0 c -0.051,-0.454 0.108,-1.117 -0.303,-1.211 -0.393,0.403 -0.399,1.127 0.303,1.211 z m 48.755,0 c 0.536,-0.069 1.516,0.305 1.211,-0.605 -0.403,0 -0.808,0 -1.211,0 0,0.2 0,0.404 0,0.605 z m -87.516,7.268 c 27.109,-0.999 57.383,-1.812 83.276,-0.606 2.231,0.104 10.958,1.812 11.204,-0.909 0.207,-2.282 -5.026,-2.046 -6.359,-2.12 -3.478,-0.193 -6.004,-0.274 -7.873,-0.302 -25.561,-0.39 -52.674,-1.274 -77.826,0.605 -2.692,0.201 -6.588,-0.571 -7.57,2.12 0.782,2.007 3.577,1.27 5.148,1.212 z m 25.134,1.817 c 0.097,-0.703 -0.048,-1.163 -0.303,-1.515 -0.303,0 -0.605,0 -0.908,0 -0.079,0.988 0.359,1.457 1.211,1.515 z m 1.817,4.238 c 3.014,0.691 6.606,-0.386 10.296,0 0.491,-1.302 0.491,-4.452 0,-5.753 -3.432,0 -6.864,0 -10.296,0 0,1.919 0,3.836 0,5.753 z m 11.507,-5.753 c -0.661,1.884 -0.184,4.674 0,6.663 -0.44,0.771 -1.499,0.924 -2.422,1.211 -0.244,4.081 0.212,7.46 0.908,10.598 2.015,0.958 3.598,-0.463 5.753,-0.302 1.406,0.511 2.68,1.157 4.542,1.211 1.077,0.54 0.667,2.564 1.514,3.332 2.435,-0.492 5.604,-0.251 8.479,-0.304 -0.439,-11.24 2.638,-18.963 10.296,-22.105 -2.927,0 -5.854,0 -8.782,0 -0.063,1.45 0.301,3.328 -0.605,3.937 -2.123,-0.2 -5.043,0.399 -6.662,-0.304 -0.597,-0.817 -0.181,-2.646 -0.303,-3.937 -4.239,0 -8.479,0 -12.718,0 z m 14.535,2.726 c 1.616,0 3.23,0 4.846,0 0.096,-0.711 0.479,-1.137 0.303,-2.121 -0.924,-1.094 -3.614,-0.422 -5.451,-0.605 0.062,0.949 -0.204,2.223 0.302,2.726 z m -37.549,0 c 1.817,0 3.634,0 5.451,0 0,-0.707 0,-1.413 0,-2.121 -1.717,-0.338 -6.58,-1.377 -5.451,2.121 z m 66.015,-2.12 c -0.956,0.838 -0.759,4.185 -0.303,5.452 3.525,-0.125 6.137,-0.338 10.296,-0.304 0.609,-0.904 0.17,-2.856 0.303,-4.239 -2.437,-1.299 -7.377,-0.093 -10.296,-0.909 z m -82.973,1.211 c 0,1.515 0,3.029 0,4.542 3.735,0 7.469,0 11.204,0 0.646,-2.411 0.397,-3.047 0.303,-5.45 -4.062,0.076 -8.193,0.084 -11.507,0.908 z m 12.112,6.359 c -0.948,0.062 -2.223,-0.203 -2.726,0.304 -0.432,3.864 0.563,6.301 1.212,9.085 2.719,-0.142 5.599,-0.107 8.176,0.605 0,2.12 0,4.239 0,6.359 -1.728,1.503 -5.253,1.206 -8.479,1.211 -0.762,3.449 1.312,6.242 2.12,9.085 2.643,-0.247 5.755,0.605 8.176,0 3.344,-0.836 4.818,-4.829 5.148,-8.479 -2.019,-0.505 -5.229,0.181 -6.36,-1.211 0.167,-2.054 -0.355,-4.796 0.303,-6.359 2.488,-0.843 6.89,0.228 9.388,-0.605 -0.493,-1.757 -0.102,-2.457 0.605,-3.633 -0.702,-1.619 -0.103,-4.539 -0.303,-6.663 -0.9,-0.31 -2.42,-10e-4 -2.725,-0.909 0.257,-2.982 -1.388,-4.062 -3.331,-4.845 0.7,4.031 -4.787,1.875 -7.57,2.422 -0.478,-0.632 -0.21,-2.011 -0.605,-2.726 -4.599,-1.924 -1.627,4.814 -3.029,6.359 z m 52.389,-3.633 c -0.062,0.947 0.205,2.224 -0.303,2.726 -0.523,0.687 -1.837,0.586 -2.119,1.515 0.017,3.597 0.032,6.735 0.303,9.387 2.979,0.927 6.227,0.358 8.781,1.211 0.493,1.396 0.493,4.661 0,6.057 -1.614,0 -3.23,0 -4.844,0 -0.099,2.543 1.11,7.079 3.331,9.085 3.203,0.353 7.712,0.594 10.599,0.302 0.847,-2.585 2.205,-4.659 2.12,-8.176 -3.155,-0.782 -8.008,0.134 -10.296,-1.515 -0.084,-0.841 10e-4,-4.953 0,-5.753 2.62,-0.913 6.811,-0.254 9.69,-0.909 1.075,-2.861 1.474,-6.398 1.211,-10.598 -0.255,-0.651 -1.93,0.114 -2.12,-0.605 -0.684,-1.983 0.088,-3.546 -0.303,-5.753 -6.753,0.09 -12.791,-0.745 -16.05,3.026 z m -28.163,3.029 c -1.716,0 -3.432,0 -5.148,0 0.395,1.218 0.598,0.743 0,1.817 1.317,0.413 4.885,0.716 5.754,-0.304 -0.655,-0.574 -1.884,-0.358 -2.121,-0.605 0.208,-0.601 1.805,0.188 1.515,-0.908 z m 48.755,0.604 c 1.468,-0.348 4.366,0.732 4.845,-0.604 -1.468,0.346 -4.365,-0.733 -4.845,0.604 z m -81.46,1.213 c 1.08,0.178 4.72,1.092 4.845,-0.606 -0.277,0.586 -4.568,-0.198 -4.845,0.606 z m 81.46,-0.606 c 0.035,0.37 0.091,0.716 0.605,0.606 2.005,-0.333 3.686,0.875 4.542,-0.606 -1.834,0.228 -4.161,-0.355 -5.147,0 z m -81.762,2.118 c 1.599,0.345 4.58,0.652 5.451,-0.605 -1.938,0.399 -4.737,-1.353 -5.451,0.605 z m 27.859,-0.605 c 0.337,1.746 4.449,0.772 5.754,0.605 -0.393,-1.588 -4.452,-0.909 -5.754,-0.605 z m 59.051,-0.302 c -1.816,0 -3.634,0 -5.451,0 0.102,1.444 5.349,1.444 5.451,0 z m -5.451,1.817 c 1.274,0.644 3.689,0.147 5.451,0.302 -0.466,-1.218 -4.655,-1.363 -5.451,-0.302 z m -81.459,0.302 c 1.15,0.429 4.436,0.685 5.148,-0.302 -1.075,-0.355 -4.55,-0.799 -5.148,0.302 z m 27.859,-0.302 c 0.609,0.938 5.074,1.719 5.451,0 -1.21,-0.49 -4.241,-0.49 -5.451,0 z m 53.6,1.513 c 1.104,0.294 4.851,0.891 5.451,-0.302 -1.114,-0.398 -4.802,-0.772 -5.451,0.302 z m -81.459,0 c 0,0.304 0,0.607 0,0.909 1.95,0.012 4.306,0.774 5.451,-0.605 -0.683,-1.109 -4.29,-0.654 -5.451,-0.304 z m 28.163,0 c 0.668,1.352 3.79,0.248 5.451,0.607 -0.322,-1.566 -4.232,-0.924 -5.451,-0.607 z m 0.908,1.213 c -0.318,0.017 -0.239,0.388 0.303,0.302 2.467,-0.173 4.326,0.195 1.816,-0.302 -0.412,-0.083 -0.576,-0.442 -1.211,-0.304 -0.416,-0.013 -0.665,0.144 -0.908,0.304 z m 52.691,0.301 c 1.992,-0.072 3.822,0.015 5.451,0.304 -0.139,-1.546 -4.85,-1.171 -5.451,-0.304 z m -24.226,0.606 c 0.202,0 0.404,0 0.606,0 0.47,-0.744 -1.029,-0.889 -0.909,-0.302 0.185,0.017 0.359,0.045 0.303,0.302 z m -57.839,2.12 c 2.054,-0.167 4.797,0.354 6.359,-0.304 -0.097,-0.701 0.049,-1.162 0.303,-1.513 -1.328,-1.196 -4.691,-0.356 -6.964,-0.605 0.035,0.871 -0.166,1.982 0.302,2.422 z m 28.162,0.908 c 2.12,0 4.239,0 6.359,0 0.348,-0.848 0.348,-1.574 0,-2.422 -2.547,0.275 -8.106,-1.175 -6.359,2.422 z m 52.692,0 c 1.503,0.007 5.108,0.774 7.267,0 0,-0.706 0,-1.413 0,-2.119 -1.854,-0.67 -4.917,-0.128 -7.267,-0.304 0,0.809 0,1.616 0,2.423 z m -77.523,4.544 c 1.091,-0.517 0.66,-3.858 0.303,-4.846 -0.303,0 -0.605,0 -0.908,0 0.348,1.468 -0.732,4.366 0.605,4.846 z m 2.12,0 c 0.699,-0.917 0.107,-3.125 0.303,-4.544 -0.417,0.013 -0.665,-0.142 -0.909,-0.302 -0.325,1.685 -0.739,4.476 0.606,4.846 z m 1.817,0 c 0.713,-1.218 0.73,-3.822 -0.303,-4.846 -0.29,0.92 -0.886,4.427 0.303,4.846 z m -11.811,0.302 c 0.289,-0.832 0.883,-4.214 -0.303,-4.542 -1.17,-0.789 -1.604,4.779 0.303,4.542 z m 0.909,-4.543 c 0.711,1.006 -0.394,3.826 0.909,4.241 1.328,-0.388 0.263,-3.17 0.605,-4.544 -0.702,-0.096 -1.163,0.049 -1.514,0.303 z m 3.028,4.241 c 1.186,-0.33 0.591,-3.713 0.303,-4.544 -0.303,0 -0.606,0 -0.909,0 0.343,1.374 -0.722,4.156 0.606,4.544 z m 2.12,0 c 0.699,-0.917 0.107,-3.125 0.304,-4.544 -0.404,0 -0.808,0 -1.212,0 0.339,1.478 -0.827,4.46 0.908,4.544 z m 7.874,0 c 0.34,-0.856 0.963,-4.591 -0.606,-4.544 -0.34,0.856 -0.964,4.59 0.606,4.544 z m 1.513,0.302 c 0.026,-0.86 1.177,-4.345 -0.605,-4.846 0.274,1.543 -0.625,4.259 0.605,4.846 z m 1.818,0 c -0.395,-2.191 0.722,-4.034 -0.909,-4.846 0.293,1.625 -0.76,4.597 0.909,4.846 z m -19.381,-0.302 c 0.36,-0.777 0.932,-4.356 -0.605,-4.241 -0.105,0.862 -1.185,4.366 0.605,4.241 z m -1.817,0 c 0.263,-1.241 0.672,-3.548 -0.606,-3.937 0.327,1.186 -0.701,3.729 0.606,3.937 z m 34.521,0.604 c 0.408,-0.922 0.866,-4.491 -0.605,-4.541 -0.061,1.133 -1.153,4.399 0.605,4.541 z m 3.937,0.303 c 0.409,-1.13 0.814,-4.567 -0.605,-4.844 -0.433,1.265 -1.411,4.577 0.605,4.844 z m 3.937,0 c 0.545,-1.289 0.386,-3.436 0.303,-4.542 -0.387,-0.017 -0.419,-0.388 -0.909,-0.302 -0.193,0.914 -1.144,4.896 0.606,4.844 z m -43.91,-0.605 c -0.327,-1.187 0.702,-3.729 -0.605,-3.937 0.326,1.186 -0.701,3.729 0.605,3.937 z m 31.191,0.302 c 0.01,-1.619 0.121,-3.351 -0.605,-4.239 -0.285,1.078 -0.645,3.348 0.605,4.239 z m 1.212,0 c 0.36,-0.775 0.931,-4.353 -0.606,-4.239 0.336,1.28 -0.713,3.943 0.606,4.239 z m 1.817,0 c 0.36,-0.775 0.931,-4.353 -0.606,-4.239 -0.297,0.84 -0.978,4.308 0.606,4.239 z m 3.634,0 c 0.697,-0.815 0.107,-2.92 0.303,-4.239 -0.303,0 -0.605,0 -0.909,0 -0.297,0.84 -0.977,4.308 0.606,4.239 z m 3.936,0.303 c 0.699,-0.916 0.107,-3.124 0.303,-4.542 -0.403,0 -0.807,0 -1.211,0 0.339,1.477 -0.826,4.46 0.908,4.542 z m 4.24,0 c 0.699,-0.916 0.107,-3.124 0.303,-4.542 -0.504,0 -1.009,0 -1.514,0 0.207,1.711 -0.524,4.359 1.211,4.542 z m 0.908,0 c 0.528,-0.023 0.942,0.067 1.212,0.304 0.867,-1.206 0.39,-3.285 0,-4.846 -0.303,0 -0.606,0 -0.909,0 -0.335,1.28 -0.349,2.881 -0.303,4.542 z m 3.029,0.304 c 0.946,-0.569 0.751,-3.553 0.303,-4.542 -0.387,-0.018 -0.419,-0.388 -0.908,-0.304 0.162,2.223 -1.002,3.549 0.605,4.846 z m 20.591,-1.211 c -0.147,-1.409 0.91,-2.899 -0.303,-3.635 0.194,1.119 -0.391,3.016 0.303,3.635 z m 1.514,0.302 c 0.312,-0.771 0.945,-4.064 -0.605,-3.937 0.231,1.284 -0.558,3.587 0.605,3.937 z m 12.719,0.302 c 1.105,-0.529 0.813,-4.008 -0.303,-4.239 -0.287,0.744 -0.88,3.998 0.303,4.239 z m 1.817,0 c 1.146,-0.439 0.553,-3.296 0.303,-4.239 -0.303,0 -0.605,0 -0.908,0 0.032,1.82 -1.018,3.486 0.605,4.239 z m 2.12,0 c 0.444,-0.859 0.789,-4.211 -0.606,-4.239 -0.517,0.599 -0.902,3.937 0.606,4.239 z m 1.817,0 c 0.774,-0.558 1.475,-4.97 -0.909,-4.239 0.317,1.401 -0.788,4.221 0.909,4.239 z m 2.119,0 c 0.738,-0.407 0.637,-3.671 -0.303,-4.239 -0.201,0 -0.403,0 -0.605,0 0.316,1.401 -0.788,4.221 0.908,4.239 z m 1.515,0 c 1.839,-0.234 1.54,-3.99 0.303,-4.239 -0.202,0 -0.404,0 -0.605,0 0.131,1.383 -0.307,3.334 0.302,4.239 z m 2.422,0 c 0.71,-1.662 0.448,-2.711 0.303,-4.239 -0.303,0 -0.605,0 -0.908,0 -0.274,1.031 -0.909,4.092 0.605,4.239 z m 1.211,0 c 2.309,0.335 1.069,-2.8 0.908,-4.239 -0.303,0 -0.605,0 -0.908,0 0,1.414 0,2.827 0,4.239 z m 2.726,0 c 0.36,-0.775 0.931,-4.353 -0.605,-4.239 -0.19,0.947 -1.052,4.234 0.605,4.239 z m -70.861,0 c -0.194,-1.218 0.394,-3.219 -0.303,-3.935 -0.284,0.659 -0.876,3.778 0.303,3.935 z m 22.106,0.607 c 0.538,-1.013 0.798,-3.653 -0.303,-4.542 -0.351,0.767 -0.836,4.258 0.303,4.542 z m 22.107,-0.909 c -0.259,-1.256 0.695,-3.724 -0.909,-3.633 0.259,1.255 -0.696,3.724 0.909,3.633 z m 1.514,0 c -0.316,-1.097 0.688,-3.513 -0.605,-3.633 0.469,1.506 -1.278,3.443 0.605,3.633 z m 5.753,0.302 c 1.364,-0.163 0.91,-3.054 0,-3.935 0,1.311 0,2.623 0,3.935 z m 1.817,0.303 c 0.786,-0.571 1.167,-4.118 -0.303,-4.239 -0.366,0.825 -0.762,3.88 0.303,4.239 z m 19.381,-0.303 c 0.697,-0.716 0.109,-2.716 0.303,-3.935 -0.303,0 -0.605,0 -0.908,0 0.326,1.186 -0.702,3.729 0.605,3.935 z m 1.817,0.303 c 1.277,-0.858 -0.077,-2.485 0.303,-4.239 -0.303,0 -0.606,0 -0.909,0 0.553,1.69 -1.137,4.149 0.606,4.239 z m -79.34,-0.907 c -0.098,-0.729 0.258,-3.462 -0.303,-2.726 0.099,0.73 -0.258,3.46 0.303,2.726 z m 28.466,1.513 c 0.362,-0.906 0.775,-4.107 -0.303,-4.542 -0.09,0.788 -0.487,3.542 0.303,4.542 z m 15.141,-2.12 c 0,-0.807 0,-1.614 0,-2.422 -0.964,-0.334 -0.964,2.755 0,2.422 z m 7.873,0.909 c 1.077,0.023 0.836,-3.309 0,-3.332 0,1.111 0,2.222 0,3.332 z m 3.937,0 c -0.112,-0.813 0.277,-3.686 -0.303,-3.028 0.111,0.814 -0.278,3.686 0.303,3.028 z m 25.135,0.605 c 1.654,0.04 0.619,-2.61 0.908,-3.937 -0.303,0 -0.605,0 -0.908,0 -0.336,1.541 -0.388,2.99 0,3.937 z m -81.763,-0.907 c 0.271,-0.362 0.853,-2.868 -0.303,-2.726 0.188,0.822 -0.384,2.402 0.303,2.726 z m 83.579,1.211 c 0.285,-0.66 0.877,-3.78 -0.303,-3.937 0.195,1.218 -0.393,3.219 0.303,3.937 z m -51.177,-1.515 c -0.594,-0.99 0.544,-1.957 -0.605,-2.121 0.219,0.689 -0.546,2.364 0.605,2.121 z m -1.211,1.515 c 0.031,-1.244 0.049,-2.474 -0.605,-3.029 0.29,0.92 -0.649,3.072 0.605,3.029 z m 0.605,0 c 0.884,0.445 0.884,-1.354 0,-0.909 0,0.302 0,0.605 0,0.909 z m -9.69,5.45 c -2.887,-0.53 -6.09,-0.328 -8.479,0 -0.871,1.35 -1.572,2.87 -1.816,4.846 3.837,0.103 9.272,0.352 11.81,-0.304 -0.263,-1.757 -1.113,-2.925 -1.515,-4.542 z m 1.817,4.542 c 6.652,0.917 15.57,-0.429 21.804,0.909 -18.474,0.071 -38.212,-0.275 -54.509,0.908 -4.263,0.31 -10.199,-0.886 -11.81,1.816 1.718,2.7 6.375,1.383 9.388,1.211 11.38,-0.644 22.875,-0.698 35.43,-0.604 16.205,0.119 31.978,-0.104 48.149,0.604 2.028,0.089 5.334,0.577 6.662,-0.908 -0.077,-3.059 -3.964,-1.937 -6.359,-2.12 -8.271,-0.634 -18.662,-0.233 -25.74,-1.211 1.476,-0.139 3.547,0.317 4.542,-0.302 -2.573,-2.742 -1.043,-7.398 -3.634,-9.69 -3.201,-2.835 -8.661,-0.897 -14.536,-1.515 -0.769,0.543 0.301,2.925 -0.909,3.028 -2.141,0.193 -4.663,0.255 -6.964,0.303 -1.198,0.025 -3.045,-0.534 -3.634,0.606 -0.213,2.035 2.262,3.994 2.12,6.965 z m -37.853,-5.148 c 3.159,-0.071 4.183,-0.155 6.662,-0.304 0.574,-0.87 0.334,-3.02 0,-3.935 -2.322,0 -4.643,0 -6.965,0 0.036,1.479 -0.163,3.191 0.303,4.239 z m 81.46,-3.937 c -0.474,0.695 -0.474,2.94 0,3.633 1.757,0.667 4.714,0.132 6.964,0.304 -0.122,-1.29 0.294,-3.12 -0.303,-3.937 -2.22,0 -4.441,0 -6.661,0 z m -53.6,3.634 c 1.841,0.533 5.099,0.396 6.965,0 0.261,-1.26 0.419,-1.925 0,-3.028 -1.757,-0.665 -4.714,-0.13 -6.965,-0.302 -0.288,1.003 -0.47,2.128 0,3.33 z m -2.726,-0.908 c -0.527,1.795 -1.391,3.252 -1.817,5.148 -0.537,0.479 -1.856,1.084 -1.212,1.816 2.862,-0.524 3.277,-5.219 3.937,-7.57 -0.067,-0.236 -0.253,-0.352 -0.605,-0.304 -0.016,0.389 -0.388,0.422 -0.303,0.91 z m -25.74,2.121 c -0.436,1.884 -1.289,3.354 -1.514,5.45 4.264,-0.054 6.895,-0.104 10.901,-0.605 -0.196,-1.922 -0.995,-3.244 -1.514,-4.844 -2.421,-0.85 -5.155,0.177 -7.873,-0.001 z m 81.763,-0.304 c -0.592,1.729 -1.361,3.282 -1.817,5.148 3.291,0.266 7.726,0.922 10.902,0.304 -0.342,-1.879 -0.723,-3.721 -1.515,-5.148 -2.01,-0.616 -5.081,-0.169 -7.57,-0.304 z m -81.763,11.205 c 0.646,2.708 -0.328,9.597 0.909,12.718 2.829,1.13 6.23,0.847 9.388,0.908 10.901,0.216 21.937,0 33.007,0 7.256,0 14.474,0.304 21.804,0.304 7.729,0 15.245,0.693 21.5,-0.908 1.917,-2.247 0.191,-9.002 1.211,-11.811 0.104,-0.287 1.917,-1.168 0.303,-1.211 -30.006,-1.412 -58.774,-1.244 -88.122,0 z m 79.34,15.746 c -16.006,-0.68 -30.667,0 -47.24,0 -7.655,0 -15.016,0 -22.106,0 -2.302,0 -5.861,-0.825 -5.753,1.211 1.163,0.795 2.895,0.306 4.24,0.304 19.998,-0.015 47.861,0.952 70.557,0.605 1.33,-0.02 3.574,0.673 4.542,-0.909 -0.63,-1.671 -2.864,-1.151 -4.24,-1.211 z m -81.459,2.726 c -2.25,2.191 -4.267,4.616 -3.937,9.387 1.314,0.371 1.707,-1.411 2.422,-2.119 2.339,-2.315 5.927,-5.082 9.387,-6.057 7.166,-2.02 12.285,1.107 16.353,4.846 1.009,-0.948 1.631,-2.092 3.029,-3.029 1.387,-0.929 4.344,-1.158 3.937,-3.027 -9.713,-0.527 -21.471,-0.477 -31.191,-10e-4 z m 35.429,-0.302 c -1.211,0.505 -0.343,3.087 -0.605,4.541 8.609,-0.404 16.229,0.072 25.135,0 -0.035,-1.479 0.163,-3.191 -0.303,-4.239 -6.378,-0.652 -16.367,-0.141 -24.227,-0.302 z m -19.077,26.042 c -1.206,-4.051 0.667,-8.611 0,-11.811 -0.904,-4.333 -9.24,-8.501 -12.719,-4.239 2.939,-0.007 5.417,-0.149 7.268,1.211 2.691,1.977 4.721,8.427 3.633,12.718 -0.405,1.601 -2.059,4.235 -3.028,5.148 -1.14,1.074 -2.406,0.853 -3.331,2.12 3.805,0.511 6.588,-2.449 8.177,-5.147 z m 3.937,-16.655 c -1.508,2.003 -2.795,7.816 -2.423,11.507 0.328,3.255 0.354,8.681 2.726,9.387 1.287,-3.978 -0.282,-10.154 0.303,-15.14 0.271,-2.309 1.655,-4.024 1.211,-5.754 -0.606,0 -1.211,0 -1.817,0 z m -21.804,15.14 c 0.877,2.287 4.813,5.97 7.268,6.057 4.546,0.162 8.39,-4.873 8.479,-9.69 0.129,-7.056 -5.794,-13.023 -13.324,-9.085 -2.311,3.163 -4.113,8.309 -2.423,12.718 z m 62.685,26.346 c 0.161,-2.987 -0.183,-5.472 -0.304,-8.176 -1.413,0 -2.827,0 -4.239,0 1.25,2.991 2.521,5.958 4.543,8.176 z"
       id="path17169" /><path
       fill-rule="evenodd"
       clip-rule="evenodd"
       fill="#624d39"
       d="m 1142.241,593.725 c 5.74,-4.716 15.167,-0.201 17.26,5.148 -2.627,-3.287 -7.054,-7.374 -13.021,-6.663 -1.545,0.185 -2.575,1.055 -4.239,1.515 z"
       id="path17171" /><path
       fill-rule="evenodd"
       clip-rule="evenodd"
       fill="#624d39"
       d="m 1076.225,648.537 c 0.801,1.199 -0.745,2.361 -1.514,3.633 -1.154,1.909 -1.589,3.479 -3.028,5.148 -0.01,0.012 -1.103,1.475 -0.909,0.302 1.968,-2.876 3.699,-5.992 5.451,-9.083 z"
       id="path17173" /><path
       fill-rule="evenodd"
       clip-rule="evenodd"
       fill="#624d39"
       d="m 1153.142,656.712 c 1.401,1.815 4.87,7.281 6.359,11.203 -2.384,-3.469 -4.502,-7.205 -6.359,-11.203 z"
       id="path17175" /></g></g></svg>
