<?xml version="1.0" encoding="utf-8"?>
<!-- Generator: Adobe Illustrator 16.0.0, SVG Export Plug-In . SVG Version: 6.00 Build 0)  -->
<!DOCTYPE svg PUBLIC "-//W3C//DTD SVG 1.1//EN" "http://www.w3.org/Graphics/SVG/1.1/DTD/svg11.dtd">
<svg version="1.1" id="Layer_1" xmlns="http://www.w3.org/2000/svg" xmlns:xlink="http://www.w3.org/1999/xlink" x="0px" y="0px"
	 width="1200px" height="1200px" viewBox="0 0 1200 1200" enable-background="new 0 0 1200 1200" xml:space="preserve">
<g>
	<g>
		<radialGradient id="SVGID_1_" cx="421.1074" cy="352.8701" r="492.104" gradientUnits="userSpaceOnUse">
			<stop  offset="0" style="stop-color:#027F00"/>
			<stop  offset="1" style="stop-color:#003F10"/>
		</radialGradient>
		<path fill-rule="evenodd" clip-rule="evenodd" fill="url(#SVGID_1_)" d="M600,1081.025c-64.929,0-127.925-12.721-187.239-37.809
			c-57.282-24.228-108.724-58.909-152.895-103.08s-78.854-95.611-103.082-152.893c-25.089-59.314-37.81-122.311-37.81-187.24
			c0-64.93,12.721-127.928,37.81-187.243c24.229-57.283,58.91-108.724,103.082-152.896c44.171-44.172,95.612-78.854,152.895-103.083
			c59.314-25.088,122.311-37.809,187.239-37.809c64.933,0,127.931,12.721,187.245,37.809
			c57.283,24.229,108.724,58.911,152.895,103.083c44.17,44.171,78.851,95.613,103.078,152.896
			c25.087,59.314,37.808,122.312,37.808,187.243c0,64.929-12.721,127.926-37.808,187.239
			c-24.228,57.282-58.908,108.723-103.078,152.893c-44.171,44.17-95.611,78.852-152.895,103.08
			C727.931,1068.305,664.932,1081.025,600,1081.025z"/>
		<path fill="#FDCE1E" d="M600,136.475c256.006,0,463.525,207.532,463.525,463.53c0,255.994-207.52,463.521-463.525,463.521
			c-255.991,0-463.525-207.527-463.525-463.521C136.475,344.006,344.009,136.475,600,136.475 M600,101.475
			c-67.283,0-132.573,13.186-194.057,39.192c-59.368,25.111-112.679,61.052-158.451,106.825
			c-45.773,45.773-81.715,99.084-106.825,158.453c-26.007,61.484-39.192,126.775-39.192,194.061
			c0,67.284,13.187,132.574,39.192,194.057c25.11,59.367,61.052,112.678,106.825,158.45
			c45.772,45.772,99.083,81.712,158.451,106.823c61.483,26.005,126.773,39.191,194.057,39.191
			c67.287,0,132.579-13.186,194.062-39.191c59.368-25.11,112.679-61.051,158.451-106.823
			c45.771-45.771,81.712-99.082,106.822-158.45c26.004-61.482,39.189-126.772,39.189-194.057c0-67.285-13.186-132.577-39.189-194.06
			c-25.11-59.369-61.051-112.68-106.822-158.453s-99.082-81.714-158.451-106.825C732.579,114.661,667.287,101.475,600,101.475
			L600,101.475z"/>
	</g>
	<g id="_x36_HG0bm_1_">
		<g>
			<radialGradient id="SVGID_2_" cx="469.3105" cy="455.6709" r="605.327" gradientUnits="userSpaceOnUse">
				<stop  offset="0" style="stop-color:#FFE300"/>
				<stop  offset="1" style="stop-color:#FFC000"/>
			</radialGradient>
			<path fill-rule="evenodd" clip-rule="evenodd" fill="url(#SVGID_2_)" d="M407.217,702.314
				c6.182-9.578,12.358-19.155,19.556-30.317c2.573,12.236-1.162,21.58-5.02,30.664c-6.738,15.925-14.839,31.321-20.864,47.49
				c-11.919,32.046-15.84,65.493-7.197,98.63c10.698,41.021,38.32,67.041,78.872,79.692c15.288,4.766,30.996,5.344,46.597,5.537
				c13.979,0.183,28.003-1.995,41.968-3.491c3.032-0.325,5.894-2.178,9.536-3.604c-15.4-21.313-25.342-44.25-31.226-68.843
				c-2.861-11.97-5.444-24.204-6.201-36.428c-1.309-21.326-4.639-42.7-1.064-64.111c0.811-4.895-0.859-6.016-5.713-6.809
				c-34.546-5.627-51.685-32.166-58.892-62.175c-12.358-51.475-9.458-103.889-9.927-156.101
				c-0.244-27.878,0.337-55.789-0.713-83.643c-1.567-41.748-4.214-83.459-6.45-125.183c-1.499-28.118-6.416-55.615-14.507-82.607
				c-1.802-6.047-2.515-12.063,0.498-18.877c5.337-12.041,8.696-24.963,12.876-37.515c0.947-0.029,1.895-0.061,2.842-0.09
				c3.511,10.732,7.397,21.365,10.435,32.241c8.203,29.417,12.876,59.387,15.654,89.856c4.639,51.035,4.17,102.134,4.619,153.245
				c0.171,19.517,1.719,39.014,2.139,58.538c0.601,27.356-0.225,54.775,1.313,82.07c1.401,25.01,2.271,50.312,11.309,74.294
				c6.279,16.667,18.218,25.986,35.684,28.479c4.053,0.581,6.729-0.056,7.983-5.166c2.246-9.202,5.649-18.123,8.638-27.136
				c13.389-40.176,32.856-77.2,57.91-111.282c6.816-9.29,14.175-18.174,21.67-27.717c-25.405-5.344-49.458-13.101-70.713-27.722
				c-25.171-17.307-44.868-38.862-54.038-68.857c-6.899-22.556-5.132-44.597,1.953-66.736c10.474-32.72,32.754-53.262,64.302-65.454
				c31.187-12.051,62.563-13.96,94.468-4.214c23.247,7.109,43.784,19.131,61.108,36.353c1.143,1.135,1.846,2.703,3.77,5.613
				c-5.62-1.887-9.692-3.486-13.896-4.622c-25.386-6.819-50.811-9.556-77.285-5.73c-31.44,4.546-61.304,12.434-87.871,30.281
				c-7.827,5.264-14.893,11.665-22.305,17.539c-3.721,2.957-4.375,6.414-2.847,11.023c16.406,49.602,49.307,81.013,100.908,91.826
				c15.791,3.303,31.812,5.193,47.29-0.564c7.607-2.834,14.712-7.432,21.45-12.073c40.415-27.883,80.674-56.013,120.972-84.075
				c2.949-2.061,5.82-4.246,8.701-6.353c0.908,1.101,1.865,1.758,1.792,2.246c-2.28,14.26-4.326,28.577-7.3,42.703
				c-0.659,3.162-4.141,6.23-7.041,8.342c-29.102,21.135-58.589,41.724-87.456,63.159c-23.174,17.217-46.323,34.429-67.485,54.333
				c-35.947,33.823-63.511,73.469-85.508,117.253c-5.469,10.869-9.609,22.402-15.269,35.776c8.608-2.375,15.317-3.979,21.851-6.086
				c10.21-3.276,20.337-6.824,30.435-10.408c3.77-1.338,5.591-3.699,5.703-8.337c1.128-46.521,20.918-85.295,51.045-119.375
				c6.504-7.354,14.678-13.425,22.759-19.124c5.752-4.062,10.435-2.463,14.453,3.596c5.244,7.905,9.917,16.174,15.195,24.048
				c8.208,12.266,18.535,22.454,32.705,27.295c9.609,3.281,19.697,6.091,29.751,6.978c19.829,1.75,39.819,1.633,59.702,2.991
				c22.959,1.58,46.099,2.659,67.891,11.299c42.036,16.658,64.521,47.388,69.272,92.581c2.446,23.137,1.489,45.671-5.869,67.251
				c-6.606,19.375-15.645,38.052-25.02,56.313c-13.14,25.588-30.845,47.91-51.426,68.154c-26.23,25.793-56.021,46.335-88.35,63.496
				c-31.523,16.724-65.049,25.1-100.737,26.475c-24.99,0.957-49.053-2.251-72.31-11.055c-6.475-2.454-12.183-6.86-18.555-9.661
				c-3.115-1.362-7.144-2.024-10.435-1.372c-20.171,4.031-40.073,9.851-60.41,12.6c-40.273,5.466-79.941,1.66-114.731-20.867
				c-37.417-24.214-58.984-59.187-61.133-104.778c-1.67-35.601,3.574-70.146,16.182-103.44c5.083-13.416,11.44-26.348,17.236-39.5
				C404.033,708.157,405.63,705.237,407.217,702.314z M687.129,940.781c52.583,4.102,100.64-11.37,144.937-40.461
				c18.301-12.014,35.928-24.81,52.51-39.233c23.604-20.549,44.644-43.259,62.241-69.087c12.959-19.023,16.196-39.753,10.903-62.358
				c-8.091-34.539-30.698-55.806-62.1-68.457c-20.581-8.296-43.047-7.996-64.839-9.436c-23.076-1.521-46.23-0.564-69.136-5.537
				c-19.897-4.321-38.188-11.187-51.714-26.812c-7.788-8.992-14.453-19.053-20.825-29.141c-2.935-4.636-6.23-5.247-10.293-3.542
				c-3.315,1.394-6.646,3.481-9.097,6.077c-7.983,8.418-16.216,16.733-23.047,26.033c-4.243,5.776-7.744,13.037-8.721,20.032
				c-1.733,12.346,0.933,24.575,5.22,34.448c15.459-0.835,29.844-2.29,44.204-2.202c17.285,0.105,37.114,13.965,40.229,28.071
				c6.45,29.312-0.034,55.999-19.282,78.967c-10.684,12.749-28.354,12.676-38.442,7.185c-16.04-8.728-26.528-22.078-34.995-37.527
				c-3.931-7.168-7.563-14.49-11.611-22.312c-10.566,4.326-20.718,8.901-31.157,12.642c-12.725,4.553-25.654,8.579-38.608,12.468
				c-3.237,0.967-4.814,1.548-4.521,5.583c1.426,19.756,2.046,39.502,5.986,59.077c7.544,37.478,23.511,69.8,52.979,95.059
				c6.475,5.547,11.597,6.97,19.878,4.355c29.814-9.446,58.926-20.647,87.119-34.023c15.596-7.397,30.234-16.829,45.225-25.486
				c1.567-0.906,3.726-2.82,3.657-4.158c-0.391-6.987-0.806-14.082-2.324-20.891c-6.362-28.594-12.212-57.219-14.077-86.555
				c-0.527-8.213-0.283-17.17-3.53-24.368c-5.64-12.485-2.759-21.96,5.098-31.809c3.799-4.758,5.986-10.798,9.141-16.113
				c1.592-2.666,3.716-5.012,6.626-8.875c9.419,20.942,18.232,40.444,26.914,59.998c1.162,2.612,2.217,5.461,2.412,8.262
				c0.161,2.427-0.977,4.941-1.699,8.142c-4.521-3.879-7.9-6.77-13.262-11.37c1.943,11.277,3.164,20.234,5.049,29.05
				c5.078,23.757,10.933,47.351,8.408,72.039c-3.188,31.096-14.668,57.9-41.611,75.295
				C730.381,917.117,708.545,928.486,687.129,940.781z M663.667,719.202c9.702,12.378,18.721,21.575,31.982,25.767
				c5.791,1.838,9.893-0.889,13.091-4.355c3.774-4.097-0.122-7.874-2.881-10.652c-3.359-3.374-7.124-6.917-11.411-8.699
				C685.239,717.446,675.415,717.664,663.667,719.202z"/>
			<radialGradient id="SVGID_3_" cx="469.3105" cy="455.6685" r="605.3358" gradientUnits="userSpaceOnUse">
				<stop  offset="0" style="stop-color:#FFE300"/>
				<stop  offset="1" style="stop-color:#FFC000"/>
			</radialGradient>
			<path fill-rule="evenodd" clip-rule="evenodd" fill="url(#SVGID_3_)" d="M407.217,702.314c-1.587,2.922-3.184,5.842-4.771,8.765
				c-16.514,9.38-33.013,18.774-49.531,28.125c-1.426,0.798-3.013,1.338-4.551,1.943c-13.76,5.439-19.756,3.97-29.141-7.151
				c-2.798,3.472-5.488,7.053-8.428,10.403c-13.872,15.798-28.584,6.814-34.507-5.706c-1.382-2.937-2.007-6.228-3.418-10.798
				c-2.881,2.549-4.888,4.971-7.432,6.433c-3.135,1.785-6.665,3.679-10.137,3.914c-9.121,0.62-13.926-5.254-9.907-13.157
				c4.448-8.733,10.771-16.545,16.592-24.526c3.604-4.946,10.942-7.568,6.719-16.514c-1.372-2.908,2.534-8.296,4.673-14.404
				c2.441,4.409,4.028,7.288,5.742,10.374c0.791-0.571,1.792-1.116,2.534-1.904c0.527-0.559,1.025-1.47,0.977-2.183
				c-1.04-13.955,1.895-27.146,7.085-40.022c0.537-1.34-0.317-4.348-1.489-5.115c-17.568-11.514-18.94-29.163-17.656-47.417
				c0.537-7.778,1.973-15.945,5.146-22.964c3.848-8.484,4.502-16.25,1.426-23.809c-3.105,6.025-5.557,13.298-10.063,18.943
				c-5.723,7.156-12.837,12.148-23.677,8.738c-11.025-3.464-16.777-10.698-17.944-21.206c-0.918-8.159,0.103-16.572,0.703-24.836
				c0.464-6.448,1.606-12.852,1.636-19.412c-6.035,10.383-8.071,21.851-9.741,33.367c-1.24,8.564-1.392,17.314-3.052,25.781
				c-1.221,6.26-2.363,13.906-10.405,15.244c-7.349,1.23-11.357-4.602-14.351-10.056c-2.739-5.005-4.814-10.562-6.084-16.135
				c-2.505-10.835-1.934-21.802-0.532-32.666c0.908-0.042,1.812-0.088,2.72-0.122c0.459,7.068,1.23,14.136,1.294,21.216
				c0.049,7.166,0.894,14.097,5.332,19.829c2.197,2.834,5.64,4.697,8.521,7.002c2.471-3.11,6.25-5.884,7.153-9.399
				c1.953-7.532,1.943-15.554,3.623-23.188c2.944-13.298,6.558-26.453,9.883-39.675c0.103-0.403,0.205-0.825,0.41-1.182
				c2.505-4.233,5.078-10.432,10.249-9.207c5.303,1.262,3.115,7.656,2.808,12.007c-0.864,12.373-2.393,24.729-2.612,37.107
				c-0.083,4.57,1.709,9.973,4.468,13.618c5.708,7.537,16.089,7.354,24.194,0.967c7.471-5.884,11.001-13.904,10.562-22.866
				c-0.537-11.069-1.943-22.229-4.375-33.035c-2.046-9.089-4.121-17.639,2.646-27.095c1.621,2.488,3.789,4.749,4.702,7.434
				c4.824,14.189,6.099,29.021,7.686,43.826c0.786,7.271,2.544,14.656,5.22,21.45c2.925,7.395,8.877,9.595,15.015,7.222
				c6.279-2.427,8.633-7.124,7.207-14.785c-0.752-4.06-1.641-8.115-2.729-12.102c-3.887-14.27-8.457-28.394-11.582-42.837
				c-1.128-5.21,1.079-11.15,1.885-17.756c8.936,3.684,9.79,11.819,13.149,17.778c1.885,3.342,6.421,8.057-0.205,12.209
				c-0.801,0.503,0.366,4.585,1.011,6.904c2.402,8.713,5.249,17.319,7.368,26.099c2.627,10.85,1.04,21.426-4.194,31.255
				c-6.318,11.902-16.04,14.238-27.817,7.058c-1.06-0.647-2.188-1.155-3.296-1.741c-5.415,12.739-8.135,25.916-7.046,39.692
				c1.182,14.917,12.539,25.5,27.686,26.682c8.569,0.667,16.226-1.836,24.043-4.81c17.407-6.602,33.213-15.608,49.775-29.929
				c-8.799-1.262-14.692-2.51-20.645-2.891c-16.641-1.06-23.535-9.375-19.512-25.33c3.228-12.781,10.557-23.423,20.723-31.777
				c5.366-4.404,8.257-3.599,12.114,2.258c3.105,4.744,6.006,9.624,8.813,14.153c8.12-12.563,15.532-24.246,23.218-35.742
				c1.821-2.717,4.316-5.166,6.963-7.129c7.632-5.681,15.928-9.558,25.312-4.419c9.658,5.283,18.047,11.208,17.568,24.568
				c-0.527,14.973-6.382,26.067-19.155,33.706c-14.546,8.713-29.834,13.491-47.056,10.132c-3.267-0.64-7.769,2.046-10.127,0.618
				c-2.241-1.355-1.987-6.343-3.594-9.319c-2.7-4.978-6.006-9.619-9.893-15.718c-5.601,5.544-10.811,10.176-15.381,15.381
				c-4.722,5.386-2.729,9.822,4.673,10.947c6.47,0.994,12.988,1.877,19.512,2.361c11.035,0.82,17.485,11.895,11.978,23.96
				c-3.428,7.488-8.862,12.876-14.961,17.971c-3.062,2.566-5.742,5.583-8.599,8.394c-1.235,0.024-2.71-0.393-3.667,0.137
				c-8.569,4.739-16.782,10.271-25.679,14.29c-6.279,2.837-13.374,4.124-20.259,5.283c-4.995,0.845-11.621-1.506-14.99,0.984
				c-3.657,2.7-4.38,9.373-6.382,14.309c-0.156,0.383-0.469,0.718-0.552,1.111c-1.504,6.917-2.28,13.755,1.201,20.427
				c3.887,7.422,9.121,8.948,15.952,4.138c1.982-1.399,3.53-3.481,5.137-5.364c10.19-12.012,20.195-24.165,30.537-36.028
				c5.894-6.748,12.305-13.037,18.486-19.531c3.501-0.862,7.021-1.689,10.503-2.598c17.163-4.441,26.973,5.564,22.935,23.372
				c-17.222-10.974-29.834-9.268-43.975,6.692c-9.985,11.279-19.38,23.086-29.009,34.685c-0.771,0.93-1.108,2.229-1.88,3.154
				c-13.306,16.001-20.493,16.199-35.425,0.408c-4.854,15.452-3.726,30.623,0.215,45.31c2.432,9.065,11.318,10.896,20.498,6.86
				c6.23-2.732,9.121-7.959,12.368-13.191c2.046-3.289,4.316-6.428,7.29-10.825c3.457,16.479,6.787,19.277,19.248,16.57
				c-1.641-2.178-2.793-4.133-4.326-5.71c-13.242-13.584-15.352-32.407-2.231-49.37c9.121-11.792,28.906-13.767,42.871-4.226
				c3.301,2.261,5.903,5.503,8.53,9.224c-14.38-6.394-27.798-2.173-41.108,2.329c-10.894,3.687-12.153,7.234-7.607,17.6
				c2.915,6.636,7.129,11.833,13.296,15.73c6.353,4.021,12.5,5.757,19.707,1.997c9.424-4.922,19.165-9.238,28.643-14.072
				C404.155,698.025,406.099,698.682,407.217,702.314z M444.839,525.645c-0.947-1.755-1.68-3.135-2.432-4.5
				c-7.363-13.35-24.136-20.637-38.193-2.812c-6.006,7.632-11.226,15.889-18.188,25.847
				C410.527,547.59,429.072,541.504,444.839,525.645z M254.263,719.761c16.04,1.909,20.61-3.857,16.152-20.642
				c-3.062,3.274-6.113,6.113-8.638,9.355C259.048,711.975,256.816,715.857,254.263,719.761z"/>
			<radialGradient id="SVGID_4_" cx="469.3008" cy="455.6699" r="605.345" gradientUnits="userSpaceOnUse">
				<stop  offset="0" style="stop-color:#FFE300"/>
				<stop  offset="1" style="stop-color:#FFC000"/>
			</radialGradient>
			<path fill-rule="evenodd" clip-rule="evenodd" fill="url(#SVGID_4_)" d="M797.1,318.127c-5.498-5.054-10.698-9.207-15.103-14.092
				c-4.004-4.443-5.527-9.46-2.637-15.864c4.365-9.675,9.585-18.071,19.692-22.581c10.84-4.829,19.116-0.576,20.737,11.13
				c1.221,8.875-1.04,17.334-4.683,25.31c-2.08,4.519-2.08,7.715,2.9,9.812c0.376,0.156,0.723,0.432,1.05,0.681
				c13.73,10.388,12.324,13.269,4.414,26.155c-6.074-5.044-12.051-10.012-19.194-15.95
				c-38.682,54.883-85.024,101.118-148.428,127.263C707.275,410.544,757.188,369.519,797.1,318.127z M804.531,301.379
				c1.099-5.063,2.178-8.928,2.729-12.856c0.688-4.88-2.739-8.84-6.343-9.17c-3.228-0.295-7.28,2.896-9.927,5.581
				c-0.713,0.723,1.924,5.544,3.809,7.834C797.109,295.562,800.244,297.673,804.531,301.379z"/>
			<radialGradient id="SVGID_5_" cx="469.3105" cy="455.6777" r="605.3418" gradientUnits="userSpaceOnUse">
				<stop  offset="0" style="stop-color:#FFE300"/>
				<stop  offset="1" style="stop-color:#FFC000"/>
			</radialGradient>
			<path fill-rule="evenodd" clip-rule="evenodd" fill="url(#SVGID_5_)" d="M505.464,273.098
				c-1.602-11.675,3.438-17.681,13.018-21.492c29.028-11.56,57.622-24.287,86.934-35.061
				c36.938-13.594,74.429-25.718,111.714-38.369c1.25-0.422,3.711-0.193,4.111,0.554c0.601,1.096,0.21,3.069-0.366,4.404
				c-3.096,7.161-7.056,11.685-15.811,14.561c-66.548,21.858-133.164,43.669-196.426,74.282
				C507.905,272.334,507.09,272.532,505.464,273.098z"/>
			<radialGradient id="SVGID_6_" cx="469.3154" cy="455.6724" r="605.3278" gradientUnits="userSpaceOnUse">
				<stop  offset="0" style="stop-color:#FFE300"/>
				<stop  offset="1" style="stop-color:#FFC000"/>
			</radialGradient>
			<path fill-rule="evenodd" clip-rule="evenodd" fill="url(#SVGID_6_)" d="M876.074,481.169
				c14.78,11.736,29.268,23.247,44.077,35.015c-9.551,13.516-18.545,26.25-28.267,40.017
				c-13.823-11.089-27.085-21.885-40.532-32.434c-4.326-3.396-4.141-5.757-0.591-9.995
				C859.507,503.354,867.505,492.31,876.074,481.169z"/>
			<radialGradient id="SVGID_7_" cx="469.376" cy="455.6729" r="605.2516" gradientUnits="userSpaceOnUse">
				<stop  offset="0" style="stop-color:#FFE300"/>
				<stop  offset="1" style="stop-color:#FFC000"/>
			</radialGradient>
			<path fill-rule="evenodd" clip-rule="evenodd" fill="url(#SVGID_7_)" d="M1005.078,512.703
				c-9.78,12.661-19.346,25.044-29.443,38.113c-5.386-4.167-10.679-8.03-15.708-12.214c-8.276-6.885-16.396-13.97-24.551-20.999
				c-2.402-2.065-3.755-4.06-1.182-7.292c8.208-10.347,16.104-20.938,24.229-31.35c2.056-2.625,4.292-1.301,6.348,0.322
				c6.484,5.144,13.081,10.161,19.443,15.449C991.177,500.503,997.944,506.528,1005.078,512.703z"/>
			<radialGradient id="SVGID_8_" cx="469.3359" cy="455.6714" r="605.299" gradientUnits="userSpaceOnUse">
				<stop  offset="0" style="stop-color:#FFE300"/>
				<stop  offset="1" style="stop-color:#FFC000"/>
			</radialGradient>
			<path fill-rule="evenodd" clip-rule="evenodd" fill="url(#SVGID_8_)" d="M910.459,435.583
				c15.298,12.261,29.702,23.804,44.663,35.798c-9.302,11.758-18.247,22.739-26.758,34.053c-2.251,2.979-4.102,3.992-6.953,1.689
				c-11.836-9.546-23.604-19.207-35.381-28.831c-3.389-2.764-4.102-5.063-0.815-9.119
				C893.726,458.694,901.504,447.62,910.459,435.583z"/>
			<radialGradient id="SVGID_9_" cx="469.3164" cy="455.6772" r="605.316" gradientUnits="userSpaceOnUse">
				<stop  offset="0" style="stop-color:#FFE300"/>
				<stop  offset="1" style="stop-color:#FFC000"/>
			</radialGradient>
			<path fill-rule="evenodd" clip-rule="evenodd" fill="url(#SVGID_9_)" d="M469.971,917.686
				c-1.66-35.813-9.541-67.764-18.345-99.553c-2.759-9.929-5.752-19.827-7.876-29.91c-1.724-8.081-2.168-16.194,1.802-24.233
				c1.646-3.345,0.864-7.9,1.167-11.904c0.337-4.368-0.2-9.019,1.143-13.054c2.93-8.84,10.278-11.177,18.442-6.541
				c3.228,1.833,6.401,3.777,9.429,5.925c6.958,4.937,9.697,12.859,6.411,20.559c-0.864,2.056-4.136,3.308-6.548,4.448
				c-7.012,3.323-14.419,5.92-21.147,9.727c-4.961,2.81-6.719,7.095-4.521,13.608c5.264,15.552,9.683,31.396,13.862,47.275
				c4.409,16.687,8.115,33.538,9.028,50.894c0.122,2.385,1.528,5.557,3.389,6.829c4.258,2.91,4.316,6.804,4.043,10.979
				c-0.244,3.918-0.854,7.449-6.353,7.266C473.013,909.971,472.007,913.574,469.971,917.686z M453.501,756.506
				c4.272-2.385,7.734-4.326,11.875-6.631C455.615,745.774,455.615,745.774,453.501,756.506z"/>
			<radialGradient id="SVGID_10_" cx="469.292" cy="455.668" r="605.2845" gradientUnits="userSpaceOnUse">
				<stop  offset="0" style="stop-color:#FFE300"/>
				<stop  offset="1" style="stop-color:#FFC000"/>
			</radialGradient>
			<path fill-rule="evenodd" clip-rule="evenodd" fill="url(#SVGID_10_)" d="M325.2,576.685c0-10.178,0.342-18.728-0.063-27.253
				c-1.211-25.974-2.676-51.941-4.092-77.91c-1.099-20.232-2.29-40.452-3.398-60.676c-0.142-2.488,0.142-5.002-0.093-7.48
				c-1.025-10.984-1.069-10.984,5.059-21.326c5.864,6.143,12.471,28.679,11.816,41.438c-2.217-2.422-3.999-4.36-6.675-7.283
				c1.514,19.421,3.359,37.783,4.316,56.182c1.362,26.514,2.686,53.057,2.734,79.592C334.819,559.917,333.687,569.128,325.2,576.685
				z"/>
			<radialGradient id="SVGID_11_" cx="469.2949" cy="455.6694" r="605.3774" gradientUnits="userSpaceOnUse">
				<stop  offset="0" style="stop-color:#FFE300"/>
				<stop  offset="1" style="stop-color:#FFC000"/>
			</radialGradient>
			<path fill-rule="evenodd" clip-rule="evenodd" fill="url(#SVGID_11_)" d="M620.176,359.27
				c-0.874,5.232-1.763,10.459-2.739,16.235c5.02,2.849,10.576,6.255,16.357,9.221c6.177,3.176,8.682,8.625,9.771,14.902
				c2.129,12.163-6.694,27.476-18.179,31.995c-13.628,5.366-24.253-2.046-25.479-16.733c-1.475-17.856,7.129-32.651,13.242-48.24
				c1.123-2.856,2.983-5.422,4.512-8.118C618.496,358.782,619.341,359.026,620.176,359.27z M612.236,391.165
				c-5.444,11.45-5.122,18.85,0.01,23.152c3.838,3.23,12.446,1.943,18.096-2.468c3.267-2.556,4.053-5.254,0.532-7.849
				C625.122,399.751,619.097,395.852,612.236,391.165z"/>
			<radialGradient id="SVGID_12_" cx="469.3027" cy="455.6733" r="605.2944" gradientUnits="userSpaceOnUse">
				<stop  offset="0" style="stop-color:#FFE300"/>
				<stop  offset="1" style="stop-color:#FFC000"/>
			</radialGradient>
			<path fill-rule="evenodd" clip-rule="evenodd" fill="url(#SVGID_12_)" d="M370.513,285.891
				c38.486,38.135,48.052,93.909,38.804,120.237c-0.522-5.583-1.245-8.989-1.089-12.354c1.689-36.343-10.244-67.764-34.058-94.905
				C371.177,295.459,367.969,292.366,370.513,285.891z"/>
			<radialGradient id="SVGID_13_" cx="469.3096" cy="455.6689" r="605.3292" gradientUnits="userSpaceOnUse">
				<stop  offset="0" style="stop-color:#FFE300"/>
				<stop  offset="1" style="stop-color:#FFC000"/>
			</radialGradient>
			<path fill-rule="evenodd" clip-rule="evenodd" fill="url(#SVGID_13_)" d="M227.402,425.813c-0.405-1.965-1.362-3.884-0.825-4.485
				c2.441-2.773,4.946-5.847,8.091-7.607c21.235-11.904,42.607-23.533,64.033-35.076c1.274-0.681,3.369,0.183,5.073,0.325
				c-0.615,1.375-0.845,3.381-1.904,4.031c-6.636,4.062-13.467,7.812-20.215,11.697c-16.787,9.648-33.569,19.319-50.366,28.977
				C230.312,424.241,229.307,424.771,227.402,425.813z"/>
			<radialGradient id="SVGID_14_" cx="469.2998" cy="455.6694" r="605.2985" gradientUnits="userSpaceOnUse">
				<stop  offset="0" style="stop-color:#FFE300"/>
				<stop  offset="1" style="stop-color:#FFC000"/>
			</radialGradient>
			<path fill-rule="evenodd" clip-rule="evenodd" fill="url(#SVGID_14_)" d="M201.152,479.438
				c10.615-9.7,21.23-19.404,32.021-29.263c-1.812-2.5-3.115-4.092-4.204-5.823c-2.944-4.712-2.148-10.015,2.29-12.229
				c2.017-1.003,5.161-1.401,7.021-0.493c1.357,0.667,1.812,3.872,2.036,6.008c0.347,3.264-0.02,6.587,0.234,9.863
				c0.176,2.351,0.864,4.668,1.323,6.995c-2.002-0.139-4.121-0.723-5.972-0.261c-1.304,0.317-2.28,2.031-3.33,3.186
				C223.76,467.163,214.106,475.75,201.152,479.438z"/>
			<radialGradient id="SVGID_15_" cx="469.3145" cy="455.6655" r="605.3552" gradientUnits="userSpaceOnUse">
				<stop  offset="0" style="stop-color:#FFE300"/>
				<stop  offset="1" style="stop-color:#FFC000"/>
			</radialGradient>
			<path fill-rule="evenodd" clip-rule="evenodd" fill="url(#SVGID_15_)" d="M450.366,567.82c-1.455,2.065-2.3,4.595-4.004,5.5
				c-19.409,10.256-38.94,20.261-60.063,28.792c1.47-1.99,2.505-4.8,4.482-5.847c18.716-9.939,37.598-19.59,56.46-29.253
				C447.729,566.76,448.633,567.346,450.366,567.82z"/>
			<radialGradient id="SVGID_16_" cx="469.3096" cy="455.6699" r="605.3253" gradientUnits="userSpaceOnUse">
				<stop  offset="0" style="stop-color:#FFE300"/>
				<stop  offset="1" style="stop-color:#FFC000"/>
			</radialGradient>
			<path fill-rule="evenodd" clip-rule="evenodd" fill="url(#SVGID_16_)" d="M345.933,453.748
				c-1.509-8.723,4.897-9.915,8.428-12.158c12.876-8.159,26.279-15.466,39.443-23.162c3.887-2.28,7.51-5.012,11.489-7.1
				c1.069-0.554,2.974,0.488,4.487,0.793c-0.537,1.365-0.679,3.298-1.675,3.997c-3.394,2.341-7.129,4.172-10.649,6.316
				C380.591,432.654,363.755,442.913,345.933,453.748z"/>
			<radialGradient id="SVGID_17_" cx="469.3252" cy="455.7114" r="605.2692" gradientUnits="userSpaceOnUse">
				<stop  offset="0" style="stop-color:#FFE300"/>
				<stop  offset="1" style="stop-color:#FFC000"/>
			</radialGradient>
			<path fill-rule="evenodd" clip-rule="evenodd" fill="url(#SVGID_17_)" d="M333.472,773.418
				c-3.804,5.142-7.622,10.276-11.763,15.869c10.034,4.534,15.449-3.838,24.487-4.998c-4.844,8.687-12.012,11.96-19.897,13.083
				c-6.099,0.872-9.551-5.232-6.812-11.943c1.118-2.722,1.323-3.689-0.825-5.991c-4.692-5.012-3.54-11.985,2.324-14.9
				c1.372-0.688,3.989,1.123,6.035,1.797c-0.776,1.399-1.274,3.069-2.373,4.131c-1.04,1.003-5.029-0.391-2.534,3.152
				c0.62,0.869,2.91,1.287,4.092,0.889c1.851-0.625,3.428-2.112,5.122-3.235C332.051,771.99,332.759,772.7,333.472,773.418z"/>
			<radialGradient id="SVGID_18_" cx="469.3447" cy="455.6621" r="605.3859" gradientUnits="userSpaceOnUse">
				<stop  offset="0" style="stop-color:#FFE300"/>
				<stop  offset="1" style="stop-color:#FFC000"/>
			</radialGradient>
			<path fill-rule="evenodd" clip-rule="evenodd" fill="url(#SVGID_18_)" d="M221.06,682.339
				c7.095-8.85,14.131-17.747,21.274-26.545c3.208-3.938,4.531-7.09,0.083-11.633c-3.545-3.623-0.635-11.145,4.497-12.715
				c1.475-0.452,4.985,1.375,5.454,2.825c1.567,4.944,2.271,10.168,3.086,15.325c0.142,0.881-0.781,2.759-1.294,2.783
				c-10.186,0.505-10.444,11.003-16.133,16.033c-5.405,4.763-10.005,10.447-14.951,15.725
				C222.402,683.535,221.733,682.935,221.06,682.339z"/>
			<radialGradient id="SVGID_19_" cx="469.2773" cy="455.6704" r="605.2319" gradientUnits="userSpaceOnUse">
				<stop  offset="0" style="stop-color:#FFE300"/>
				<stop  offset="1" style="stop-color:#FFC000"/>
			</radialGradient>
			<path fill-rule="evenodd" clip-rule="evenodd" fill="url(#SVGID_19_)" d="M269.258,420.811c1.23,4.482,2.349,9.001,3.804,13.411
				c0.254,0.784,1.875,1.118,2.861,1.663c0.508-0.967,1.548-2,1.436-2.891c-0.469-3.838-1.274-7.634-0.845-11.716
				c4.966,4.734,6.953,10.598,5.732,16.948c-0.4,2.087-5.356,5.264-5.479,5.151c-6.055-5.959-13.335,8.696-17.881-0.525
				c-2.627-5.334-3.281-12.239-1.802-18.455c0.874-0.039,1.748-0.09,2.632-0.132c0.176,2.183,0.4,4.368,0.542,6.555
				c0.225,3.252-0.225,7.236,4.468,7.048c0.815-0.034,1.792-4.5,2.085-6.987c0.356-3.054,0.093-6.179,0.093-9.272
				C267.69,421.345,268.472,421.074,269.258,420.811z"/>
			<radialGradient id="SVGID_20_" cx="469.3096" cy="455.6655" r="605.3133" gradientUnits="userSpaceOnUse">
				<stop  offset="0" style="stop-color:#FFE300"/>
				<stop  offset="1" style="stop-color:#FFC000"/>
			</radialGradient>
			<path fill-rule="evenodd" clip-rule="evenodd" fill="url(#SVGID_20_)" d="M348.242,393.628
				c5.356-2.632,5.601-10.591,13.174-6.101c0.464,0.273,4.111-5.146,6.494-7.717c4.048-4.355,8.638-4.092,11.06,0.637
				c0.684,1.338,1.03,3.196,0.723,4.636c-1.787,8.269-10.806,12.839-19.194,10.249C357.446,394.397,354.087,394.402,348.242,393.628
				z"/>
			<radialGradient id="SVGID_21_" cx="469.3145" cy="455.6665" r="605.3571" gradientUnits="userSpaceOnUse">
				<stop  offset="0" style="stop-color:#FFE300"/>
				<stop  offset="1" style="stop-color:#FFC000"/>
			</radialGradient>
			<path fill-rule="evenodd" clip-rule="evenodd" fill="url(#SVGID_21_)" d="M387.808,495.476c-2.046,4.209-4.121,8.494-6.636,13.66
				c-5.508-3.167-10.669-6.118-15.737-9.028C371.865,482.122,372.368,484.197,387.808,495.476z"/>
			<radialGradient id="SVGID_22_" cx="469.3125" cy="455.6948" r="605.288" gradientUnits="userSpaceOnUse">
				<stop  offset="0" style="stop-color:#FFE300"/>
				<stop  offset="1" style="stop-color:#FFC000"/>
			</radialGradient>
			<path fill-rule="evenodd" clip-rule="evenodd" fill="url(#SVGID_22_)" d="M310.928,718.982
				c-4.478-3.052-8.501-5.642-12.339-8.489c-1.934-1.423-3.633-3.018-1.187-5.811c2.256-2.576,4.79-8.408,5.615-8.127
				c4.805,1.616,9.307,4.38,13.496,7.344c0.957,0.681,0.947,3.97,0.234,5.547C315.303,712.666,313.086,715.552,310.928,718.982z"/>
			<radialGradient id="SVGID_23_" cx="469.3203" cy="455.6714" r="605.4037" gradientUnits="userSpaceOnUse">
				<stop  offset="0" style="stop-color:#FFE300"/>
				<stop  offset="1" style="stop-color:#FFC000"/>
			</radialGradient>
			<path fill-rule="evenodd" clip-rule="evenodd" fill="url(#SVGID_23_)" d="M411.26,478.03
				c-4.712-5.583-8.813-10.251-12.651-15.132c-0.898-1.145-1.377-3.103-1.123-4.524c0.254-1.404,1.426-3.247,2.646-3.699
				c1.001-0.374,3.247,0.64,3.892,1.689c1.899,3.079,3.267,6.477,4.956,9.99c2.393-4.504,4.517-9.177,7.266-13.442
				c1.831-2.82,4.756-3.23,7.271-0.461c0.752,0.818,1.567,2.544,1.201,3.164c-0.503,0.84-2.354,1.675-3.208,1.365
				c-4.131-1.455-5.283,1.501-6.079,4.163C413.833,466.558,412.695,472.114,411.26,478.03z"/>
			<radialGradient id="SVGID_24_" cx="469.2871" cy="455.6738" r="605.3494" gradientUnits="userSpaceOnUse">
				<stop  offset="0" style="stop-color:#FFE300"/>
				<stop  offset="1" style="stop-color:#FFC000"/>
			</radialGradient>
			<path fill-rule="evenodd" clip-rule="evenodd" fill="url(#SVGID_24_)" d="M929.902,774.67
				c-1.274,8.916-8.062,14.988-13.652,20.708c-11.865,12.114-25.376,22.786-43.164,24.541c-6.763,0.662-14.16,0.098-20.552-2.051
				c-11.128-3.735-13.56-8.855-10.2-20.535c2.705-9.431,6.982-18.423,10.82-28.267c0.449,0.53,0.093-0.325-0.42-0.413
				c-14.707-2.61-20.752-12.581-10.991-28.555c3.604-5.879,7.939-11.528,12.896-16.277c3.086-2.961,7.837-4.612,12.368-0.962
				c3.94,3.191,3.408,7.344,2.598,11.394c-0.469,2.346-1.904,4.49-2.881,6.709c-3.613-0.535-7.646-2.275-10.84-1.287
				c-3.169,0.981-5.488,4.712-8.247,7.307c11.187,8.103,15.562,8.25,25.977,1.604c4.629-2.959,9.443-5.64,14.995-8.928
				c-0.137,15.447-11.392,20.769-19.707,27.737c-7.827,6.555-12.744,14.827-17.354,23.411c-2.861,5.359-1.426,7.756,4.556,10.19
				c9.692,3.943,19.453,2.869,29.277,0.417c15.815-3.95,27.593-14.16,39.062-24.873c1.123-1.038,2.422-1.892,3.706-2.747
				C928.301,773.694,928.813,774.116,929.902,774.67z"/>
			<radialGradient id="SVGID_25_" cx="469.3232" cy="455.667" r="605.3251" gradientUnits="userSpaceOnUse">
				<stop  offset="0" style="stop-color:#FFE300"/>
				<stop  offset="1" style="stop-color:#FFC000"/>
			</radialGradient>
			<path fill-rule="evenodd" clip-rule="evenodd" fill="url(#SVGID_25_)" d="M645.786,866.575
				c-12.9-10.688-24.624-20.51-36.479-30.166c-4.57-3.73-5.845-6.814-1.592-12.261c6.597-8.442,12.075-17.771,17.915-26.794
				c2.588-3.979,4.736-4.595,8.755-1.108c10.913,9.451,22.271,18.381,33.516,27.437c3.818,3.069,4.692,5.322,1.069,9.929
				C660.859,843.94,653.765,855.088,645.786,866.575z"/>
		</g>
	</g>
</g>
</svg>
